<svg id="Layer_1" data-name="Layer 1" xmlns="http://www.w3.org/2000/svg" viewBox="0 0 300 300"><defs><style>.cls-1{fill:#2c3d51;}.cls-2{fill:#1a697c;}.cls-3{fill:#fefefe;}.cls-4{fill:#42a094;}.cls-5{fill:#e6e3ca;}.cls-6{fill:#519fb4;}.cls-7{fill:#64aebc;}.cls-8{fill:none;}.cls-9{fill:#eae6cc;}.cls-10{fill:#e64f3f;}.cls-11{fill:#6dc5d5;}.cls-12{fill:#d26054;}.cls-13{fill:#7b6163;}</style></defs><path class="cls-1" d="M297.5,189q-56.13-56.1-112.25-112.2l5.58-9.39-21-14.5L150,54.08,141.76,56v186.8l-2-.27c-.08-.39-.16-.78-.22-1.17-1.49.12-1.27-1-1.27-1.86q0-9.75,0-19.51a76.19,76.19,0,0,0-20-2.28,113,113,0,0,0-28.47,4.47,2.79,2.79,0,0,0-2.38,3.18c0,1.3.88,3.13-1.29,3.77-.06,1.94-1,2.7-1,4.64-.28.29.29,1.75,0,2a26.36,26.36,0,0,0,1.83,2.35c6.32,6.56,12.61,13.15,19,19.62q20,20.18,40.15,40.25c.59.6,1.06,1.31,1.59,2H300V190.87A23.56,23.56,0,0,1,297.5,189Z" transform="translate(0 0)"/><path class="cls-2" d="M147.65,300H.43V.43H300V190.87a23.56,23.56,0,0,1-2.5-1.91Q238,129.45,178.42,69.94A18.21,18.21,0,0,0,175.7,68c-.93-3.78-3.28-7.08-8.77-7-17.19.24-34.38.16-51.57,0a7.55,7.55,0,0,0-7.06,5.55c-1.39,5.2-2.66,10.43-4.11,15.62a68.79,68.79,0,0,0-2.38,18,94.93,94.93,0,0,0,4.29,29.92,71.56,71.56,0,0,0,7.2,16.07c-1.9.1-3.81.16-5.7.33a22.21,22.21,0,0,0-4.56.68c-3.76,1.18-6.11,4-8,7.29a8.32,8.32,0,0,1-.4-1.8c0-7.65,0-15.3,0-22.95.56,0,1.13-.07,1.7-.09,2.66-.07,3.83-1.12,3.83-3.42,0-2.1-1.3-3.33-3.76-3.36-3.62-.06-7.25-.07-10.87,0a3.07,3.07,0,0,0-3.38,3.44c0,2.27,1,3.25,3.41,3.33l2.13.09c0,11,0,22,.07,33a12,12,0,0,0,.75,2.91A5.44,5.44,0,0,0,92,169.92l1.75.77.84.07c3.2,1.4,6.29,3.19,9.63,4.12a184.1,184.1,0,0,0,18.4,4.2c5.43.94,11,1.23,16.45,1.8-.05,2.3-.09,4.6-.14,6.9-3.91.05-7.82.13-11.74.15-7.61,0-15.22,0-22.83,0a35.34,35.34,0,0,0-5.22-1c-2.86-.15-3.55.52-4.41,3.39.7.31,1.4.91,2.08.9,3.63-.07,7.24-.4,10.86-.42,9-.06,18.1,0,27.15,0l.07,16.75c-2.25.25-4.51.44-6.76.75-6,.83-12.09,1.45-18.05,2.63-7.62,1.5-15.24,3.19-22.7,5.34-5.12,1.48-8.1,2.69-7.39,9.5a28.38,28.38,0,0,0,.76,3.35c0,.78.11,1.55.1,2.33,0,5.1,0,4.11,4.21,4.32a26.36,26.36,0,0,0,1.83,2.35c6.32,6.56,12.61,13.15,19,19.62q20,20.18,40.15,40.25C146.65,298.63,147.12,299.34,147.65,300Z" transform="translate(0 0)"/><path class="cls-3" d="M300,.43H.43V300c-.14-.07-.4-.14-.41-.22,0-.56,0-1.14,0-1.71V0Q149,0,298.07,0A9.36,9.36,0,0,1,300,.43Z" transform="translate(0 0)"/><path class="cls-4" d="M139,188.4a10.07,10.07,0,0,1-1.89.13c-1.78-.19-2.43.64-2.3,2.31-9,0-18.1-.07-27.15,0-3.62,0-7.23.35-10.86.42-.68,0-1.38-.59-2.08-.9H105l-.69-2.38c7.61,0,15.22,0,22.83,0,3.92,0,7.83-.1,11.74-.15C138.94,188,139,188.19,139,188.4Z" transform="translate(0 0)"/><path class="cls-5" d="M104.35,188l.69,2.38H94.72c.86-2.87,1.55-3.54,4.41-3.39A35.34,35.34,0,0,1,104.35,188Z" transform="translate(0 0)"/><path class="cls-6" d="M87.68,129.78h.85l0,35.94a12,12,0,0,1-.75-2.91C87.68,151.8,87.69,140.79,87.68,129.78Z" transform="translate(0 0)"/><path class="cls-7" d="M92,169.92l1.75.77Z" transform="translate(0 0)"/><path class="cls-8" d="M141.76,180.87l4.19,0-4.19,0Z" transform="translate(0 0)"/><path class="cls-8" d="M141.76,208.34l3.7,0-3.7,0Z" transform="translate(0 0)"/><path class="cls-8" d="M141.76,208.34h0l-3.49,0-3.39-.78,3.39.78Z" transform="translate(0 0)"/><path class="cls-9" d="M141.76,146.65V61.17q-13.2,0-26.4-.13a7.55,7.55,0,0,0-7.06,5.55c-1.39,5.2-2.66,10.43-4.11,15.62a68.79,68.79,0,0,0-2.38,18,94.93,94.93,0,0,0,4.29,29.92,71.56,71.56,0,0,0,7.2,16.07,11.33,11.33,0,0,0,2.21.42Z" transform="translate(0 0)"/><path class="cls-10" d="M141.76,175V146.65H115.51a11.33,11.33,0,0,1-2.21-.42c-1.9.1-3.81.16-5.7.33a22.21,22.21,0,0,0-4.56.68c-3.76,1.18-6.11,4-8,7.29l-.39,10.24a95.23,95.23,0,0,0,24.41,7.9A147.56,147.56,0,0,0,141.76,175Z" transform="translate(0 0)"/><path class="cls-7" d="M119,172.67a95.23,95.23,0,0,1-24.41-7.9q0,3,0,6c3.2,1.4,6.29,3.19,9.63,4.12a184.1,184.1,0,0,0,18.4,4.2c5.43.94,11,1.23,16.45,1.8h2.7V175A147.56,147.56,0,0,1,119,172.67Z" transform="translate(0 0)"/><path class="cls-11" d="M138.27,208.37l-3.39-.78c-2.25.25-4.51.44-6.76.75-6,.83-12.09,1.45-18.05,2.63-7.62,1.5-15.24,3.19-22.7,5.34-5.12,1.48-8.1,2.69-7.39,9.5a28.38,28.38,0,0,0,.76,3.35l.92,0h4.42c2.17-.64,1.34-2.47,1.29-3.77a2.79,2.79,0,0,1,2.38-3.18,113,113,0,0,1,28.47-4.47,76.19,76.19,0,0,1,20,2.28h0C138.24,216.12,138.26,212.24,138.27,208.37Z" transform="translate(0 0)"/><path class="cls-5" d="M141.76,208.34V188.47L139,188.4a10.07,10.07,0,0,1-1.89.13c-1.78-.19-2.43.64-2.3,2.31q0,8.37.07,16.75l3.39.78Z" transform="translate(0 0)"/><path class="cls-11" d="M95,154.52a8.1,8.1,0,0,1-.4-1.79c0-7.65,0-15.3,0-22.95H88.53l0,35.94A5.44,5.44,0,0,0,92,169.92l1.75.77.84.07q0-3,0-6Z" transform="translate(0 0)"/><path class="cls-10" d="M100.15,126.27c0-2.1-1.3-3.33-3.76-3.36-3.62-.06-7.25-.07-10.87,0a3.07,3.07,0,0,0-3.38,3.44c0,2.27,1,3.25,3.41,3.33l2.13.09h6.94c.56,0,1.13-.07,1.7-.09C99,129.62,100.15,128.57,100.15,126.27Z" transform="translate(0 0)"/><path class="cls-12" d="M141.76,180.87h-2.7c-.05,2.3-.09,4.6-.14,6.9,0,.21.05.41.08.62l2.76.07Z" transform="translate(0 0)"/><path class="cls-12" d="M141.76,188.47,139,188.4l2.76.07Z" transform="translate(0 0)"/><path class="cls-13" d="M81.66,229.13h0l-.92,0,.92,0Z" transform="translate(0 0)"/><path class="cls-7" d="M141.76,208.34l-3.49,0c0,3.87,0,7.75,0,11.63q0,9.75,0,19.51c0,.89-.22,2,1.27,1.86h2.26Z" transform="translate(0 0)"/><path class="cls-7" d="M138.23,220h0c0-3.88,0-7.76,0-11.63C138.26,212.24,138.24,216.12,138.23,220Z" transform="translate(0 0)"/><path class="cls-12" d="M81.66,229.13h0Z" transform="translate(0 0)"/><path class="cls-8" d="M150.13,182.48l-4.18,0,4.18,0Z" transform="translate(0 0)"/><path class="cls-8" d="M150.13,210l-3.69,0,3.69,0Z" transform="translate(0 0)"/><path class="cls-8" d="M141.76,208.34h0l3.5,0,3.38-.78-3.38.78Z" transform="translate(0 0)"/><path class="cls-9" d="M141.76,146.65V61.17q13.2,0,26.4-.13a7.55,7.55,0,0,1,7.07,5.55c1.39,5.2,2.65,10.43,4.11,15.62a68.36,68.36,0,0,1,2.37,18,94.92,94.92,0,0,1-4.28,29.92,72,72,0,0,1-7.2,16.07,11.47,11.47,0,0,1-2.21.42Z" transform="translate(0 0)"/><path class="cls-10" d="M141.76,175V146.65H168a11.47,11.47,0,0,0,2.21-.42c1.9.1,3.81.16,5.7.33a22.31,22.31,0,0,1,4.56.68c3.76,1.18,6.11,4,8,7.29l.38,10.24a95.16,95.16,0,0,1-24.4,7.9A147.56,147.56,0,0,1,141.76,175Z" transform="translate(0 0)"/><path class="cls-7" d="M164.5,172.67a95.16,95.16,0,0,0,24.4-7.9q0,3,0,6c-3.2,1.4-6.29,3.19-9.62,4.12a184.1,184.1,0,0,1-18.4,4.2c-5.43.94-11,1.23-16.45,1.8h-2.71V175A147.56,147.56,0,0,0,164.5,172.67Z" transform="translate(0 0)"/><path class="cls-11" d="M145.26,208.37l3.38-.78c2.26.25,4.52.44,6.76.75,6,.83,12.1,1.45,18,2.63,7.63,1.5,15.25,3.19,22.71,5.34,5.12,1.48,8.1,2.69,7.38,9.5a28.33,28.33,0,0,1-.75,3.35l-.92,0h-4.42c-2.18-.64-1.35-2.47-1.3-3.77a2.78,2.78,0,0,0-2.38-3.18,112.87,112.87,0,0,0-28.46-4.47,76.19,76.19,0,0,0-20,2.28h0C145.29,216.12,145.27,212.24,145.26,208.37Z" transform="translate(0 0)"/><path class="cls-5" d="M141.76,208.34V188.47l2.77-.07a10,10,0,0,0,1.88.13c1.78-.19,2.44.64,2.3,2.31q0,8.37-.07,16.75l-3.38.78Z" transform="translate(0 0)"/><path class="cls-11" d="M188.52,154.52a8.1,8.1,0,0,0,.4-1.79c0-7.65,0-15.3,0-22.95H195l0,35.94a5.46,5.46,0,0,1-3.49,4.21l-1.75.77-.85.07q0-3,0-6Z" transform="translate(0 0)"/><path class="cls-10" d="M183.37,126.27c0-2.1,1.31-3.33,3.77-3.36,3.62-.06,7.24-.07,10.87,0a3.06,3.06,0,0,1,3.37,3.44c0,2.27-1,3.25-3.41,3.33l-2.12.09h-6.94c-.57,0-1.13-.07-1.7-.09C184.55,129.62,183.38,128.57,183.37,126.27Z" transform="translate(0 0)"/><path class="cls-12" d="M141.76,180.87h2.71q.06,3.45.14,6.9c0,.21-.05.41-.08.62l-2.77.07Z" transform="translate(0 0)"/><path class="cls-12" d="M141.76,188.47l2.77-.07-2.77.07Z" transform="translate(0 0)"/><path class="cls-13" d="M198.39,230.61c0-.49,0-1,0-1.48h0l-.92,0c0,.78.11,1.55.1,2.33-.05,5.1,0,4.11,4.22,4.32.88-.4.66-1,.88-1.83C198,233.87,198.41,235.72,198.39,230.61Z" transform="translate(0 0)"/><path class="cls-13" d="M201.87,229.13h0l.92,0-.92,0Z" transform="translate(0 0)"/><path class="cls-7" d="M141.76,208.34l3.5,0c0,3.87,0,7.75,0,11.63q0,9.75,0,19.51c0,.89.22,2-1.28,1.86h-2.26Z" transform="translate(0 0)"/><path class="cls-7" d="M145.3,220h0c0-3.88,0-7.76,0-11.63C145.27,212.24,145.29,216.12,145.3,220Z" transform="translate(0 0)"/><path class="cls-12" d="M198.39,230.61c0,4.72-.35,4.34,3.25,4.33a1,1,0,0,0,1-1c0-1.62.09-3.23.14-4.84h-4.42C198.38,229.63,198.39,230.12,198.39,230.61Z" transform="translate(0 0)"/><path class="cls-12" d="M201.87,229.13h0Z" transform="translate(0 0)"/><path class="cls-13" d="M81.68,230.64c0-.49,0-1,0-1.48h0l-.92,0c0,.78.11,1.56.1,2.33,0,5.11,0,4.12,4.21,4.33.88-.41.67-1,.88-1.84C81.29,233.9,81.69,235.74,81.68,230.64Z" transform="translate(0 0)"/><path class="cls-12" d="M81.68,230.64c0,4.71-.36,4.33,3.25,4.33a1,1,0,0,0,1-1l.15-4.84H81.66C81.67,229.65,81.68,230.15,81.68,230.64Z" transform="translate(0 0)"/><path class="cls-12" d="M139.53,241.38h4.71a0,0,0,0,1,0,0v4.92a1.39,1.39,0,0,1-1.39,1.39h-1.93a1.39,1.39,0,0,1-1.39-1.39v-4.92A0,0,0,0,1,139.53,241.38Z"/></svg>