<svg id="Layer_1" data-name="Layer 1" xmlns="http://www.w3.org/2000/svg" viewBox="0 0 305.76 304.49"><defs><style>.cls-1,.cls-11,.cls-12{fill:#fff;}.cls-2{fill:#76d3dd;}.cls-3{fill:#3db3e1;}.cls-4{fill:#fdc966;}.cls-5{fill:#f9903b;}.cls-6{fill:#e04b5a;}.cls-7{fill:#89163f;}.cls-8{fill:#10557f;}.cls-9{font-size:19.11px;letter-spacing:-0.03em;}.cls-11,.cls-12,.cls-9{font-family:Arial-BoldMT, Arial;font-weight:700;}.cls-10{letter-spacing:-0.03em;}.cls-11{font-size:10.92px;}.cls-12{font-size:16.38px;}</style></defs><ellipse class="cls-1" cx="152.88" cy="152.25" rx="147.39" ry="147.67"/><path class="cls-2" d="M82.33,69.47l20.51,40.66a65.08,65.08,0,0,1,47.52-23.34l19-41.42L150.45,4.59A147.07,147.07,0,0,0,38.64,58.83Z"/><path class="cls-3" d="M44.4,155.69,89,165a65.3,65.3,0,0,1,11.39-51.71L79.83,72.61,36.15,62A146.72,146.72,0,0,0,5.49,152a148.61,148.61,0,0,0,3.33,31.28Z"/><path class="cls-4" d="M173.38,45.36l-19,41.41a65,65,0,0,1,47.87,22.58l44.25-11,20.1-40.23A147.09,147.09,0,0,0,154.46,4.58Z"/><path class="cls-5" d="M269.09,61.29,249,101.52l-44.2,11A65.1,65.1,0,0,1,217,164l36.15,27.75,44-9.37a147.64,147.64,0,0,0-28-121.08Z"/><path class="cls-6" d="M252.24,195.65l-36.12-27.72a65.37,65.37,0,0,1-32.69,41.65l.84,45.55L219,283.69a147.69,147.69,0,0,0,77.22-97.41Z"/><path class="cls-7" d="M180.66,256.88l-.84-45.54a65.19,65.19,0,0,1-52.95.42L91.78,240.82l-.65,45a147.68,147.68,0,0,0,124.3-.37Z"/><path class="cls-8" d="M88.17,239.09,123.24,210A65.35,65.35,0,0,1,89.9,168.91l-44.6-9.32L9.72,187.13a147.68,147.68,0,0,0,77.79,96.95Z"/><text class="cls-9" transform="translate(118.61 123.94)">GFEBS <tspan class="cls-10"><tspan x="-23.15" y="22.93">HR &amp; Payroll </tspan><tspan x="-12.23" y="45.86">and Labor </tspan><tspan x="-1.36" y="68.78">Process</tspan></tspan></text><text class="cls-11" transform="translate(212.29 221.81)">Payroll<tspan x="-7.58" y="13.1">Data Flow</tspan></text><path class="cls-1" d="M240.43,118v-7.81H242v3.07h3.09v-3.07h1.58V118H245.1v-3.41H242V118Z"/><path class="cls-1" d="M252,118v-.84a2.22,2.22,0,0,1-.81.71,2.35,2.35,0,0,1-1.07.26,2,2,0,0,1-1-.25,1.54,1.54,0,0,1-.66-.7,3.25,3.25,0,0,1-.2-1.26v-3.58h1.5V115a7.81,7.81,0,0,0,.08,1.47.82.82,0,0,0,.3.42.91.91,0,0,0,.56.16,1.16,1.16,0,0,0,.68-.21,1,1,0,0,0,.42-.52,6.39,6.39,0,0,0,.11-1.53v-2.39h1.5V118Z"/><path class="cls-1" d="M254.86,112.38h1.38v.77a2.21,2.21,0,0,1,1.76-.9,1.91,1.91,0,0,1,.95.23,1.75,1.75,0,0,1,.65.67,2.63,2.63,0,0,1,.81-.67,2,2,0,0,1,.92-.23,2.06,2.06,0,0,1,1.06.26,1.55,1.55,0,0,1,.64.74,3.25,3.25,0,0,1,.16,1.17V118h-1.5v-3.23a2.3,2.3,0,0,0-.16-1.09.71.71,0,0,0-.64-.32,1,1,0,0,0-.59.19,1.11,1.11,0,0,0-.4.56,4.16,4.16,0,0,0-.12,1.17V118h-1.5v-3.1a4.53,4.53,0,0,0-.08-1.07.58.58,0,0,0-.25-.35.75.75,0,0,0-.45-.12,1.09,1.09,0,0,0-.63.19,1,1,0,0,0-.39.54,3.94,3.94,0,0,0-.12,1.16V118h-1.5Z"/><path class="cls-1" d="M265.8,114.11l-1.36-.25a2.12,2.12,0,0,1,.79-1.21,2.82,2.82,0,0,1,1.66-.4,3.51,3.51,0,0,1,1.49.24,1.48,1.48,0,0,1,.69.6,3,3,0,0,1,.2,1.34v1.75a5.86,5.86,0,0,0,.07,1.1,3.32,3.32,0,0,0,.27.76h-1.48c0-.1-.09-.24-.15-.44a1.71,1.71,0,0,0-.05-.18,2.66,2.66,0,0,1-.82.56,2.24,2.24,0,0,1-.93.19,1.94,1.94,0,0,1-1.38-.47,1.58,1.58,0,0,1-.51-1.2,1.65,1.65,0,0,1,.23-.86,1.5,1.5,0,0,1,.65-.57,4.64,4.64,0,0,1,1.19-.35,8.22,8.22,0,0,0,1.45-.37v-.15a.8.8,0,0,0-.21-.62,1.3,1.3,0,0,0-.81-.18,1,1,0,0,0-.62.16A1.06,1.06,0,0,0,265.8,114.11Zm2,1.21a7.69,7.69,0,0,1-.91.23,2.88,2.88,0,0,0-.81.26.63.63,0,0,0-.3.53.75.75,0,0,0,.24.55.81.81,0,0,0,.59.23,1.32,1.32,0,0,0,.78-.27.91.91,0,0,0,.35-.5,2.9,2.9,0,0,0,.06-.73Z"/><path class="cls-1" d="M275.9,118h-1.5v-2.89a4.7,4.7,0,0,0-.09-1.18.85.85,0,0,0-.83-.57,1.2,1.2,0,0,0-.7.21,1.11,1.11,0,0,0-.43.57,5.23,5.23,0,0,0-.11,1.3V118h-1.5v-5.66h1.39v.83a2.28,2.28,0,0,1,1.87-1,2.19,2.19,0,0,1,.9.18,1.54,1.54,0,0,1,.63.46,1.66,1.66,0,0,1,.29.63,5,5,0,0,1,.08,1Z"/><path class="cls-1" d="M234.05,131.14v-7.81h3.33a5.72,5.72,0,0,1,1.82.21,1.84,1.84,0,0,1,.91.75,2.32,2.32,0,0,1,.34,1.23,2.09,2.09,0,0,1-.52,1.45,2.46,2.46,0,0,1-1.55.73,3.4,3.4,0,0,1,.85.65,9.35,9.35,0,0,1,.9,1.27l1,1.52h-1.89l-1.14-1.7a9.8,9.8,0,0,0-.83-1.14,1.27,1.27,0,0,0-.47-.33,2.57,2.57,0,0,0-.8-.09h-.32v3.26Zm1.58-4.51h1.17a6.43,6.43,0,0,0,1.42-.09.92.92,0,0,0,.44-.33,1,1,0,0,0,.16-.59.87.87,0,0,0-.8-.94c-.13,0-.52,0-1.16,0h-1.23Z"/><path class="cls-1" d="M245.2,129.34l1.49.25a2.41,2.41,0,0,1-.9,1.25,2.68,2.68,0,0,1-1.56.43,2.53,2.53,0,0,1-2.18-1,3.21,3.21,0,0,1-.56-1.95,3.14,3.14,0,0,1,.73-2.21,2.43,2.43,0,0,1,1.86-.8,2.53,2.53,0,0,1,2,.84,3.7,3.7,0,0,1,.69,2.56H243a1.49,1.49,0,0,0,.36,1,1.13,1.13,0,0,0,.87.37.91.91,0,0,0,.59-.19A1.16,1.16,0,0,0,245.2,129.34Zm.09-1.51a1.46,1.46,0,0,0-.34-1,1,1,0,0,0-.78-.34,1.06,1.06,0,0,0-.81.36,1.37,1.37,0,0,0-.31,1Z"/><path class="cls-1" d="M247.47,129.53l1.5-.23a1.06,1.06,0,0,0,.39.66,1.27,1.27,0,0,0,.82.23,1.52,1.52,0,0,0,.88-.21.48.48,0,0,0,.19-.4.37.37,0,0,0-.1-.28,1.15,1.15,0,0,0-.5-.2,8.18,8.18,0,0,1-2.3-.73,1.46,1.46,0,0,1-.67-1.28,1.54,1.54,0,0,1,.58-1.23,2.65,2.65,0,0,1,1.8-.51,3.19,3.19,0,0,1,1.73.38,2,2,0,0,1,.77,1.12l-1.41.26a.83.83,0,0,0-.34-.5,1.25,1.25,0,0,0-.73-.18,1.6,1.6,0,0,0-.84.17.34.34,0,0,0-.17.3.32.32,0,0,0,.15.27,5.46,5.46,0,0,0,1.4.42,4.41,4.41,0,0,1,1.67.67,1.41,1.41,0,0,1,.47,1.12,1.71,1.71,0,0,1-.65,1.33,2.87,2.87,0,0,1-1.93.56,3.1,3.1,0,0,1-1.83-.47A2.13,2.13,0,0,1,247.47,129.53Z"/><path class="cls-1" d="M253.72,128.23a3,3,0,0,1,.37-1.44,2.5,2.5,0,0,1,1-1.07,3.15,3.15,0,0,1,1.51-.37,2.8,2.8,0,0,1,2.1.84,2.88,2.88,0,0,1,.82,2.11,2.94,2.94,0,0,1-.82,2.13,2.83,2.83,0,0,1-2.09.84,3.23,3.23,0,0,1-1.49-.35,2.37,2.37,0,0,1-1.07-1A3.39,3.39,0,0,1,253.72,128.23Zm1.54.08a1.83,1.83,0,0,0,.4,1.29,1.25,1.25,0,0,0,1,.45,1.28,1.28,0,0,0,1-.45,2.33,2.33,0,0,0,0-2.58,1.27,1.27,0,0,0-1-.44,1.24,1.24,0,0,0-1,.44A1.86,1.86,0,0,0,255.26,128.31Z"/><path class="cls-1" d="M264.46,131.14v-.84a2.07,2.07,0,0,1-.81.71,2.22,2.22,0,0,1-1.06.26,2.07,2.07,0,0,1-1-.25,1.47,1.47,0,0,1-.65-.7,3,3,0,0,1-.21-1.25v-3.59h1.5v2.6a7.81,7.81,0,0,0,.08,1.47.78.78,0,0,0,.31.42.88.88,0,0,0,.55.16,1.17,1.17,0,0,0,.69-.21,1,1,0,0,0,.41-.52,5.71,5.71,0,0,0,.12-1.53v-2.39h1.49v5.66Z"/><path class="cls-1" d="M268.84,131.14h-1.5v-5.66h1.39v.81a2.43,2.43,0,0,1,.65-.75,1.17,1.17,0,0,1,.64-.19,1.92,1.92,0,0,1,1,.29l-.46,1.3a1.36,1.36,0,0,0-.71-.24.84.84,0,0,0-.53.17,1.24,1.24,0,0,0-.35.63,9.25,9.25,0,0,0-.12,1.9Z"/><path class="cls-1" d="M276.59,127.16l-1.48.26a1.09,1.09,0,0,0-.33-.66,1,1,0,0,0-.69-.23,1.11,1.11,0,0,0-.89.39,2,2,0,0,0-.34,1.29,2.36,2.36,0,0,0,.34,1.43,1.14,1.14,0,0,0,.91.41,1,1,0,0,0,.7-.24,1.43,1.43,0,0,0,.38-.84l1.48.26a2.7,2.7,0,0,1-.88,1.53,2.78,2.78,0,0,1-1.75.51,2.59,2.59,0,0,1-2-.78,3.05,3.05,0,0,1-.74-2.17,3,3,0,0,1,.75-2.18,2.63,2.63,0,0,1,2-.79,2.68,2.68,0,0,1,1.64.45A2.48,2.48,0,0,1,276.59,127.16Z"/><path class="cls-1" d="M281,129.34l1.49.25a2.43,2.43,0,0,1-.91,1.25,2.64,2.64,0,0,1-1.56.43,2.53,2.53,0,0,1-2.18-1,3.28,3.28,0,0,1-.56-1.95,3.09,3.09,0,0,1,.74-2.21,2.43,2.43,0,0,1,1.86-.8,2.5,2.5,0,0,1,2,.84,3.7,3.7,0,0,1,.7,2.56h-3.76a1.55,1.55,0,0,0,.37,1,1.12,1.12,0,0,0,.86.37.89.89,0,0,0,.59-.19A1.24,1.24,0,0,0,281,129.34Zm.08-1.51a1.41,1.41,0,0,0-.34-1,1,1,0,0,0-.77-.34,1,1,0,0,0-.81.36,1.37,1.37,0,0,0-.32,1Z"/><path class="cls-1" d="M232.53,144.25v-7.82h2.54a8.89,8.89,0,0,1,1.87.12,2.07,2.07,0,0,1,1.13.76,2.46,2.46,0,0,1,.45,1.53,2.52,2.52,0,0,1-.26,1.21,2.16,2.16,0,0,1-.66.77,2.4,2.4,0,0,1-.82.37,9.52,9.52,0,0,1-1.64.11h-1v2.95Zm1.58-6.5V140H235a4.12,4.12,0,0,0,1.24-.12,1,1,0,0,0,.68-1,1.06,1.06,0,0,0-.25-.71,1.09,1.09,0,0,0-.64-.34,6.75,6.75,0,0,0-1.13-.06Z"/><path class="cls-1" d="M243.09,142.44l1.49.25a2.49,2.49,0,0,1-.91,1.26,2.71,2.71,0,0,1-1.56.42,2.53,2.53,0,0,1-2.18-1,3.28,3.28,0,0,1-.56-1.95,3.11,3.11,0,0,1,.74-2.21,2.42,2.42,0,0,1,1.86-.79,2.5,2.5,0,0,1,2,.83,3.7,3.7,0,0,1,.7,2.56H240.9a1.55,1.55,0,0,0,.37,1,1.13,1.13,0,0,0,.86.38.9.9,0,0,0,.59-.2A1.24,1.24,0,0,0,243.09,142.44Zm.08-1.51a1.43,1.43,0,0,0-.34-1,1,1,0,0,0-.77-.34,1,1,0,0,0-.81.36,1.37,1.37,0,0,0-.32,1Z"/><path class="cls-1" d="M247.31,144.25h-1.49v-5.67h1.39v.81a2.3,2.3,0,0,1,.64-.75,1.18,1.18,0,0,1,.65-.18,1.85,1.85,0,0,1,1,.28l-.46,1.31a1.27,1.27,0,0,0-.7-.25.89.89,0,0,0-.54.17,1.24,1.24,0,0,0-.34.63,9,9,0,0,0-.13,1.9Z"/><path class="cls-1" d="M249.6,142.63l1.5-.23a1.21,1.21,0,0,0,.39.67,1.33,1.33,0,0,0,.82.22,1.52,1.52,0,0,0,.88-.21.48.48,0,0,0,.2-.4.39.39,0,0,0-.11-.28,1.22,1.22,0,0,0-.5-.2,8.18,8.18,0,0,1-2.3-.73,1.46,1.46,0,0,1-.67-1.28,1.54,1.54,0,0,1,.58-1.23,2.69,2.69,0,0,1,1.8-.5,3.08,3.08,0,0,1,1.73.38,1.94,1.94,0,0,1,.78,1.11l-1.42.27a.88.88,0,0,0-.34-.51,1.24,1.24,0,0,0-.72-.18,1.62,1.62,0,0,0-.85.17.36.36,0,0,0-.17.3.32.32,0,0,0,.15.27,5.73,5.73,0,0,0,1.4.43,4.21,4.21,0,0,1,1.67.66,1.41,1.41,0,0,1,.47,1.12,1.7,1.7,0,0,1-.65,1.33,2.87,2.87,0,0,1-1.93.56,3.18,3.18,0,0,1-1.83-.46A2.19,2.19,0,0,1,249.6,142.63Z"/><path class="cls-1" d="M255.85,141.34a3.16,3.16,0,0,1,.37-1.45,2.56,2.56,0,0,1,1-1.07,3.18,3.18,0,0,1,1.51-.36,2.82,2.82,0,0,1,2.11.83,3.14,3.14,0,0,1,0,4.24,2.81,2.81,0,0,1-2.09.84,3.19,3.19,0,0,1-1.48-.35,2.39,2.39,0,0,1-1.08-1A3.47,3.47,0,0,1,255.85,141.34Zm1.54.08a1.86,1.86,0,0,0,.4,1.29,1.32,1.32,0,0,0,2,0,2,2,0,0,0,.4-1.31,1.86,1.86,0,0,0-.4-1.27,1.3,1.3,0,0,0-2,0A1.83,1.83,0,0,0,257.39,141.42Z"/><path class="cls-1" d="M268,144.25h-1.5v-2.89a4.8,4.8,0,0,0-.09-1.19.85.85,0,0,0-.32-.42.86.86,0,0,0-.52-.15,1.12,1.12,0,0,0-.69.22,1.08,1.08,0,0,0-.43.56,5.28,5.28,0,0,0-.11,1.3v2.57h-1.5v-5.67h1.39v.84a2.27,2.27,0,0,1,1.87-1,2.37,2.37,0,0,1,.9.17,1.53,1.53,0,0,1,.62.46,1.83,1.83,0,0,1,.3.63,5,5,0,0,1,.08,1Z"/><path class="cls-1" d="M274.69,144.25h-1.5v-2.89a4.2,4.2,0,0,0-.1-1.19.78.78,0,0,0-.31-.42.86.86,0,0,0-.52-.15,1.16,1.16,0,0,0-.7.22,1.12,1.12,0,0,0-.42.56,4.82,4.82,0,0,0-.11,1.3v2.57h-1.5v-5.67h1.39v.84a2.25,2.25,0,0,1,1.86-1,2.38,2.38,0,0,1,.91.17,1.6,1.6,0,0,1,.62.46,1.83,1.83,0,0,1,.3.63,5,5,0,0,1,.08,1Z"/><path class="cls-1" d="M279.49,142.44l1.49.25a2.44,2.44,0,0,1-.91,1.26,2.7,2.7,0,0,1-1.55.42,2.54,2.54,0,0,1-2.19-1,3.28,3.28,0,0,1-.56-1.95,3.16,3.16,0,0,1,.74-2.21,2.42,2.42,0,0,1,1.86-.79,2.5,2.5,0,0,1,2,.83,3.7,3.7,0,0,1,.7,2.56h-3.75a1.49,1.49,0,0,0,.36,1,1.13,1.13,0,0,0,.86.38.9.9,0,0,0,.59-.2A1.24,1.24,0,0,0,279.49,142.44Zm.08-1.51a1.47,1.47,0,0,0-.33-1,1.08,1.08,0,0,0-.78-.34,1,1,0,0,0-.81.36,1.37,1.37,0,0,0-.32,1Z"/><path class="cls-1" d="M282.28,144.25v-7.82h1.5v7.82Z"/><path class="cls-1" d="M229,157.35h-1.72l-.68-1.78h-3.13l-.64,1.78h-1.68l3.05-7.82h1.67Zm-2.91-3.09-1.08-2.9-1.05,2.9Z"/><path class="cls-1" d="M235,157.35h-1.4v-.83a2.3,2.3,0,0,1-.81.72,2.13,2.13,0,0,1-1,.24,2.18,2.18,0,0,1-1.67-.79,3.21,3.21,0,0,1-.69-2.19,3.17,3.17,0,0,1,.67-2.19,2.24,2.24,0,0,1,1.72-.75,2.12,2.12,0,0,1,1.64.79v-2.82H235Zm-4-2.95a2.57,2.57,0,0,0,.25,1.31,1.13,1.13,0,0,0,1,.58,1.08,1.08,0,0,0,.88-.44,2,2,0,0,0,.36-1.31,2.21,2.21,0,0,0-.35-1.41,1.16,1.16,0,0,0-1.79,0A1.91,1.91,0,0,0,231,154.4Z"/><path class="cls-1" d="M236.36,151.69h1.38v.77a2.23,2.23,0,0,1,1.77-.9,1.89,1.89,0,0,1,.94.22,1.71,1.71,0,0,1,.65.68,2.67,2.67,0,0,1,.81-.68,2,2,0,0,1,.92-.22,2.05,2.05,0,0,1,1.06.25,1.53,1.53,0,0,1,.64.75,3,3,0,0,1,.16,1.17v3.62h-1.5v-3.24A2.25,2.25,0,0,0,243,153a.68.68,0,0,0-.63-.32,1,1,0,0,0-.6.19,1.13,1.13,0,0,0-.4.56,4.16,4.16,0,0,0-.12,1.17v2.72h-1.5v-3.1a4,4,0,0,0-.08-1.07.64.64,0,0,0-.25-.36.75.75,0,0,0-.45-.11,1.16,1.16,0,0,0-.63.18,1.08,1.08,0,0,0-.39.54,4,4,0,0,0-.12,1.17v2.75h-1.5Z"/><path class="cls-1" d="M246.18,150.92v-1.39h1.5v1.39Zm0,6.43v-5.66h1.5v5.66Z"/><path class="cls-1" d="M254.36,157.35h-1.5v-2.89a4.8,4.8,0,0,0-.09-1.19.89.89,0,0,0-.31-.42,1,1,0,0,0-.52-.14,1.2,1.2,0,0,0-.7.21,1,1,0,0,0-.42.56,4.71,4.71,0,0,0-.12,1.3v2.57h-1.5v-5.66h1.39v.83a2.33,2.33,0,0,1,2.78-.78,1.58,1.58,0,0,1,.62.45,1.65,1.65,0,0,1,.29.63,4.45,4.45,0,0,1,.08,1Z"/><path class="cls-1" d="M255.88,150.92v-1.39h1.5v1.39Zm0,6.43v-5.66h1.5v5.66Z"/><path class="cls-1" d="M258.39,155.73l1.5-.23a1.15,1.15,0,0,0,.39.67,1.33,1.33,0,0,0,.82.22,1.52,1.52,0,0,0,.88-.21.47.47,0,0,0,.19-.4.39.39,0,0,0-.1-.28,1.29,1.29,0,0,0-.5-.2,7.85,7.85,0,0,1-2.3-.73,1.44,1.44,0,0,1-.67-1.27,1.56,1.56,0,0,1,.58-1.24,2.74,2.74,0,0,1,1.8-.5,3.19,3.19,0,0,1,1.73.38,2,2,0,0,1,.78,1.12l-1.42.26a.88.88,0,0,0-.34-.51,1.24,1.24,0,0,0-.72-.17,1.63,1.63,0,0,0-.85.16.34.34,0,0,0,0,.58,5.46,5.46,0,0,0,1.4.42,4.27,4.27,0,0,1,1.67.66,1.41,1.41,0,0,1,.47,1.12,1.73,1.73,0,0,1-.65,1.34,2.92,2.92,0,0,1-1.93.56,3.18,3.18,0,0,1-1.83-.47A2.19,2.19,0,0,1,258.39,155.73Z"/><path class="cls-1" d="M267.58,151.69v1.19h-1v2.28a5.55,5.55,0,0,0,0,.81.31.31,0,0,0,.13.19.44.44,0,0,0,.26.07,1.77,1.77,0,0,0,.6-.14l.13,1.16a3,3,0,0,1-1.19.23,1.9,1.9,0,0,1-.73-.14,1.1,1.1,0,0,1-.47-.35,1.33,1.33,0,0,1-.21-.58,6.26,6.26,0,0,1-.05-1.06v-2.47h-.69v-1.19h.69v-1.13l1.5-.87v2Z"/><path class="cls-1" d="M270.06,157.35h-1.5v-5.66H270v.8a2.43,2.43,0,0,1,.64-.75,1.2,1.2,0,0,1,.65-.18,1.91,1.91,0,0,1,1,.28l-.47,1.31a1.25,1.25,0,0,0-.7-.25.79.79,0,0,0-.53.18,1.16,1.16,0,0,0-.35.62,9.31,9.31,0,0,0-.12,1.9Z"/><path class="cls-1" d="M274,153.41l-1.36-.24a2.2,2.2,0,0,1,.79-1.22,2.94,2.94,0,0,1,1.67-.39,3.57,3.57,0,0,1,1.49.24,1.48,1.48,0,0,1,.69.6,3.13,3.13,0,0,1,.2,1.34l0,1.75a5.73,5.73,0,0,0,.08,1.1,2.86,2.86,0,0,0,.26.76h-1.48a3.92,3.92,0,0,1-.14-.44,1.2,1.2,0,0,0-.06-.18,2.55,2.55,0,0,1-.82.56,2.41,2.41,0,0,1-.93.19A1.93,1.93,0,0,1,273,157a1.58,1.58,0,0,1-.5-1.2,1.61,1.61,0,0,1,.23-.85,1.5,1.5,0,0,1,.64-.58,5.24,5.24,0,0,1,1.19-.35,7.56,7.56,0,0,0,1.46-.37v-.14a.75.75,0,0,0-.22-.62,1.29,1.29,0,0,0-.8-.18,1.07,1.07,0,0,0-.62.15A1.11,1.11,0,0,0,274,153.41Zm2,1.22c-.19.06-.5.14-.91.23a3,3,0,0,0-.82.26.61.61,0,0,0-.29.53.74.74,0,0,0,.23.54.85.85,0,0,0,.6.23,1.27,1.27,0,0,0,.77-.27,1,1,0,0,0,.36-.49,2.9,2.9,0,0,0,.06-.73Z"/><path class="cls-1" d="M281.54,151.69v1.19h-1v2.28a5.55,5.55,0,0,0,0,.81.31.31,0,0,0,.13.19.41.41,0,0,0,.25.07,1.86,1.86,0,0,0,.61-.14l.12,1.16a2.92,2.92,0,0,1-1.18.23,1.9,1.9,0,0,1-.73-.14,1.07,1.07,0,0,1-.48-.35,1.46,1.46,0,0,1-.21-.58,7.6,7.6,0,0,1-.05-1.06v-2.47h-.68v-1.19H279v-1.13l1.51-.87v2Z"/><path class="cls-1" d="M282.58,150.92v-1.39h1.5v1.39Zm0,6.43v-5.66h1.5v5.66Z"/><path class="cls-1" d="M285.27,154.44a3,3,0,0,1,.37-1.45,2.48,2.48,0,0,1,1-1.06,3,3,0,0,1,1.5-.37,2.82,2.82,0,0,1,2.93,2.94,2.92,2.92,0,0,1-.83,2.13,2.78,2.78,0,0,1-2.09.85,3.35,3.35,0,0,1-1.48-.35,2.39,2.39,0,0,1-1.07-1A3.35,3.35,0,0,1,285.27,154.44Zm1.53.08a1.91,1.91,0,0,0,.4,1.29,1.28,1.28,0,0,0,1,.45,1.25,1.25,0,0,0,1-.45,1.87,1.87,0,0,0,.4-1.3,1.84,1.84,0,0,0-.4-1.28,1.25,1.25,0,0,0-1-.45,1.28,1.28,0,0,0-1,.45A1.91,1.91,0,0,0,286.8,154.52Z"/><path class="cls-1" d="M297.43,157.35h-1.49v-2.89a4.63,4.63,0,0,0-.1-1.19.83.83,0,0,0-.31-.42,1,1,0,0,0-.52-.14,1.23,1.23,0,0,0-.7.21,1,1,0,0,0-.42.56,4.71,4.71,0,0,0-.12,1.3v2.57h-1.5v-5.66h1.39v.83a2.33,2.33,0,0,1,2.78-.78,1.58,1.58,0,0,1,.62.45,1.65,1.65,0,0,1,.29.63,4.45,4.45,0,0,1,.08,1Z"/><path class="cls-1" d="M244.22,172.75h-1a10.41,10.41,0,0,1-1.24-2.56,8.54,8.54,0,0,1-.43-2.57,8.13,8.13,0,0,1,.53-2.92,10.48,10.48,0,0,1,1.16-2.2h1a15.7,15.7,0,0,0-1,2.75,10.38,10.38,0,0,0-.27,2.4,10.09,10.09,0,0,0,.16,1.79,12.12,12.12,0,0,0,.45,1.75C243.69,171.55,243.91,172.07,244.22,172.75Z"/><path class="cls-1" d="M245.39,170.45v-7.82H247v3.08h3.09v-3.08h1.58v7.82h-1.58V167H247v3.42Z"/><path class="cls-1" d="M253.27,170.45v-7.82h3.32a5.58,5.58,0,0,1,1.82.22,1.79,1.79,0,0,1,.91.74,2.24,2.24,0,0,1,.34,1.24,2.1,2.1,0,0,1-.51,1.45,2.51,2.51,0,0,1-1.55.72,3.91,3.91,0,0,1,.85.66,8.73,8.73,0,0,1,.9,1.27l.95,1.52h-1.89l-1.14-1.7a10.26,10.26,0,0,0-.83-1.15,1.13,1.13,0,0,0-.47-.32,2.61,2.61,0,0,0-.8-.09h-.32v3.26Zm1.58-4.51H256a5.63,5.63,0,0,0,1.42-.1.85.85,0,0,0,.44-.33,1,1,0,0,0,.16-.58.93.93,0,0,0-.21-.64,1,1,0,0,0-.6-.31c-.12,0-.51,0-1.15,0h-1.23Z"/><path class="cls-1" d="M261.15,170.45v-7.82h2.53a9,9,0,0,1,1.88.12,2.07,2.07,0,0,1,1.13.77,2.43,2.43,0,0,1,.45,1.52,2.61,2.61,0,0,1-.26,1.21,2.26,2.26,0,0,1-1.48,1.14,9.6,9.6,0,0,1-1.64.11h-1v2.95Zm1.58-6.49v2.21h.86a4.15,4.15,0,0,0,1.25-.12,1,1,0,0,0,.49-.38,1.07,1.07,0,0,0,.18-.61,1,1,0,0,0-.25-.7,1.07,1.07,0,0,0-.63-.35,7.21,7.21,0,0,0-1.14,0Z"/><path class="cls-1" d="M274.67,170.45H273l-.68-1.78h-3.12l-.65,1.78h-1.67l3-7.82h1.67Zm-2.9-3.09-1.08-2.9-1.06,2.9Z"/><path class="cls-1" d="M275.08,172.75c.3-.63.51-1.12.63-1.46a9.8,9.8,0,0,0,.33-1.16,10.92,10.92,0,0,0,.23-1.26,9.74,9.74,0,0,0,.08-1.22,9.86,9.86,0,0,0-.28-2.4,15.55,15.55,0,0,0-1-2.75h1a10,10,0,0,1,1.25,2.43,7.86,7.86,0,0,1,.44,2.61,8.8,8.8,0,0,1-.35,2.39,9.94,9.94,0,0,1-1.31,2.82Z"/><text class="cls-11" transform="translate(188.13 46.93)">Overview<tspan x="-12.11" y="13.1">of GFEBS HR </tspan><tspan x="-12.13" y="26.2">&amp; Payroll and </tspan><tspan x="7.6" y="39.31">Labor </tspan></text><text class="cls-11" transform="translate(126.4 242.59)">Maintain<tspan x="4.54" y="13.1">Master</tspan><tspan x="-5.17" y="26.2">Employee </tspan><tspan x="0.29" y="39.31">Records</tspan></text><text class="cls-12" transform="translate(59.44 56.01)">01</text><text class="cls-12" transform="translate(173.67 28.32)">02</text><text class="cls-12" transform="translate(261.88 102.1)">03</text><text class="cls-12" transform="translate(214.36 201.47)">04</text><text class="cls-12" transform="translate(96.62 251.68)">05</text><text class="cls-12" transform="translate(29.09 210.99)">06</text><text class="cls-12" transform="translate(17.84 120.09)">07</text><text class="cls-11" transform="translate(87.95 54.73)">Introduction</text><text class="cls-11" transform="translate(55.1 209.22)">Reports</text><text class="cls-11" transform="translate(43.85 119.18)">Review</text></svg>