<svg id="Layer_1" data-name="Layer 1" xmlns="http://www.w3.org/2000/svg" viewBox="0 0 148.36 210.05"><defs><style>.cls-1{fill:#2f3f52;}.cls-2{fill:#304053;}.cls-3{fill:#ebeff0;}.cls-4{fill:#5d6273;}.cls-5{fill:#e8d5ac;}.cls-6{fill:#fee7be;}.cls-7{fill:#e5cea6;}.cls-8{fill:#ccbf98;}.cls-9{fill:#d4c4a4;}</style></defs><g id="MkK2ha.tif"><path class="cls-1" d="M151.5,211H22.5c-1.57,0-4-2.09-5.14-3.06a11.56,11.56,0,0,1-3.59-5.1c-.95-2.89-.45-6-.33-8.92s0-6-.1-8.91c-.36-10.65,1.15-22.19,6.34-31.69a39.06,39.06,0,0,1,7.55-9.74,35.46,35.46,0,0,1,17.91-9.35c-.44,1.66-1,3.3-1.32,5-.4,1.85-.59,3.75-1,5.61-.85,4-1.76,8-2.73,12.34l23.4-12.85,22.63,53.94.65-.18c7.5-17.88,15-35.75,22.55-53.76l23,12.63a6.05,6.05,0,0,0,.16-1.47c-1.52-6.93-3.08-13.85-4.58-20.79,0-.22.39-.54.6-.81,4.44,1.91,9.23,3.28,13.26,5.84C153.3,147,158,158.55,160,171.47a124.16,124.16,0,0,1,1.55,16.83c0,2.89,0,5.79-.21,8.67a15.57,15.57,0,0,1-1.85,7.24,16.33,16.33,0,0,1-3.43,4.2C154.92,209.41,153.11,211,151.5,211Z" transform="translate(-13.2 -0.95)"/><path class="cls-2" d="M94.56,1.25A10.87,10.87,0,0,1,97.21,1a16,16,0,0,1,2.07.12,33.4,33.4,0,0,1,6.88,2.06A40.88,40.88,0,0,1,123,15.39c14.26,16.7,17.54,36.33,14.22,57.32a78.85,78.85,0,0,1-10.32,27.93c-5.71,9.58-2.57,7.69-13.54,9.66l-.07-.13-.16,0,0-.15-.15,0a12.29,12.29,0,0,1,.49-1.32c2.1-4.1,4.64-8,6.26-12.31a90,90,0,0,0,5.71-36.13c-.12-2.81-1.08-5.38-3.55-6.73a38.51,38.51,0,0,0-9.46-4c-8.39-1.9-16.88-3.31-25.32-4.93-1.32-.46-2.65-.89-4-1.4C77.41,41,72.25,38,69.15,32.41c-.82-1.49-1.48-1.16-2.46-.34C53.9,42.79,47.43,56.4,48.77,73.12c1,12.82,4.55,25,11.84,35.86L60,110.43c-2.2-.61-4.45-1.1-6.59-1.88a5.79,5.79,0,0,1-2.84-2c-7.26-11.72-13-24.17-15.29-37.81-1.76-10.52-1.63-21.13,2.16-31.43C43.17,21.63,54,10.85,69.11,4.29A23.11,23.11,0,0,1,78.52,2.1c1.37,0,4.77.29,5.23,1.95.71,2.49,1.73,1.58,3,.6A6.65,6.65,0,0,1,88,3.9,35.34,35.34,0,0,1,94.56,1.25Z" transform="translate(-13.2 -0.95)"/><path class="cls-3" d="M116.43,131.48c3.74.55,7.49,1.08,11.23,1.67.32,0,.57.47.85.72-.21.27-.65.59-.6.81,1.5,6.94,3.06,13.86,4.58,20.79a6.05,6.05,0,0,1-.16,1.47l-23-12.63c-7.56,18-15,35.88-22.55,53.76l-.65.18L63.51,144.31l-23.4,12.85c1-4.35,1.88-8.34,2.73-12.34.39-1.86.58-3.76,1-5.61.36-1.68.88-3.32,1.32-5L57,131.5c3.11,1.36,6.18,2.85,9.35,4.05,3.4,1.29,6,3.09,7.57,6.65,3.75,8.68,7.78,17.25,11.75,25.85.22.48.92.75,1.4,1.12A5.59,5.59,0,0,0,88,168c3.72-8.47,7.4-17,11.12-25.43,1.13-2.58,2.17-5.37,5-6.53C108.17,134.39,112.32,133,116.43,131.48Z" transform="translate(-13.2 -0.95)"/><path class="cls-4" d="M13.29,177.56c.17-1.11.33-2.23.5-3.34C13.62,175.33,13.46,176.45,13.29,177.56Z" transform="translate(-13.2 -0.95)"/><path class="cls-5" d="M60.61,109c-7.29-10.85-10.82-23-11.84-35.86C47.43,56.4,53.9,42.79,66.69,32.07c1-.82,1.64-1.15,2.46.34,3.1,5.58,8.26,8.59,14,10.82,1.31.51,2.64.94,4,1.4,0,1.33-.09,2.67-.09,4V125c-6.8.6-12.56-1.94-17.44-6.36C66.32,115.71,63.58,112.22,60.61,109Z" transform="translate(-13.2 -0.95)"/><path class="cls-6" d="M87,125V48.63c0-1.33.06-2.67.09-4,8.44,1.62,16.93,3,25.32,4.93a38.51,38.51,0,0,1,9.46,4c2.47,1.35,3.43,3.92,3.55,6.73a90,90,0,0,1-5.71,36.13c-1.62,4.28-4.16,8.21-6.26,12.31A12.29,12.29,0,0,0,113,110c-1.29,1.45-2.55,2.93-3.88,4.34C103.07,120.7,96.37,125.63,87,125Z" transform="translate(-13.2 -0.95)"/><path class="cls-7" d="M116.43,131.48c-4.11,1.51-8.26,2.91-12.31,4.57-2.83,1.16-3.87,3.95-5,6.53-3.72,8.47-7.4,17-11.12,25.43a5.59,5.59,0,0,1-.92,1.16q0-18.07-.07-36.15c6,0,11-2.79,15.18-6.61,4.91-4.45,9.87-9.09,10.94-16.22l.16,0,.07.13c-.63.31.28,9.62.38,10.77C114.06,124.86,115.22,127.93,116.43,131.48Z" transform="translate(-13.2 -0.95)"/><path class="cls-8" d="M113.13,110.19c-1.07,7.13-6,11.77-10.94,16.22C98,130.23,93,133.05,87,133c-2-.27-4.09-.14-5.86-.88A37,37,0,0,1,64,117.93a79.8,79.8,0,0,1-3.75-7.38.24.24,0,0,1-.3-.12c.22-.49.44-1,.65-1.45,3,3.24,5.71,6.73,9,9.66,4.88,4.42,10.64,7,17.44,6.36,9.37.63,16.07-4.3,22.08-10.65,1.33-1.41,2.59-2.89,3.88-4.34l.15,0Z" transform="translate(-13.2 -0.95)"/><path class="cls-9" d="M60.26,110.55A79.8,79.8,0,0,0,64,117.93a37,37,0,0,0,17.14,14.21c1.77.74,3.9.61,5.86.88q0,18.07.07,36.15c-.48-.37-1.18-.64-1.4-1.12-4-8.6-8-17.17-11.75-25.85-1.53-3.56-4.17-5.36-7.57-6.65-3.17-1.2-6.24-2.69-9.35-4.05,2.26-2.7,2.6-6.49,2.82-9.86.11-1.65.21-3.31.3-5C60.22,115.26,60.88,111.8,60.26,110.55Z" transform="translate(-13.2 -0.95)"/></g></svg>