<svg id="Layer_1" data-name="Layer 1" xmlns="http://www.w3.org/2000/svg" viewBox="0 0 172.16 210.69"><defs><style>.cls-1{fill:#eef2f3;}.cls-2{fill:#2f3f52;}.cls-3{fill:#d7dee5;}.cls-4{fill:#e9edee;}.cls-5{fill:#ccd4dc;}.cls-6{fill:#b2b1bb;}.cls-7{fill:#967245;}.cls-8{fill:#314052;}.cls-9{fill:#765b39;}.cls-10{fill:#886741;}.cls-11{fill:#ab8351;}.cls-12{fill:#93724a;}</style></defs><g id="Bop97O.tif"><path class="cls-1" d="M48.44,135.33l9-5.59c.77.43,1.56.85,2.32,1.3,3.23,1.92,6.44,3.85,9.66,5.78l2.31,1.33,6.69,3.71,1.15.83,1.34.61,1.33.85,3.87,1.79.28.45L86,149.05l-.63,1.2-.78,1.4-2.32,4.57c-.93,1.69-1.86,3.36-2.77,5.06-.77,1.45-.32,2.53.83,3.69a19,19,0,0,1,2.26,3.59l-.12,1.08-.06.61c-.34,5.23-1,10.43-1.75,15.62-.24,1.72.63,12.14-1.49,18.26-.19.52-3-7.86-3.24-8.32Q71.28,188.1,67,180.1a251.22,251.22,0,0,1-14.52-33.28c-1.19-3.34-2-6.8-3.09-10.19C49.28,136.14,48.78,135.76,48.44,135.33Z" transform="translate(-0.98 -0.98)"/><path class="cls-2" d="M162,211.37c-2,.51-4.57.13-6.66.13H20.43c-3,0-6.7.6-9.58-.42A15.27,15.27,0,0,1,4,206.18c-3.72-4.74-3-9.75-3-15.34,0-2.94,0-5.88,0-8.81,0-7.83-.6-15.88,3.45-23,5.27-9.27,14.22-14.14,23.73-17.79,6.58-2.52,13.51-4.14,20.28-6.17.34.43.84.81,1,1.3,1.06,3.39,1.9,6.85,3.08,10.19,1.9,5.35,4,10.62,6,15.93a143,143,0,0,0,9.47,19.39c1.81,3.2,3.66,6.36,5.5,9.54.41.72,4.62,8.8,4.73,8.78l.75-.16c.9-10.25,2.4-20.43,3.51-30.66l.12-1.07c.94-4.14,2.15-8.29-.33-12.35l2.33-4.57.78-1.4.63-1.2,1.18-1.63L91.78,155l0,.18.18,0,.32.8c-.51,1.88-1.6,3.82-1.42,5.63,1,10.5,2.37,21,3.61,31.45.23,2,.48,4,.8,6.54a18.21,18.21,0,0,0,2.05-2.45c5.62-10.53,11.34-21,16.74-31.63,4.67-9.21,7.7-19.06,10.28-29l.17-.87.92-.47,1,.13c3.25.9,6.5,1.77,9.75,2.69,9.32,2.63,18.13,6.33,25.75,12.45a29.92,29.92,0,0,1,10.13,14.63c1.33,4.56.94,9.17.91,13.89l-.12,15.69c0,3.41,0,7.23-1.88,10.23s-4.8,4.74-7.83,6A7.9,7.9,0,0,1,162,211.37Z" transform="translate(-0.98 -0.98)"/><path class="cls-3" d="M124.39,136.49c-2.58,10-5.61,19.83-10.28,29-5.4,10.64-11.12,21.1-16.74,31.63a18.21,18.21,0,0,1-2.05,2.45c-.32-2.58-.57-4.56-.8-6.54-1.24-10.48-2.58-20.95-3.61-31.45-.18-1.81.91-3.75,1.42-5.63.7,1.37,1.44,2.72,2.1,4.11,1.41,3,2,3.12,4.38.84,5.76-5.59,11.5-11.2,17.28-16.76C118.81,141.57,121.62,139.05,124.39,136.49Z" transform="translate(-0.98 -0.98)"/><path class="cls-4" d="M124.39,136.49c-2.77,2.56-5.58,5.08-8.3,7.69-5.78,5.56-11.52,11.17-17.28,16.76-2.34,2.28-3,2.15-4.38-.84-.66-1.39-1.4-2.74-2.1-4.11l-.32-.8a.28.28,0,0,0-.23-.16l-4.51-7.86-1.18,1.63c.13-.88.25-1.77.38-2.66a21.61,21.61,0,0,0,3.42-1.2C98.78,140,107.63,135,116.5,130l8.06,5.63C124.5,135.91,124.45,136.2,124.39,136.49Z" transform="translate(-0.98 -0.98)"/><path class="cls-5" d="M82.68,168.32a18.74,18.74,0,0,0-2.26-3.6c-1.15-1.16-1.6-2.23-.83-3.69.9-1.69,1.84-3.37,2.76-5.06C84.83,160,83.62,164.18,82.68,168.32Z" transform="translate(-0.98 -0.98)"/><path class="cls-4" d="M81,181.51l.62-4.39Z" transform="translate(-0.98 -0.98)"/><path class="cls-4" d="M79.53,193.51l.6-3.89Z" transform="translate(-0.98 -0.98)"/><path class="cls-4" d="M80.36,187.45l.52-3.45Z" transform="translate(-0.98 -0.98)"/><path class="cls-4" d="M81.89,175l.51-3.46Z" transform="translate(-0.98 -0.98)"/><path class="cls-4" d="M58.78,162.89c.32.66.63,1.33.95,2Z" transform="translate(-0.98 -0.98)"/><path class="cls-4" d="M60.12,166l1.35,2.56Z" transform="translate(-0.98 -0.98)"/><path class="cls-4" d="M75.05,194l1.35,2.31Z" transform="translate(-0.98 -0.98)"/><path class="cls-4" d="M69.11,183.5l1.32,2.19Z" transform="translate(-0.98 -0.98)"/><path class="cls-4" d="M66.09,178l1.34,2.18Z" transform="translate(-0.98 -0.98)"/><path class="cls-6" d="M172.1,165c.22.6.43,1.19.65,1.78Z" transform="translate(-0.98 -0.98)"/><path class="cls-4" d="M63.65,173.5l.8,1.14Z" transform="translate(-0.98 -0.98)"/><path class="cls-4" d="M62.17,170.5l.8,1.06Z" transform="translate(-0.98 -0.98)"/><path class="cls-4" d="M68.16,182l.81,1.06Z" transform="translate(-0.98 -0.98)"/><path class="cls-4" d="M84.68,151.4l.78-1.4Z" transform="translate(-0.98 -0.98)"/><path class="cls-4" d="M70.56,186l.8,1.38Z" transform="translate(-0.98 -0.98)"/><path class="cls-4" d="M125.48,135.15l1,.13Z" transform="translate(-0.98 -0.98)"/><path class="cls-6" d="M172.71,201.24l-.58,1.31Z" transform="translate(-0.98 -0.98)"/><path class="cls-5" d="M82.5,170l.06-.61Z" transform="translate(-0.98 -0.98)"/><path class="cls-4" d="M63.23,172.53l.27.44Z" transform="translate(-0.98 -0.98)"/><path class="cls-4" d="M64.73,175.53,65,176Z" transform="translate(-0.98 -0.98)"/><path class="cls-4" d="M61.72,169.53a.65.65,0,0,1,.3.39Z" transform="translate(-0.98 -0.98)"/><path class="cls-3" d="M91.78,155a.28.28,0,0,1,.23.16l-.18,0Z" transform="translate(-0.98 -0.98)"/><path class="cls-4" d="M71.74,188.05l.25.47Z" transform="translate(-0.98 -0.98)"/><path class="cls-7" d="M59.13,111.53A82,82,0,0,1,47.54,93.21c-3.71-8.53-6-17.35-5.64-26.74,1-3.38,2.43-6.7,3-10.15.84-5.32,1.18-10.71,1.55-16.09.36-5.23,2.9-9.68,7.4-10.7a22.67,22.67,0,0,1,9.31.19c7.95,1.68,15.72,4.2,23.91,4.55q0,46.08,0,92.15c-7.34,0-13.59-2.89-19.22-7.26C64.79,116.8,62,114.08,59.13,111.53Z" transform="translate(-0.98 -0.98)"/><path class="cls-8" d="M87.05,34.28c-8.2-.36-16-2.88-23.92-4.56a22.67,22.67,0,0,0-9.31-.19c-4.5,1-7,5.47-7.4,10.7-.37,5.38-.71,10.77-1.55,16.09-.54,3.45-1.95,6.77-3,10.15-.19-2-.53-4.1-.54-6.15-.06-8.14-.25-16.29.07-24.42C41.7,29,42.5,22,46.24,15.82c4-6.73,10.27-10.44,17.59-12.22a93.28,93.28,0,0,1,9.54-1.67A68.41,68.41,0,0,1,82.83,1C86,1,89.26.94,92.47,1a80.57,80.57,0,0,1,9.69.88,59.49,59.49,0,0,1,11.56,2.75c10.86,3.91,16.63,11.81,18.21,22.9,1.82,12.81,1,25.69.53,38.55-.3-.27-.78-.48-.86-.8-1.49-5.77-3.49-11.41-3.31-17.53a50.92,50.92,0,0,0-.89-9.92c-1.17-6.85-7.6-10.32-15.18-8.5-6.22,1.5-12.47,2.89-18.7,4.33L92,34Z" transform="translate(-0.98 -0.98)"/><path class="cls-9" d="M59.13,111.53c2.89,2.55,5.66,5.27,8.7,7.63,5.63,4.37,11.88,7.31,19.22,7.26a28.44,28.44,0,0,0,3.46-.21c9.64-1.73,17.19-6.95,23.52-14.18l.54-.37h.14l.12-.09L115,114a27,27,0,0,1-2.55,4.72,69.61,69.61,0,0,1-7.94,8.76c-5,4.31-10.63,7.44-17.5,7.54-2.86-.64-5.94-.8-8.54-2C69.81,129,63.6,122.3,59,114Z" transform="translate(-0.98 -0.98)"/><path class="cls-10" d="M59,114c4.58,8.29,10.79,15,19.46,19,2.6,1.2,5.68,1.36,8.54,2,0,2.56.06,5.13,0,7.69a14.73,14.73,0,0,1-.78,3l-3.87-1.8L81,143.05l-1.34-.6-1.14-.84-6.7-3.7c-.76-.45-1.53-.89-2.3-1.33l-9.66-5.79c-.76-.45-1.55-.86-2.33-1.29Q58.28,121.75,59,114Z" transform="translate(-0.98 -0.98)"/><path class="cls-11" d="M114.83,111.58l-.12.09h-.14L114,112c-6.33,7.23-13.88,12.45-23.52,14.18a28.44,28.44,0,0,1-3.46.21q0-46.08,0-92.15L92,34l1.51-.3c6.23-1.44,12.48-2.83,18.7-4.33,7.58-1.82,14,1.65,15.18,8.5a50.92,50.92,0,0,1,.89,9.92c-.18,6.12,1.82,11.76,3.31,17.53.08.32.56.53.86.8-.41,4.31-.46,8.69-1.3,12.91a69.1,69.1,0,0,1-11.35,26.11C118.26,107.35,116.5,109.43,114.83,111.58Z" transform="translate(-0.98 -0.98)"/><path class="cls-12" d="M86.19,145.7a14.73,14.73,0,0,0,.78-3c.11-2.56,0-5.13,0-7.69,6.87-.1,12.53-3.23,17.5-7.54a69.61,69.61,0,0,0,7.94-8.76A27,27,0,0,0,115,114q.75,8,1.49,16c-8.87,5-17.72,10-26.61,14.95a21.61,21.61,0,0,1-3.42,1.2Z" transform="translate(-0.98 -0.98)"/><path class="cls-4" d="M69.5,136.58c.77.44,1.54.88,2.3,1.33C71,137.46,70.27,137,69.5,136.58Z" transform="translate(-0.98 -0.98)"/><path class="cls-4" d="M81,143.05l1.34.85Z" transform="translate(-0.98 -0.98)"/><path class="cls-4" d="M78.5,141.61l1.14.84Z" transform="translate(-0.98 -0.98)"/><path class="cls-7" d="M93.52,33.69,92,34Z" transform="translate(-0.98 -0.98)"/><path class="cls-12" d="M114,112l.54-.37Z" transform="translate(-0.98 -0.98)"/></g></svg>