<svg id="Layer_1" data-name="Layer 1" xmlns="http://www.w3.org/2000/svg" viewBox="0 0 150 71.4"><defs><style>.cls-1{fill:#fefefe;}.cls-2{fill:#242020;}.cls-3{fill:#fcfcfc;}.cls-4{fill:#fed431;}.cls-5{fill:#292526;}.cls-6{fill:#c8b15e;}</style></defs><path class="cls-1" d="M146,51.51q0,7.77,0,15.56c0,.28-.06.33-.34.33H4.34c-.28,0-.34-.05-.34-.33Q4,35.69,4,4.33c0-.28.06-.34.34-.34H145.66c.28,0,.34.06.34.34q0,18.69,0,37.38c-.13-.15-.31-.13-.49-.13h-7.57l-.49,0-.06-.27a8.36,8.36,0,0,0-1.3-2.45l.94-.41A10.21,10.21,0,0,0,142,24.55a10.91,10.91,0,0,0-4.68-4.49A48.38,48.38,0,0,0,132.55,18a12.91,12.91,0,0,1-3.1-1.68,2.92,2.92,0,0,1-1.19-2.73,3.14,3.14,0,0,1,2.33-2.66,9.76,9.76,0,0,1,4.8-.21A14.31,14.31,0,0,1,140,12.17a2,2,0,0,0,.09-.25q.72-2.65,1.42-5.32c.2-.74.2-.75-.54-1a19.9,19.9,0,0,0-11.26-1.08,11.54,11.54,0,0,0-6.55,3.42,9.48,9.48,0,0,0,.59,13.52,20,20,0,0,0,6.23,3.5,14.76,14.76,0,0,1,3.83,1.86,3.45,3.45,0,0,1,1.34,4.13,3.72,3.72,0,0,1-2.81,2.24,12.35,12.35,0,0,1-5.31,0,12.92,12.92,0,0,1-2.09-.55l3.86-3h-.55c-2.41,0-4.83,0-7.25,0a.5.5,0,0,1-.58-.4c-.46-1.42-.94-2.83-1.41-4.25-.33-1-.67-1.94-1-3l-1.85,4.86a8.77,8.77,0,0,0-6.42-6.21,14.08,14.08,0,0,0,1.65-.81,7.72,7.72,0,0,0,.72-13,13.48,13.48,0,0,0-6.45-2.25,52.28,52.28,0,0,0-7.19-.12c-2.1.09-4.19.27-6.27.56-.36.06-.46.18-.46.54q0,16.61,0,33.22c0,.15-.07.33.09.46a2.18,2.18,0,0,1-.61.25c-1.82.63-3.63,1.29-5.42,2l-.32.08H12.82c0-.12.09-.25.15-.37a21.83,21.83,0,0,1,1.6-2.62,25.14,25.14,0,0,0,8.35,1.11,35.46,35.46,0,0,0,10.16-1.8.47.47,0,0,0,.4-.54c0-4.61,0-9.22,0-13.83,0-.16,0-.32,0-.49.77-.53,1.6-1,2.33-1.57l.11,0,0,0-.08.05a1.24,1.24,0,0,0-.5.17l-1.83.81c0-.86,0-1.72,0-2.59,0-.26,0-.37-.35-.37H21.39c-.27,0-.33.08-.33.34,0,1.82,0,3.65,0,5.47,0,.31.1.35.37.35h3.83c1,0,1,0,.91,1-.65.43-1.31.84-2,1.28-2.13,1.42-4.17,3-6.19,4.54a9,9,0,0,1-4.86-4.89,14.1,14.1,0,0,1-.42-10,9.09,9.09,0,0,1,5.67-6,13.67,13.67,0,0,1,5.45-.81,16.85,16.85,0,0,1,6.68,1.37c.23.11.29.07.35-.17.42-1.75.87-3.48,1.3-5.22.22-.89.22-.89-.66-1.2a22.89,22.89,0,0,0-5.91-1.19,24.21,24.21,0,0,0-9.79,1A16.17,16.17,0,0,0,5.46,15.08,20.37,20.37,0,0,0,4.21,24,18.79,18.79,0,0,0,6.15,31.3a14.13,14.13,0,0,0,6.56,6.51l-.5.6A22.06,22.06,0,0,0,9.9,41.55c-1.21.08-2.43,0-3.65,0-.68,0-.67,0-.68.69,0,.29.08.35.36.35,1.09,0,2.19,0,3.28,0-.19.38-.37.77-.56,1.15l-.1.06a2.31,2.31,0,0,0-2,1.75,2.53,2.53,0,0,0,.78,2.75,7.74,7.74,0,0,0,0,2.15H6.26c-.7,0-.69,0-.69.71,0,.26.07.32.32.32.57,0,1.14,0,1.72,0a9.25,9.25,0,0,0,.32.88,10.63,10.63,0,0,0,5.38,5.15A20.79,20.79,0,0,0,19,59.3a37.87,37.87,0,0,0,5.92.53c.64,0,1.26-.1,1.89-.11s1.26,0,1.88-.08c1.42-.12,2.84-.3,4.26-.48a47.93,47.93,0,0,0,5.55-1c3.6-.94,7.15-2.06,10.7-3.18q2.57-.8,5.07-1.71c1.44-.51,2.87-1.06,4.26-1.7l.49,0h69.76l.45,0s0,0,0,.07-.1.19-.17.27a30.3,30.3,0,0,1-6.85,6.18c-3.66,2.44-7.45,4.69-11.33,6.77-1.19.63-2.39,1.23-3.61,1.79a1.58,1.58,0,0,0,.43-.1c1.93-.69,3.85-1.44,5.73-2.27A65.11,65.11,0,0,0,126.26,57a45.13,45.13,0,0,0,6.4-5.46l.5,0H146ZM65.39,22q0,8.48,0,17c0,.25,0,.42.35.41q10.24,0,20.48,0c.28,0,.36-.07.36-.36,0-1.88,0-3.76,0-5.64,0-.36-.08-.45-.44-.45-4.27,0-8.54,0-12.82,0-.37,0-.44-.11-.43-.45,0-2.46,0-4.91,0-7.37,0-.35.1-.42.43-.42,3.79,0,7.58,0,11.38,0,.33,0,.43-.06.43-.42,0-1.81,0-3.62,0-5.43,0-.64.09-.55-.54-.56H73.29c-.32,0-.42-.07-.41-.4,0-2.11,0-4.23,0-6.34,0-.39.1-.47.47-.46H85.42c.32,0,.44,0,.44-.41q0-2.82,0-5.64c0-.36-.11-.41-.44-.41q-9.78,0-19.57,0c-.41,0-.47.12-.47.5Q65.4,13.55,65.39,22Zm-26,0c0,5.63,0,11.26,0,16.88,0,.38.07.51.48.51,2.2,0,4.4,0,6.6,0,.37,0,.47-.08.47-.46q0-6.52,0-13.05c0-.34.07-.43.42-.43h11c.35,0,.49-.05.48-.45,0-1.82,0-3.65,0-5.47,0-.38-.07-.51-.48-.5-3.68,0-7.36,0-11,0-.31,0-.42-.05-.42-.39q0-3.54,0-7.08c0-.38.11-.45.46-.44H59.22c.39,0,.47-.11.46-.47,0-1.86,0-3.71,0-5.56,0-.34-.08-.43-.42-.43q-9.72,0-19.45,0c-.37,0-.45.1-.45.46C39.38,10.71,39.37,16.34,39.37,22Zm67.71,44.73v0h0v0Z"/><path class="cls-2" d="M12.82,41.57h72.6a.4.4,0,0,0,.34,0h.41a.35.35,0,0,0,.33,0H111c.38,0,.56-.09.67-.49.4-1.5.85-3,1.29-4.49l.54-1.76c0-.09.08-.21,0-.27-.34-.22-.59-.61-1.1-.52-.87.16-1.76.27-2.63.43a118.38,118.38,0,0,0-15.31,3.89c-.89.28-1.77.63-2.69.85-.16-.13-.09-.31-.09-.46q0-16.62,0-33.22c0-.36.1-.48.46-.54,2.08-.29,4.17-.47,6.27-.56a52.28,52.28,0,0,1,7.19.12A13.48,13.48,0,0,1,112,6.82a7.72,7.72,0,0,1-.72,13,14.08,14.08,0,0,1-1.65.81,8.77,8.77,0,0,1,6.42,6.21L117.93,22c.36,1.06.7,2,1,3,.47,1.42,1,2.83,1.41,4.25a.5.5,0,0,0,.58.4c2.42,0,4.84,0,7.25,0h.55l-3.86,3a12.92,12.92,0,0,0,2.09.55,12.35,12.35,0,0,0,5.31,0,3.72,3.72,0,0,0,2.81-2.24,3.45,3.45,0,0,0-1.34-4.13,14.76,14.76,0,0,0-3.83-1.86,20,20,0,0,1-6.23-3.5,9.48,9.48,0,0,1-.59-13.52,11.54,11.54,0,0,1,6.55-3.42,19.9,19.9,0,0,1,11.26,1.08c.74.3.74.31.54,1q-.71,2.67-1.42,5.32a2,2,0,0,1-.09.25,14.31,14.31,0,0,0-4.56-1.46,9.76,9.76,0,0,0-4.8.21,3.14,3.14,0,0,0-2.33,2.66,2.92,2.92,0,0,0,1.19,2.73,12.91,12.91,0,0,0,3.1,1.68,48.38,48.38,0,0,1,4.73,2.07A10.91,10.91,0,0,1,142,24.55,10.21,10.21,0,0,1,137,38.42l-.94.41a12.12,12.12,0,0,0-3.61-2.74,26.6,26.6,0,0,0-7.76-2.3,2.15,2.15,0,0,0-2.16.53.48.48,0,0,0-.16.56c.26.83.52,1.67.75,2.51a.6.6,0,0,0,.48.47,18.36,18.36,0,0,1,4.59,1.94,23.3,23.3,0,0,1-4.56-.74l.68,2.29a.29.29,0,0,0,.31.24l6,0,6.39,0a2.2,2.2,0,0,0,.36,0l.49,0h7.57c.18,0,.36,0,.49.13v.9l-9.13,0c-.2.14-.38,0-.57,0l-4.58,0-.5,0H12.82l-.5,0H9.21c-1.09,0-2.19,0-3.28,0-.28,0-.37-.06-.36-.35,0-.69,0-.68.68-.69,1.22,0,2.44.05,3.65,0A20.33,20.33,0,0,0,12.82,41.57Zm93.83-12.12h1.49c.13,0,.27,0,.28-.18a4.35,4.35,0,0,0-1.1-3.42,5.86,5.86,0,0,0-3.13-1.6A24,24,0,0,0,99.47,24c-.28,0-.36.07-.36.36q0,3.27,0,6.54v2.55c0,.17,0,.33.22.35a16.67,16.67,0,0,0,5.32-.26A4.92,4.92,0,0,0,108,31c.15-.3.14-.5-.17-.69S107.09,29.78,106.65,29.45ZM99.12,14.33c0,1.25,0,2.49,0,3.74,0,.2,0,.33.28.33a27,27,0,0,0,4-.16,5.33,5.33,0,0,0,3.36-1.64,3.81,3.81,0,0,0-1.92-6.15,14.19,14.19,0,0,0-5.51-.17c-.23,0-.23.17-.23.35C99.12,11.86,99.12,13.1,99.12,14.33Zm23.17,24.76c.07-.12,0-.19,0-.26-.45-1.52-.9-3-1.36-4.57a.44.44,0,0,1,.17-.58c.91-.66,1.8-1.36,2.69-2l1.25-1c-1.75,0-3.38,0-5,0a.43.43,0,0,1-.49-.35c-.36-1.14-.75-2.26-1.14-3.39-.13-.4-.27-.79-.44-1.26l-1.74,4.62c-.08.21-.16.33-.43.32l-3.54,0h-1.64l.31.24,3.89,2.91a.45.45,0,0,1,.21.61c-.17.48-.31,1-.45,1.49-.31,1-.62,2.09-1,3.22l.48-.32,3-2.07c.3-.22.6-.57.92-.58s.63.38.94.6Zm-9.77,2.47h10.72c0-.05,0-.07,0-.09q-2.52-1.78-5-3.59a.3.3,0,0,0-.42,0c-.52.38-1,.74-1.58,1.11Z"/><path class="cls-2" d="M129.26,51.54l-.45,0H59.05l-.49,0h-1.4l-.41,0H14.47l-.41,0H7.61c-.58,0-1.15,0-1.72,0-.25,0-.33-.06-.32-.32,0-.71,0-.7.69-.71H13l.45,0H145.49c.17,0,.35,0,.5.09v.91H133.16l-.5,0h-3.4Z"/><path class="cls-3" d="M146,50.6c-.15-.13-.33-.09-.5-.09H133.63A17.87,17.87,0,0,0,135,48.72c.35-.4.57-.88.88-1.31,0,.19,0,.39,0,.58,0,.82,0,.81.83.79.24,0,.31-.08.3-.3,0-.64,0-1.27,0-1.9a.53.53,0,0,1,.53-.57c.32,0,.46.23.48.52,0,.49,0,1,0,1.48,0,.78,0,.77.77.77.29,0,.34-.1.34-.35,0-.59,0-1.18,0-1.77,0-.34.15-.61.51-.65s.51.28.53.6,0,.93,0,1.39c0,.81,0,.79.8.78.26,0,.29-.09.29-.31,0-.66,0-1.32,0-2a1.28,1.28,0,0,0-.7-1.29,1.25,1.25,0,0,0-1.5.32c-.11.11-.15.13-.26,0a1.16,1.16,0,0,0-1.34-.35,2.44,2.44,0,0,0-.65.43v-.38a7.64,7.64,0,0,0,.48-1.82c.11-.61.1-.61-.46-.76l9.13,0Zm-2.84-1.75.42-.05c.7-.09,1.12-.45,1.17-1s-.24-1-.9-1.22c-.11,0-.23-.07-.34-.12s-.34-.14-.3-.35.22-.22.4-.22a1.83,1.83,0,0,1,.52.09c.11,0,.32.21.31-.09s.41-.51-.06-.68a2.19,2.19,0,0,0-1.45,0,1.11,1.11,0,0,0-.81,1,1,1,0,0,0,.66,1c.22.11.46.18.68.28a.28.28,0,0,1,.18.3.27.27,0,0,1-.25.23,1.21,1.21,0,0,1-.8-.1c-.3-.15-.41-.09-.47.24-.09.48-.09.51.4.61C142.72,48.82,142.94,48.82,143.15,48.85Z"/><path class="cls-2" d="M33.49,23c0,.17,0,.33,0,.49,0,4.61,0,9.22,0,13.83a.47.47,0,0,1-.4.54,35.46,35.46,0,0,1-10.16,1.8,25.14,25.14,0,0,1-8.35-1.11l-1.86-.77A14.13,14.13,0,0,1,6.15,31.3,18.79,18.79,0,0,1,4.21,24a20.37,20.37,0,0,1,1.25-8.88A16.17,16.17,0,0,1,15.83,5.41a24.21,24.21,0,0,1,9.79-1,22.89,22.89,0,0,1,5.91,1.19c.88.31.88.31.66,1.2-.43,1.74-.88,3.47-1.3,5.22-.06.24-.12.28-.35.17a16.85,16.85,0,0,0-6.68-1.37,13.67,13.67,0,0,0-5.45.81,9.09,9.09,0,0,0-5.67,6,14.1,14.1,0,0,0,.42,10A9,9,0,0,0,18,32.45a6.15,6.15,0,0,0,1.62.53,8.39,8.39,0,0,0,2.39.36A13.41,13.41,0,0,0,25.87,33c.17,0,.33-.07.32-.33,0-1.57,0-3.15,0-4.73V26.63c.07-1,.07-1-.91-1H21.43c-.27,0-.37,0-.37-.35,0-1.82,0-3.65,0-5.47,0-.26.06-.34.33-.34H33.12c.31,0,.36.11.35.37,0,.87,0,1.73,0,2.59A1.06,1.06,0,0,0,33.49,23Z"/><path class="cls-2" d="M65.39,22q0-8.41,0-16.84c0-.38.06-.5.47-.5q9.8,0,19.57,0c.33,0,.44.05.44.41q0,2.82,0,5.64c0,.36-.12.41-.44.41H73.35c-.37,0-.48.07-.47.46,0,2.11,0,4.23,0,6.34,0,.33.09.4.41.4H84.57c.63,0,.54-.08.54.56,0,1.81,0,3.62,0,5.43,0,.36-.1.42-.43.42-3.8,0-7.59,0-11.38,0-.33,0-.44.07-.43.42,0,2.46,0,4.91,0,7.37,0,.34.06.45.43.45,4.28,0,8.55,0,12.82,0,.36,0,.45.09.44.45,0,1.88,0,3.76,0,5.64,0,.29-.08.36-.36.36q-10.24,0-20.48,0c-.36,0-.35-.16-.35-.41Q65.4,30.46,65.39,22Z"/><path class="cls-2" d="M39.37,22c0-5.62,0-11.25,0-16.87,0-.36.08-.46.45-.46q9.72,0,19.45,0c.34,0,.43.09.42.43,0,1.85,0,3.7,0,5.56,0,.36-.07.48-.46.47H47.35c-.35,0-.46.06-.46.44q0,3.54,0,7.08c0,.34.11.39.42.39,3.68,0,7.36,0,11,0,.41,0,.48.12.48.5,0,1.82,0,3.65,0,5.47,0,.4-.13.45-.48.45h-11c-.35,0-.42.09-.42.43q0,6.53,0,13.05c0,.38-.1.47-.47.46-2.2,0-4.4,0-6.6,0-.41,0-.48-.13-.48-.51C39.38,33.22,39.37,27.59,39.37,22Z"/><path class="cls-4" d="M7.61,51.54H14l.12.13.1.12a17.07,17.07,0,0,0,5.55,3.14,26.51,26.51,0,0,0,8.71,1.68,64.5,64.5,0,0,0,6.81-.15c.82-.07,1.64-.09,2.45-.18,1.9-.22,3.8-.48,5.68-.83a83,83,0,0,0,9.69-2.38,37,37,0,0,0,4.1-1.47l.24-.05h1.16c-1.39.64-2.82,1.19-4.26,1.7q-2.5.91-5.07,1.71c-3.55,1.12-7.1,2.24-10.7,3.18a47.93,47.93,0,0,1-5.55,1c-1.42.18-2.84.36-4.26.48-.62,0-1.26.08-1.88.08s-1.25.12-1.89.11A37.87,37.87,0,0,1,19,59.3a20.79,20.79,0,0,1-5.72-1.73,10.63,10.63,0,0,1-5.38-5.15A9.25,9.25,0,0,1,7.61,51.54Z"/><path class="cls-4" d="M137.44,41.55a2.2,2.2,0,0,1-.36,0l-6.39,0a10.37,10.37,0,0,0-2.48-1.77,18.36,18.36,0,0,0-4.59-1.94.6.6,0,0,1-.48-.47c-.23-.84-.49-1.68-.75-2.51a.48.48,0,0,1,.16-.56,2.15,2.15,0,0,1,2.16-.53,26.6,26.6,0,0,1,7.76,2.3,12.12,12.12,0,0,1,3.61,2.74,8.36,8.36,0,0,1,1.3,2.45Z"/><path class="cls-4" d="M86.17,41.57h-.41l0-.08c1.79-.72,3.6-1.38,5.42-2a2.18,2.18,0,0,0,.61-.25c.92-.22,1.8-.57,2.69-.85a118.38,118.38,0,0,1,15.31-3.89c.87-.16,1.76-.27,2.63-.43.51-.09.76.3,1.1.52.09.06,0,.18,0,.27L113,36.61h-.18a39.28,39.28,0,0,0-4.6.26,92.63,92.63,0,0,0-10.46,1.7c-1.23.27-2.47.5-3.67.89l-.48.08c-2.38.58-4.73,1.27-7.08,1.94Z"/><path class="cls-4" d="M129.36,51.54h3.3a45.13,45.13,0,0,1-6.4,5.46,65.11,65.11,0,0,1-12.79,7.25c-1.88.83-3.8,1.58-5.73,2.27a1.58,1.58,0,0,1-.43.1c1.22-.56,2.42-1.16,3.61-1.79,3.88-2.08,7.67-4.33,11.33-6.77a30.3,30.3,0,0,0,6.85-6.18c.07-.08.17-.15.17-.27Z"/><path class="cls-4" d="M13,50.48H7.33a7.74,7.74,0,0,1,0-2.15,4.08,4.08,0,0,0,3.26.27c.18,0,.24-.13.24-.32,0-.7,0-1.4,0-2.09,0-.22-.08-.29-.29-.28-.43,0-.86,0-1.28,0s-.31.24-.31.46-.11.52.3.44.5.12.46.47a2.29,2.29,0,0,0,0,.37c0,.16-.08.21-.22.23a1.48,1.48,0,0,1-1.82-1.53l.31-1H8L8,45.2a1.93,1.93,0,0,1,2.06-.36c.28.07.37,0,.41-.24a1.4,1.4,0,0,1,.06-.28c.11-.25,0-.36-.24-.43a6.24,6.24,0,0,0-1.67-.11c.19-.38.37-.77.56-1.15h3.11c-.12.36-.27.71-.36,1.08a7,7,0,0,0-.37,2.53h0c-.14.06,0,.18-.08.28a2.48,2.48,0,0,0,.29,1.62A6.18,6.18,0,0,0,13,50.48Z"/><path class="cls-5" d="M7.65,46.35a1.48,1.48,0,0,0,1.82,1.53c.14,0,.23-.07.22-.23a2.29,2.29,0,0,1,0-.37c0-.35-.06-.54-.46-.47s-.3-.23-.3-.44-.1-.49.31-.46.85,0,1.28,0c.21,0,.29.06.29.28,0,.69,0,1.39,0,2.09,0,.19-.06.28-.24.32a4.08,4.08,0,0,1-3.26-.27,2.53,2.53,0,0,1-.78-2.75,2.31,2.31,0,0,1,2-1.75l.1-.06a6.24,6.24,0,0,1,1.67.11c.26.07.35.18.24.43a1.4,1.4,0,0,0-.06.28c0,.25-.13.31-.41.24A1.93,1.93,0,0,0,8,45.2s-.1.06-.07.13H8A1.15,1.15,0,0,0,7.65,46.35Z"/><path class="cls-4" d="M26.17,26.63v1.31c-1.87,1.26-3.72,2.55-5.47,4A3.6,3.6,0,0,0,19.64,33,6.15,6.15,0,0,1,18,32.45c2-1.58,4.06-3.12,6.19-4.54C24.86,27.47,25.52,27.06,26.17,26.63Z"/><path class="cls-6" d="M12.71,37.81l1.86.77A21.83,21.83,0,0,0,13,41.2c-.06.12-.1.25-.15.37a20.33,20.33,0,0,1-2.92,0,22.06,22.06,0,0,1,2.31-3.14Z"/><path class="cls-6" d="M33.49,23a1.06,1.06,0,0,1,0-.61l1.83-.81a1.24,1.24,0,0,1,.5-.17v0C35.09,22.05,34.26,22.5,33.49,23Z"/><path class="cls-6" d="M85.74,41.49l0,.08a.4.4,0,0,1-.34,0Z"/><path class="cls-6" d="M35.81,21.44l.08-.05,0,0-.11,0Z"/><path class="cls-4" d="M107.08,66.69h0v0h0Z"/><path class="cls-3" d="M129.36,51.54l-.09.07s0,0,0-.07Z"/><path class="cls-3" d="M11.59,46.24A7,7,0,0,1,12,43.71c.09-.37.24-.72.36-1.08l.5,0H131.21l.5,0a7.86,7.86,0,0,1,.35,3.23,3,3,0,0,0-.32,1.4c-.19.3-.2.67-.41,1,0-.21,0-.37-.31-.32s-.46-.13-.48-.42,0-.6,0-.9c0-.55,0-.58.52-.56s.28-.23.28-.42.11-.49-.28-.42-.6-.13-.53-.55c0-.06,0-.11,0-.17,0-.24-.05-.33-.3-.24a.94.94,0,0,1-.28.06c-.38,0-.6.19-.51.62,0,.19,0,.31-.26.28s-.24.22-.23.38-.18.49.24.45c.25,0,.25.11.25.3,0,.41,0,.82,0,1.23,0,.94.36,1.3,1.28,1.3l.28,0a6.84,6.84,0,0,1-.85,1.63H13.41l-.45,0a6.18,6.18,0,0,1-1.15-2.34,2.58,2.58,0,0,0,2.77.53c.3-.16,0-.41,0-.62s-.15-.19-.29-.15a2.34,2.34,0,0,1-1,.06.73.73,0,0,1-.75-.64h2c.14,0,.29,0,.31-.2.13-1.45-.8-2.25-2-2A2,2,0,0,0,11.59,46.24Zm79.34-.14c.51-.39.62-.52.68-.82a1.21,1.21,0,0,0-1.13-1.43,8,8,0,0,0-2.13,0c-.18,0-.22.1-.22.26V48.5c0,.16,0,.27.21.28a7.55,7.55,0,0,0,2.37-.12,1.37,1.37,0,0,0,1.09-1.23A1.29,1.29,0,0,0,90.93,46.1Zm-42.09-.71a1.57,1.57,0,0,0-2.42.76,2.27,2.27,0,0,0,.13,2,1.44,1.44,0,0,0,1.84.63,3,3,0,0,0,.57-.41c-.05.43.15.51.46.46a.88.88,0,0,1,.28,0c.25,0,.3-.08.29-.3,0-1.37,0-2.75,0-4.12,0-.82,0-.8-.82-.81-.3,0-.34.11-.33.36C48.85,44.39,48.84,44.88,48.84,45.39Zm22.24.25c.12-.53-.17-.49-.45-.47h-.17c-.31,0-.38.08-.37.38,0,1.27,0,2.55,0,3.82,0,.87,0,.86.86.85.26,0,.29-.1.29-.31,0-.45,0-.89,0-1.36a1.57,1.57,0,0,0,2.36-.62,2.31,2.31,0,0,0,0-1.91,1.45,1.45,0,0,0-2.32-.56Zm-18.62.68c0,.73,0,1.45,0,2.18,0,.21,0,.29.27.28h2.63c.17,0,.24,0,.25-.23.06-.74.07-.74-.68-.74H54.4c-.82,0-.82,0-.8-.81a.27.27,0,0,0,0-.09c0-.18.08-.22.25-.22.38,0,.77,0,1.15,0s.42-.1.43-.43-.07-.59-.51-.52a4.14,4.14,0,0,1-.61,0c-.72,0-.71,0-.71-.71,0-.23,0-.31.29-.3s.69,0,1,0c.6,0,.59,0,.6-.61,0-.24-.05-.33-.31-.32-.81,0-1.62,0-2.43,0-.25,0-.33.05-.33.31C52.47,44.87,52.46,45.59,52.46,46.32Zm67.76-2.57H120A1.62,1.62,0,0,0,118.32,45c-.14.71.25,1.29,1.11,1.65.23.09.46.17.68.28a.5.5,0,0,1,.35.58c-.06.29-.29.38-.55.41a2.5,2.5,0,0,1-.94-.1c-.53-.15-.51-.14-.67.41-.08.29,0,.41.28.49a3.7,3.7,0,0,0,1.87.05,1.46,1.46,0,0,0,1.19-1.3,1.4,1.4,0,0,0-.92-1.46c-.29-.14-.6-.25-.9-.39s-.41-.25-.35-.53.29-.34.53-.38a1.8,1.8,0,0,1,.92.13c.23.1.3,0,.36-.19.2-.69.17-.76-.57-.85A4,4,0,0,0,120.22,43.75Zm3.65,3.7s-.05,0-.06-.06c-.14-.46-.27-.92-.41-1.37-.26-.86-.26-.85-1.17-.86-.35,0-.34.1-.22.36.38.94.74,1.88,1.13,2.82A.52.52,0,0,1,123,49a.94.94,0,0,1-.44.3c-.33.08-.35.27-.24.54a1,1,0,0,1,.08.28c0,.26.15.29.36.22A2.08,2.08,0,0,0,124,49.4a26.46,26.46,0,0,0,1.69-4.23c-.36,0-.66,0-1,0s-.28.05-.33.26C124.23,46.1,124.05,46.77,123.87,47.45Zm-66.5-1.81c.05-.47-.17-.52-.47-.48a1.22,1.22,0,0,1-.33,0c-.19,0-.23.08-.23.25q0,1.56,0,3.12c0,.21.08.24.27.25.86,0,.86,0,.86-.8,0-.41,0-.82,0-1.23s.26-.75.6-.74.52.26.54.7c0,.14,0,.27,0,.41,0,.47,0,.93,0,1.4,0,.12,0,.26.17.26h.82a.14.14,0,0,0,.15-.15A15.39,15.39,0,0,0,59.71,46a1.21,1.21,0,0,0-1.49-.89A1.65,1.65,0,0,0,57.37,45.64ZM40.22,48.32c0,.47.21.49.51.46h.2c.25,0,.33-.05.32-.31,0-.82,0-1.65,0-2.47s0-.86-.87-.84c-.22,0-.27.07-.27.28,0,.58,0,1.15,0,1.73s-.23.75-.58.75-.53-.25-.56-.73c0-.11,0-.22,0-.33V45.42c0-.11,0-.26-.16-.25H38c-.17,0-.16.1-.16.22,0,.71,0,1.42,0,2.14A1.24,1.24,0,0,0,39,48.86,1.57,1.57,0,0,0,40.22,48.32Zm54.76,0c-.07.47.13.55.44.5h.2c.3,0,.37-.08.36-.36,0-.81,0-1.62,0-2.43s0-.85-.88-.83c-.21,0-.27.07-.27.28,0,.62,0,1.23,0,1.85a.56.56,0,0,1-.53.62c-.36,0-.51-.19-.56-.51a3.42,3.42,0,0,1,0-.45c0-.51,0-1,0-1.52,0-.19,0-.29-.24-.27a4.85,4.85,0,0,1-.66,0c-.14,0-.24,0-.23.2,0,.81-.06,1.62,0,2.42a1.2,1.2,0,0,0,1.53,1A1.79,1.79,0,0,0,95,48.28ZM43.15,45.59c0-.4-.16-.47-.46-.43a.71.71,0,0,1-.29,0c-.25,0-.29.09-.29.31,0,1,0,1.89,0,2.83,0,.42.12.51.51.49.63,0,.63,0,.64-.67s0-1,0-1.56a.55.55,0,0,1,.56-.55c.34,0,.51.22.54.55,0,.15,0,.3,0,.45,0,.5,0,1,0,1.48,0,.2,0,.31.27.29a4.85,4.85,0,0,1,.66,0c.14,0,.21,0,.2-.19a17.77,17.77,0,0,0,0-2.42,1.26,1.26,0,0,0-2-.88C43.42,45.37,43.31,45.47,43.15,45.59Zm-9,.72c0,.7,0,1.4,0,2.1,0,.27,0,.38.35.38.8,0,.8,0,.8-.8,0-.38-.13-.89.06-1.11s.75-.07,1.14-.08c.56,0,.54,0,.56-.53,0-.32-.07-.45-.4-.41a5.61,5.61,0,0,1-.58,0c-.8,0-.78,0-.79-.79,0-.24.05-.34.32-.32.43,0,.87,0,1.31,0,.22,0,.3-.06.28-.28a.92.92,0,0,1,0-.33c0-.25-.07-.33-.32-.32q-1.22,0-2.43,0c-.24,0-.3.07-.3.3C34.18,44.85,34.17,45.58,34.17,46.31Zm69-.7c.13-.49-.14-.46-.42-.44a1.43,1.43,0,0,1-.29,0c-.2,0-.28.05-.28.27,0,.85,0,1.7,0,2.55s0,.81.82.8c.25,0,.34-.06.33-.32,0-.57,0-1.15,0-1.73a.65.65,0,0,1,.57-.72c.33,0,.55.25.57.71s0,.82,0,1.24c0,.88,0,.88.88.82h0c.13,0,.21-.05.2-.19a16.06,16.06,0,0,0-.06-2.5,1.21,1.21,0,0,0-1.59-1A2.42,2.42,0,0,0,103.12,45.61Zm-86.55.06c.14-.5-.09-.53-.38-.51a1.82,1.82,0,0,1-.33,0c-.2,0-.27,0-.26.27,0,.85,0,1.7,0,2.55s0,.8.81.8c.29,0,.34-.1.33-.35,0-.58,0-1.15,0-1.73,0-.42.26-.71.59-.69s.52.32.53.66,0,.85,0,1.28c0,.88,0,.88.88.83h0c.16,0,.21-.06.21-.22,0-.78,0-1.56,0-2.34a1.22,1.22,0,0,0-1.63-1.08A2,2,0,0,0,16.57,45.67Zm10.31.45.26-.11a1.63,1.63,0,0,1,1-.09c.17,0,.33.14.32.32s-.21.12-.32.13a2.56,2.56,0,0,0-1.24.37A1.14,1.14,0,0,0,26.42,48a1,1,0,0,0,.91.83,1.55,1.55,0,0,0,1.31-.42c-.07.39.12.38.33.37h.45c.18,0,.24-.05.23-.23,0-.69,0-1.37,0-2.06a1.3,1.3,0,0,0-1.2-1.37,2.71,2.71,0,0,0-1.06,0C26.59,45.31,26.55,45.39,26.88,46.12ZM22,47.32h.94c.12,0,.2,0,.24-.15a1.92,1.92,0,0,0-.79-1.9A1.82,1.82,0,0,0,20,46a2,2,0,0,0,.55,2.62,2.82,2.82,0,0,0,2.24.09c.37-.11.05-.42.06-.63s-.16-.17-.3-.13a2.64,2.64,0,0,1-.93.06.84.84,0,0,1-.7-.37c-.09-.14-.12-.29.14-.28Zm42.28,0h2c.11,0,.25.06.28-.14a1.92,1.92,0,0,0-.74-1.88A1.79,1.79,0,0,0,63.4,46a1.89,1.89,0,0,0,.72,2.62,3,3,0,0,0,2.09,0c.39-.12,0-.42.07-.63s-.14-.19-.29-.15A2.46,2.46,0,0,1,65,48,.75.75,0,0,1,64.26,47.32Zm44.29,0h.9a.21.21,0,0,0,.26-.18,1.74,1.74,0,0,0-1.17-2,1.77,1.77,0,0,0-2.22,1.51,1.72,1.72,0,0,0,1.51,2.16,3.82,3.82,0,0,0,1.26-.06c.3,0,.46-.13.37-.51s-.18-.4-.51-.31a2.47,2.47,0,0,1-.86,0,.77.77,0,0,1-.64-.39c-.08-.15-.07-.26.15-.25Zm-23.9,0h.95c.1,0,.2,0,.25-.13a1.89,1.89,0,0,0-.8-1.92A1.8,1.8,0,0,0,82.7,46a1.93,1.93,0,0,0,.54,2.58,2.77,2.77,0,0,0,2.27.11c.34-.11,0-.4,0-.6s-.11-.23-.27-.17a2.5,2.5,0,0,1-.94.07.87.87,0,0,1-.71-.35c0-.07-.13-.16-.08-.26s.15,0,.23,0Zm13.18,1.53c.21,0,.42,0,.62-.07a1.11,1.11,0,0,0,.94-1,1.06,1.06,0,0,0-.72-1.16c-.21-.1-.43-.17-.65-.27a.25.25,0,0,1-.16-.26.27.27,0,0,1,.25-.23,1.47,1.47,0,0,1,.69.09c.12,0,.29.16.29-.09s.34-.52,0-.66a1.91,1.91,0,0,0-1.78.1,1,1,0,0,0,0,1.79,6.81,6.81,0,0,0,.78.34.3.3,0,0,1,.22.32A.3.3,0,0,1,98,48a1.29,1.29,0,0,1-.8-.13c-.27-.12-.37-.08-.42.22-.1.52-.11.55.4.65C97.39,48.82,97.62,48.82,97.83,48.85Zm-37-1.9h0c0,.25,0,.5,0,.74.07.82.42,1.14,1.21,1.14s.67,0,.66-.67c0-.22-.07-.29-.28-.27-.37,0-.48-.18-.48-.5a7.48,7.48,0,0,0,0-.82c0-.41,0-.65.53-.57s.24-.26.26-.44.07-.45-.28-.39-.55-.05-.51-.49,0-.52-.54-.42c-.39.07-.68.18-.57.66,0,.12,0,.28-.17.24-.35-.06-.32.18-.28.38s-.16.45.15.45.31.17.3.39Zm19.54,1.9.46-.05a1.17,1.17,0,0,0,1.13-1,1.1,1.1,0,0,0-.83-1.17c-.19-.08-.39-.15-.57-.24a.22.22,0,0,1-.14-.27.25.25,0,0,1,.23-.2.85.85,0,0,1,.57,0c.38.21.46,0,.5-.31,0-.14.21-.33-.1-.42a2.22,2.22,0,0,0-1.68.06,1,1,0,0,0-.62.95.93.93,0,0,0,.57.92c.24.13.5.22.75.33s.23.15.2.31-.15.22-.29.24a1.23,1.23,0,0,1-.76-.11c-.31-.16-.38-.07-.48.24s.07.56.42.61S80.15,48.82,80.36,48.85Zm31,0,.45,0a1.17,1.17,0,0,0,1.13-1c.06-.54-.22-.94-.86-1.2l-.42-.16c-.14-.07-.3-.13-.26-.33s.19-.21.35-.21a1.1,1.1,0,0,1,.57.08c.2.1.28.07.34-.17.15-.57.16-.57-.41-.68a2.08,2.08,0,0,0-1.21.1,1.08,1.08,0,0,0-.73,1,1,1,0,0,0,.63,1c.23.12.48.2.71.3a.28.28,0,0,1,.18.3.29.29,0,0,1-.25.23,1.27,1.27,0,0,1-.84-.12c-.26-.12-.37-.09-.43.21-.09.53-.09.57.44.67C110.94,48.82,111.15,48.82,111.35,48.84Zm15.76,0,.35,0a1.13,1.13,0,0,0,1.09-1c.07-.57-.2-1-.84-1.21l-.49-.19c-.12-.06-.21-.14-.19-.29s.15-.21.3-.22a1.41,1.41,0,0,1,.61.08c.12,0,.31.18.32-.1s.35-.5,0-.65a2,2,0,0,0-1.64,0,1,1,0,0,0-.64,1,1,1,0,0,0,.61.94c.23.12.48.2.71.3a.3.3,0,0,1,.21.28c0,.17-.14.23-.27.27a1.09,1.09,0,0,1-.76-.1c-.38-.21-.44,0-.52.28s0,.48.33.54A4.3,4.3,0,0,0,127.11,48.83Zm-13.48-1a2.24,2.24,0,0,1-.13.48c-.12.28,0,.39.26.45a2.78,2.78,0,0,0,1.54,0,1.08,1.08,0,0,0,.12-2.09l-.61-.25c-.12,0-.22-.14-.19-.28a.28.28,0,0,1,.31-.22,1.13,1.13,0,0,1,.6.08c.25.14.36,0,.35-.2s.31-.43-.06-.55a2,2,0,0,0-1.74.09,1,1,0,0,0,0,1.81,6.36,6.36,0,0,0,.71.31c.16.07.32.15.3.34s-.23.26-.41.26A2.68,2.68,0,0,1,113.63,47.79ZM31.68,46.15V44.31c0-.76,0-.74-.75-.76-.34,0-.4.11-.4.41,0,1.35,0,2.69,0,4,0,.81,0,.8.83.79.26,0,.32-.08.32-.32C31.67,47.69,31.68,46.92,31.68,46.15Zm36.61-.48c.07-.5-.21-.55-.57-.51a1,1,0,0,1-.25,0c-.18,0-.22.07-.21.25,0,.86,0,1.72,0,2.58s0,.81.83.79c.24,0,.31-.07.3-.3,0-.56,0-1.12,0-1.68a.61.61,0,0,1,.66-.64c.36,0,.46-.1.41-.43a1.53,1.53,0,0,1,0-.37c0-.26-.11-.3-.32-.27A1.31,1.31,0,0,0,68.29,45.67Zm7.26.06c-.08-.56-.08-.56-.59-.56H74.8c-.24,0-.29.05-.28.3,0,.83,0,1.67,0,2.5s0,.84.84.82c.23,0,.31-.07.3-.3,0-.53,0-1.07,0-1.6s.24-.73.63-.71.48-.15.44-.49a2.29,2.29,0,0,1,0-.37c0-.19-.08-.24-.25-.23A1.17,1.17,0,0,0,75.55,45.73Zm-50.68,0c.08-.5-.18-.59-.57-.53h-.12c-.28,0-.34.08-.33.34,0,.82,0,1.64,0,2.47s0,.83.84.81c.23,0,.31-.06.3-.3q0-.73,0-1.47c0-.61.23-.85.84-.85.21,0,.26-.06.25-.25a2.71,2.71,0,0,1,0-.57c0-.25-.12-.27-.31-.25A1.27,1.27,0,0,0,24.87,45.7Zm75.22,1.24v1c0,.85,0,.84.85.82.23,0,.3-.07.3-.3,0-.82,0-1.65,0-2.47s0-.88-.89-.85c-.2,0-.26.06-.25.26C100.1,45.92,100.09,46.43,100.09,46.94ZM78.5,47V46c0-.8,0-.79-.82-.79-.25,0-.33.06-.33.32,0,.82,0,1.64,0,2.46s0,.87.87.84c.23,0,.28-.07.28-.28C78.49,48,78.5,47.48,78.5,47ZM78,44.76a.58.58,0,1,0,0-1.15.53.53,0,0,0-.55.58A.55.55,0,0,0,78,44.76Zm22.71,0a.58.58,0,1,0-.58-.59A.54.54,0,0,0,100.66,44.76Z"/><path class="cls-1" d="M106.65,29.45c.44.33.79.63,1.17.87s.32.39.17.69a4.92,4.92,0,0,1-3.33,2.53,16.67,16.67,0,0,1-5.32.26c-.25,0-.22-.18-.22-.35V30.9q0-3.27,0-6.54c0-.29.08-.37.36-.36a24,24,0,0,1,4.72.25,5.86,5.86,0,0,1,3.13,1.6,4.35,4.35,0,0,1,1.1,3.42c0,.22-.15.18-.28.18Z"/><path class="cls-3" d="M99.12,14.33c0-1.23,0-2.47,0-3.7,0-.18,0-.33.23-.35a14.19,14.19,0,0,1,5.51.17,3.81,3.81,0,0,1,1.92,6.15,5.33,5.33,0,0,1-3.36,1.64,27,27,0,0,1-4,.16c-.27,0-.28-.13-.28-.33C99.12,16.82,99.12,15.58,99.12,14.33Z"/><path class="cls-1" d="M86.5,41.49c2.35-.67,4.7-1.36,7.08-1.94l.48-.08a62.32,62.32,0,0,0,7.85.19A26.82,26.82,0,0,0,109,38.57a10.24,10.24,0,0,0,3.76-2H113c-.44,1.5-.89,3-1.29,4.49-.11.4-.29.49-.67.49H86.5Z"/><path class="cls-4" d="M122.29,39.09l-3.38-2.41c-.31-.22-.6-.62-.94-.6s-.62.36-.92.58l-3,2.07-.48.32c.33-1.13.64-2.18,1-3.22.14-.5.28-1,.45-1.49a.45.45,0,0,0-.21-.61l-3.89-2.91-.31-.24h1.64l3.54,0c.27,0,.35-.11.43-.32l1.74-4.62c.17.47.31.86.44,1.26.39,1.13.78,2.25,1.14,3.39a.43.43,0,0,0,.49.35c1.63,0,3.26,0,5,0l-1.25,1c-.89.68-1.78,1.38-2.69,2a.44.44,0,0,0-.17.58c.46,1.52.91,3.05,1.36,4.57C122.29,38.9,122.36,39,122.29,39.09Zm-1.77-2.47h0c.1-.14,0-.26,0-.39-.19-.65-.39-1.31-.59-2s-.22-.74.4-1.22l1.76-1.35a.62.62,0,0,0-.44-.08c-.77,0-1.54,0-2.31,0a.45.45,0,0,1-.49-.36c-.24-.77-.5-1.54-.77-2.3,0-.1,0-.25-.19-.29l-.66,1.72c-.15.38-.21.89-.49,1.1s-.82.06-1.24.06h-1.93c.86.64,1.59,1.21,2.36,1.75a.51.51,0,0,1,.22.67c-.27.86-.51,1.72-.79,2.67.85-.59,1.63-1.12,2.39-1.68a.38.38,0,0,1,.54,0C119,35.54,119.76,36.08,120.52,36.62Z"/><path class="cls-3" d="M112.52,41.56,116.17,39c.53-.37,1.06-.73,1.58-1.11a.3.3,0,0,1,.42,0q2.51,1.8,5,3.59s0,0,0,.09Z"/><path class="cls-4" d="M132.06,45.86a7.86,7.86,0,0,0-.35-3.23l4.58,0c.19,0,.37.16.57,0,.56.15.57.15.46.76a7.64,7.64,0,0,1-.48,1.82,2.89,2.89,0,0,0-.65-.05c-.27,0-.35.07-.34.34,0,.64,0,1.27,0,1.91-.31.43-.53.91-.88,1.31l-.06-.06c.11-.63,0-.76-.59-.7a1.65,1.65,0,0,1-1.23-.19c-.12-.09-.25-.22-.19-.38s.21-.06.33-.07h1.64c.13,0,.26,0,.31-.17a1.74,1.74,0,0,0-1.25-2A1.81,1.81,0,0,0,132.06,45.86Z"/><path class="cls-3" d="M128.21,39.8a10.37,10.37,0,0,1,2.48,1.77l-6,0a.29.29,0,0,1-.31-.24l-.68-2.29A23.3,23.3,0,0,0,128.21,39.8Z"/><path class="cls-6" d="M86.5,41.49v.09a.35.35,0,0,1-.33,0Z"/><path class="cls-1" d="M57.16,51.59a37,37,0,0,1-4.1,1.47,83,83,0,0,1-9.69,2.38c-1.88.35-3.78.61-5.68.83-.81.09-1.63.11-2.45.18a64.5,64.5,0,0,1-6.81.15,26.51,26.51,0,0,1-8.71-1.68,17.07,17.07,0,0,1-5.55-3.14l-.1-.12v-.12l.41,0H56.75l.41,0Z"/><path class="cls-4" d="M130.14,50.49a6.84,6.84,0,0,0,.85-1.63h0l.08-.06c.41-.06.17-.4.26-.6s.22-.65.41-1c.33,1.13.81,1.54,1.83,1.58a4.66,4.66,0,0,0,1.34-.18l.06.06a17.87,17.87,0,0,1-1.34,1.77Z"/><path class="cls-3" d="M57.16,51.59v-.05h.24Z"/><path class="cls-3" d="M14.06,51.54v.12L14,51.53Z"/><path class="cls-5" d="M135.85,47.41c0-.64,0-1.27,0-1.91,0-.27.07-.37.34-.34a2.89,2.89,0,0,1,.65.05v.38a2.44,2.44,0,0,1,.65-.43,1.16,1.16,0,0,1,1.34.35c.11.14.15.12.26,0a1.25,1.25,0,0,1,1.5-.32,1.28,1.28,0,0,1,.7,1.29c0,.66,0,1.32,0,2,0,.22,0,.31-.29.31-.8,0-.8,0-.8-.78,0-.46,0-.93,0-1.39s-.14-.63-.53-.6-.5.31-.51.65c0,.59,0,1.18,0,1.77,0,.25-.05.36-.34.35-.77,0-.77,0-.77-.77,0-.5,0-1,0-1.48,0-.29-.16-.52-.48-.52a.53.53,0,0,0-.53.57c0,.63,0,1.26,0,1.9,0,.22-.06.3-.3.3-.83,0-.83,0-.83-.79C135.87,47.8,135.86,47.6,135.85,47.41Z"/><path class="cls-5" d="M143.15,48.85c-.21,0-.43,0-.64-.08-.49-.1-.49-.13-.4-.61.06-.33.17-.39.47-.24a1.21,1.21,0,0,0,.8.1.27.27,0,0,0,.25-.23.28.28,0,0,0-.18-.3c-.22-.1-.46-.17-.68-.28a1,1,0,0,1-.66-1,1.11,1.11,0,0,1,.81-1,2.19,2.19,0,0,1,1.45,0c.47.17.06.45.06.68s-.2.12-.31.09a1.83,1.83,0,0,0-.52-.09c-.18,0-.36,0-.4.22s.15.28.3.35.23.08.34.12c.66.26,1,.66.9,1.22s-.47.91-1.17,1Z"/><path class="cls-1" d="M19.64,33a3.6,3.6,0,0,1,1.06-1.07c1.75-1.42,3.6-2.71,5.47-4,0,1.58,0,3.16,0,4.73,0,.26-.15.29-.32.33a13.41,13.41,0,0,1-3.84.34A8.39,8.39,0,0,1,19.64,33Z"/><path class="cls-5" d="M112.79,36.62a10.24,10.24,0,0,1-3.76,2,26.82,26.82,0,0,1-7.12,1.09,62.32,62.32,0,0,1-7.85-.19c1.2-.39,2.44-.62,3.67-.89a92.63,92.63,0,0,1,10.46-1.7A39.28,39.28,0,0,1,112.79,36.62Z"/><path class="cls-5" d="M11.59,46.24a2,2,0,0,1,1.28-1.1c1.24-.27,2.17.53,2,2,0,.24-.17.2-.31.2h-2a.73.73,0,0,0,.75.64,2.34,2.34,0,0,0,1-.06c.14,0,.3-.06.29.15s.26.46,0,.62a2.58,2.58,0,0,1-2.77-.53,2.48,2.48,0,0,1-.29-1.62.42.42,0,0,0,.08-.28Zm1,.31c.37,0,.71,0,1.05,0s.24-.09.18-.27a.55.55,0,0,0-.56-.44C12.86,45.87,12.66,46.12,12.59,46.55Z"/><path class="cls-3" d="M7.65,46.35a1.15,1.15,0,0,1,.31-1Z"/><path class="cls-3" d="M11.6,46.24a.42.42,0,0,1-.08.28C11.55,46.42,11.46,46.3,11.6,46.24Z"/><path class="cls-3" d="M8,45.33c0-.07,0-.1.07-.13Z"/><path class="cls-2" d="M90.93,46.1a1.29,1.29,0,0,1,.87,1.33,1.37,1.37,0,0,1-1.09,1.23,7.55,7.55,0,0,1-2.37.12c-.19,0-.21-.12-.21-.28V44.11c0-.16,0-.25.22-.26a8,8,0,0,1,2.13,0,1.21,1.21,0,0,1,1.13,1.43C91.55,45.58,91.44,45.71,90.93,46.1Zm-1.68,1.15c0,.76.16.88.85.66a.64.64,0,0,0,0-1.26C89.39,46.43,89.25,46.53,89.25,47.25Zm0-2c.07.15-.23.55.32.52s.91-.22.9-.61-.3-.52-.82-.55S89.23,44.87,89.27,45.24Z"/><path class="cls-5" d="M48.84,45.39c0-.51,0-1,0-1.48,0-.25,0-.36.33-.36.82,0,.82,0,.82.81,0,1.37,0,2.75,0,4.12,0,.22,0,.33-.29.3a.88.88,0,0,0-.28,0c-.31,0-.51,0-.46-.46a3,3,0,0,1-.57.41,1.44,1.44,0,0,1-1.84-.63,2.27,2.27,0,0,1-.13-2A1.57,1.57,0,0,1,48.84,45.39Zm0,1.55c0-.12,0-.24,0-.36a.66.66,0,0,0-1.25-.25,1.19,1.19,0,0,0-.15.55c0,.61.26,1,.71,1.07S48.84,47.61,48.83,46.94Z"/><path class="cls-5" d="M71.08,45.64l.23-.19a1.45,1.45,0,0,1,2.32.56,2.31,2.31,0,0,1,0,1.91,1.57,1.57,0,0,1-2.36.62c0,.47,0,.91,0,1.36,0,.21,0,.31-.29.31-.86,0-.86,0-.86-.85,0-1.27,0-2.55,0-3.82,0-.3.06-.43.37-.38h.17C70.91,45.15,71.2,45.11,71.08,45.64ZM71.26,47h0v.29a.65.65,0,0,0,.57.7.66.66,0,0,0,.76-.49,1.44,1.44,0,0,0,0-1A.64.64,0,0,0,71.8,46a.67.67,0,0,0-.54.64A1.82,1.82,0,0,0,71.26,47Z"/><path class="cls-5" d="M52.46,46.32c0-.73,0-1.45,0-2.18,0-.26.08-.32.33-.31.81,0,1.62,0,2.43,0,.26,0,.31.08.31.32,0,.61,0,.61-.6.61-.34,0-.69,0-1,0s-.29.07-.29.3c0,.71,0,.71.71.71a4.14,4.14,0,0,0,.61,0c.44-.07.52.12.51.52s-.08.46-.43.43-.77,0-1.15,0c-.17,0-.27,0-.25.22a.27.27,0,0,1,0,.09c0,.81,0,.81.8.81h.53c.75,0,.74,0,.68.74,0,.19-.08.23-.25.23H52.73c-.22,0-.28-.07-.27-.28C52.47,47.77,52.46,47.05,52.46,46.32Z"/><path class="cls-5" d="M120.22,43.75a4,4,0,0,1,.49,0c.74.09.77.16.57.85-.06.22-.13.29-.36.19a1.8,1.8,0,0,0-.92-.13c-.24,0-.47.11-.53.38s.13.43.35.53.61.25.9.39a1.4,1.4,0,0,1,.92,1.46,1.46,1.46,0,0,1-1.19,1.3,3.7,3.7,0,0,1-1.87-.05c-.28-.08-.36-.2-.28-.49.16-.55.14-.56.67-.41a2.5,2.5,0,0,0,.94.1c.26,0,.49-.12.55-.41a.5.5,0,0,0-.35-.58c-.22-.11-.45-.19-.68-.28-.86-.36-1.25-.94-1.11-1.65A1.62,1.62,0,0,1,120,43.75Z"/><path class="cls-5" d="M123.87,47.45c.18-.68.36-1.35.51-2,.05-.21.13-.27.33-.26s.6,0,1,0A26.46,26.46,0,0,1,124,49.4a2.08,2.08,0,0,1-1.21.93c-.21.07-.35,0-.36-.22a1,1,0,0,0-.08-.28c-.11-.27-.09-.46.24-.54A.94.94,0,0,0,123,49a.52.52,0,0,0,.13-.65c-.39-.94-.75-1.88-1.13-2.82-.12-.26-.13-.37.22-.36.91,0,.91,0,1.17.86.14.45.27.91.41,1.37C123.82,47.41,123.85,47.43,123.87,47.45Z"/><path class="cls-5" d="M57.37,45.64a1.65,1.65,0,0,1,.85-.53,1.21,1.21,0,0,1,1.49.89,15.39,15.39,0,0,1,.09,2.63.14.14,0,0,1-.15.15h-.82c-.2,0-.17-.14-.17-.26,0-.47,0-.93,0-1.4,0-.14,0-.27,0-.41,0-.44-.22-.7-.54-.7s-.6.29-.6.74,0,.82,0,1.23c0,.84,0,.84-.86.8-.19,0-.27,0-.27-.25q0-1.56,0-3.12c0-.17,0-.27.23-.25a1.22,1.22,0,0,0,.33,0C57.2,45.12,57.42,45.17,57.37,45.64Z"/><path class="cls-5" d="M40.22,48.32a1.57,1.57,0,0,1-1.18.54,1.24,1.24,0,0,1-1.22-1.33c0-.72,0-1.43,0-2.14,0-.12,0-.23.16-.22h.82c.21,0,.16.14.16.25v1.44c0,.11,0,.22,0,.33,0,.48.22.73.56.73s.57-.29.58-.75,0-1.15,0-1.73c0-.21.05-.28.27-.28.87,0,.86,0,.87.84s0,1.65,0,2.47c0,.26-.07.35-.32.31h-.2C40.43,48.81,40.17,48.79,40.22,48.32Z"/><path class="cls-5" d="M95,48.28a1.79,1.79,0,0,1-.86.54,1.2,1.2,0,0,1-1.53-1c-.1-.8,0-1.61,0-2.42,0-.18.09-.2.23-.2a4.85,4.85,0,0,0,.66,0c.22,0,.25.08.24.27,0,.5,0,1,0,1.52a3.42,3.42,0,0,0,0,.45c0,.32.2.55.56.51a.56.56,0,0,0,.53-.62c0-.62,0-1.23,0-1.85,0-.21.06-.28.27-.28.88,0,.88,0,.88.83s0,1.62,0,2.43c0,.28-.06.41-.36.36h-.2C95.11,48.83,94.91,48.75,95,48.28Z"/><path class="cls-5" d="M43.15,45.59c.16-.12.27-.22.39-.3a1.26,1.26,0,0,1,2,.88,17.77,17.77,0,0,1,0,2.42c0,.15-.06.19-.2.19a4.85,4.85,0,0,0-.66,0c-.22,0-.27-.09-.27-.29,0-.49,0-1,0-1.48,0-.15,0-.3,0-.45,0-.33-.2-.55-.54-.55a.55.55,0,0,0-.56.55c0,.52,0,1,0,1.56s0,.63-.64.67c-.39,0-.52-.07-.51-.49,0-.94,0-1.88,0-2.83,0-.22,0-.34.29-.31a.71.71,0,0,0,.29,0C43,45.12,43.19,45.19,43.15,45.59Z"/><path class="cls-5" d="M34.17,46.31c0-.73,0-1.46,0-2.18,0-.23.06-.3.3-.3q1.22,0,2.43,0c.25,0,.35.07.32.32a.92.92,0,0,0,0,.33c0,.22-.06.29-.28.28-.44,0-.88,0-1.31,0-.27,0-.32.08-.32.32,0,.79,0,.79.79.79a5.61,5.61,0,0,0,.58,0c.33,0,.42.09.4.41,0,.53,0,.52-.56.53-.39,0-.91-.17-1.14.08s-.06.73-.06,1.11c0,.8,0,.78-.8.8-.31,0-.35-.11-.35-.38C34.18,47.71,34.17,47,34.17,46.31Z"/><path class="cls-5" d="M103.12,45.61a2.42,2.42,0,0,1,.8-.47,1.21,1.21,0,0,1,1.59,1,16.06,16.06,0,0,1,.06,2.5c0,.14-.07.2-.2.19h0c-.88.06-.88.06-.88-.82,0-.42,0-.83,0-1.24s-.24-.73-.57-.71a.65.65,0,0,0-.57.72c0,.58,0,1.16,0,1.73,0,.26-.08.32-.33.32-.82,0-.82,0-.82-.8s0-1.7,0-2.55c0-.22.08-.29.28-.27a1.43,1.43,0,0,0,.29,0C103,45.15,103.25,45.12,103.12,45.61Z"/><path class="cls-5" d="M16.57,45.67a2,2,0,0,1,.79-.53A1.22,1.22,0,0,1,19,46.22c.06.78,0,1.56,0,2.34,0,.16-.05.24-.21.22h0c-.88,0-.88,0-.88-.83,0-.43,0-.85,0-1.28s-.12-.63-.53-.66-.59.27-.59.69c0,.58,0,1.15,0,1.73,0,.25,0,.36-.33.35-.81,0-.81,0-.81-.8s0-1.7,0-2.55c0-.23.06-.29.26-.27a1.82,1.82,0,0,0,.33,0C16.48,45.14,16.71,45.17,16.57,45.67Z"/><path class="cls-5" d="M26.88,46.12c-.33-.73-.29-.81.48-1a2.71,2.71,0,0,1,1.06,0,1.3,1.3,0,0,1,1.2,1.37c0,.69,0,1.37,0,2.06,0,.18,0,.24-.23.23H29c-.21,0-.4,0-.33-.37a1.55,1.55,0,0,1-1.31.42,1,1,0,0,1-.91-.83,1.14,1.14,0,0,1,.48-1.26,2.56,2.56,0,0,1,1.24-.37c.11,0,.32.08.32-.13s-.15-.28-.32-.32a1.63,1.63,0,0,0-1,.09Zm1.64,1.27c0-.12.08-.3-.18-.32s-.81.23-.83.52a.39.39,0,0,0,.42.45C28.26,48.06,28.5,47.79,28.52,47.39Z"/><path class="cls-5" d="M22,47.32h-.91c-.26,0-.23.14-.14.28a.84.84,0,0,0,.7.37,2.64,2.64,0,0,0,.93-.06c.14,0,.32-.09.3.13s.31.52-.06.63a2.82,2.82,0,0,1-2.24-.09A2,2,0,0,1,20,46a1.82,1.82,0,0,1,2.36-.69,1.92,1.92,0,0,1,.79,1.9c0,.15-.12.15-.24.15Zm-.51-.77a1.47,1.47,0,0,0,.21,0c.14,0,.38.11.42-.1a.51.51,0,0,0-.32-.53.59.59,0,0,0-.69.09c-.14.12-.27.3-.22.46s.26.05.4.08A1.34,1.34,0,0,0,21.47,46.55Z"/><path class="cls-5" d="M64.26,47.32A.75.75,0,0,0,65,48a2.46,2.46,0,0,0,1-.07c.15,0,.32,0,.29.15s.32.51-.07.63a3,3,0,0,1-2.09,0A1.89,1.89,0,0,1,63.4,46a1.79,1.79,0,0,1,2.43-.73,1.92,1.92,0,0,1,.74,1.88c0,.2-.17.14-.28.14Zm.61-.77a1.33,1.33,0,0,0,.2,0c.15,0,.38.11.42-.11a.47.47,0,0,0-.3-.52.56.56,0,0,0-.71.12.48.48,0,0,0-.2.43c0,.18.25,0,.38.08A.74.74,0,0,0,64.87,46.55Z"/><path class="cls-5" d="M108.55,47.32h-1c-.22,0-.23.1-.15.25a.77.77,0,0,0,.64.39,2.47,2.47,0,0,0,.86,0c.33-.09.43,0,.51.31s-.07.46-.37.51a3.82,3.82,0,0,1-1.26.06,1.72,1.72,0,0,1-1.51-2.16,1.77,1.77,0,0,1,2.22-1.51,1.74,1.74,0,0,1,1.17,2,.21.21,0,0,1-.26.18Zm-.54-.77a1.33,1.33,0,0,0,.2,0c.15,0,.38.1.42-.09a.49.49,0,0,0-.29-.53.59.59,0,0,0-.72.09c-.13.12-.26.29-.21.46s.26,0,.4.07A1.33,1.33,0,0,0,108,46.55Z"/><path class="cls-2" d="M134.91,48.66a4.66,4.66,0,0,1-1.34.18c-1,0-1.5-.45-1.83-1.58a3,3,0,0,1,.32-1.4,1.81,1.81,0,0,1,1.87-.74,1.74,1.74,0,0,1,1.25,2c-.05.19-.18.17-.31.17h-1.64c-.12,0-.28-.07-.33.07s.07.29.19.38a1.65,1.65,0,0,0,1.23.19C134.9,47.9,135,48,134.91,48.66Zm-1.43-2.11a1.33,1.33,0,0,0,.2,0c.15,0,.38.1.42-.09a.52.52,0,0,0-.3-.54.6.6,0,0,0-.72.1.45.45,0,0,0-.19.43c.05.2.25.07.38.1A.74.74,0,0,0,133.48,46.55Z"/><path class="cls-5" d="M84.65,47.32h-.86c-.08,0-.18,0-.23,0s0,.19.08.26a.87.87,0,0,0,.71.35,2.5,2.5,0,0,0,.94-.07c.16-.06.29,0,.27.17s.29.49,0,.6a2.77,2.77,0,0,1-2.27-.11A1.93,1.93,0,0,1,82.7,46a1.8,1.8,0,0,1,2.35-.71,1.89,1.89,0,0,1,.8,1.92c0,.16-.15.13-.25.13Zm-1.12-.77c.36,0,.69,0,1,0s.27-.15.19-.34a.54.54,0,0,0-.57-.37C83.8,45.89,83.6,46.13,83.53,46.55Z"/><path class="cls-5" d="M97.83,48.85c-.21,0-.44,0-.65-.08-.51-.1-.5-.13-.4-.65,0-.3.15-.34.42-.22A1.29,1.29,0,0,0,98,48a.3.3,0,0,0,.29-.24.3.3,0,0,0-.22-.32,6.81,6.81,0,0,1-.78-.34,1,1,0,0,1,0-1.79,1.91,1.91,0,0,1,1.78-.1c.37.14,0,.44,0,.66s-.17.13-.29.09a1.47,1.47,0,0,0-.69-.09.27.27,0,0,0-.25.23.25.25,0,0,0,.16.26c.22.1.44.17.65.27a1.06,1.06,0,0,1,.72,1.16,1.11,1.11,0,0,1-.94,1C98.25,48.82,98,48.82,97.83,48.85Z"/><path class="cls-5" d="M60.82,47v-.57c0-.22,0-.39-.3-.39s-.13-.29-.15-.45-.07-.44.28-.38c.19,0,.2-.12.17-.24-.11-.48.18-.59.57-.66.55-.1.59-.11.54.42s.12.55.51.49.3.19.28.39.14.5-.26.44-.57.16-.53.57a7.48,7.48,0,0,1,0,.82c0,.32.11.54.48.5.21,0,.28,0,.28.27,0,.66,0,.68-.66.67s-1.14-.32-1.21-1.14c0-.24,0-.49,0-.74Z"/><path class="cls-5" d="M80.36,48.85c-.21,0-.42,0-.64-.08s-.56-.17-.42-.61.17-.4.48-.24a1.23,1.23,0,0,0,.76.11c.14,0,.27-.07.29-.24s-.07-.25-.2-.31-.51-.2-.75-.33a.93.93,0,0,1-.57-.92,1,1,0,0,1,.62-.95,2.22,2.22,0,0,1,1.68-.06c.31.09.11.28.1.42,0,.3-.12.52-.5.31a.85.85,0,0,0-.57,0,.25.25,0,0,0-.23.2.22.22,0,0,0,.14.27c.18.09.38.16.57.24A1.1,1.1,0,0,1,82,47.79a1.17,1.17,0,0,1-1.13,1Z"/><path class="cls-5" d="M111.35,48.84c-.2,0-.41,0-.61-.06-.53-.1-.53-.14-.44-.67.06-.3.17-.33.43-.21a1.27,1.27,0,0,0,.84.12.29.29,0,0,0,.25-.23.28.28,0,0,0-.18-.3c-.23-.1-.48-.18-.71-.3a1,1,0,0,1-.63-1,1.08,1.08,0,0,1,.73-1,2.08,2.08,0,0,1,1.21-.1c.57.11.56.11.41.68-.06.24-.14.27-.34.17a1.1,1.1,0,0,0-.57-.08c-.16,0-.31,0-.35.21s.12.26.26.33l.42.16c.64.26.92.66.86,1.2a1.17,1.17,0,0,1-1.13,1Z"/><path class="cls-5" d="M127.11,48.83a4.3,4.3,0,0,1-.87-.08c-.32-.06-.42-.21-.33-.54s.14-.49.52-.28a1.09,1.09,0,0,0,.76.1c.13,0,.26-.1.27-.27a.3.3,0,0,0-.21-.28c-.23-.1-.48-.18-.71-.3a1,1,0,0,1-.61-.94,1,1,0,0,1,.64-1,2,2,0,0,1,1.64,0c.4.15,0,.43,0,.65s-.2.14-.32.1a1.41,1.41,0,0,0-.61-.08c-.15,0-.27.06-.3.22s.07.23.19.29l.49.19c.64.26.91.64.84,1.21a1.13,1.13,0,0,1-1.09,1Z"/><path class="cls-5" d="M113.63,47.79a2.68,2.68,0,0,0,1,.25c.18,0,.38,0,.41-.26s-.14-.27-.3-.34a6.36,6.36,0,0,1-.71-.31,1,1,0,0,1,0-1.81,2,2,0,0,1,1.74-.09c.37.12.05.36.06.55s-.1.34-.35.2a1.13,1.13,0,0,0-.6-.08.28.28,0,0,0-.31.22c0,.14.07.23.19.28l.61.25a1.08,1.08,0,0,1-.12,2.09,2.78,2.78,0,0,1-1.54,0c-.26-.06-.38-.17-.26-.45A2.24,2.24,0,0,0,113.63,47.79Z"/><path class="cls-5" d="M131.33,48.21c-.09.2.15.54-.26.6,0,0-.1,0-.08.06h0l-.28,0c-.92,0-1.28-.36-1.28-1.3,0-.41,0-.82,0-1.23,0-.19,0-.32-.25-.3-.42,0-.22-.29-.24-.45s-.12-.43.23-.38.29-.09.26-.28c-.09-.43.13-.59.51-.62a.94.94,0,0,0,.28-.06c.25-.09.32,0,.3.24,0,.06,0,.11,0,.17-.07.42.06.64.53.55s.28.23.28.42.11.44-.28.42-.53,0-.52.56c0,.3,0,.6,0,.9s.16.47.48.42S131.33,48,131.33,48.21Z"/><path class="cls-5" d="M31.68,46.15c0,.77,0,1.54,0,2.31,0,.24-.06.32-.32.32-.83,0-.83,0-.83-.79,0-1.34,0-2.68,0-4,0-.3.06-.42.4-.41.75,0,.75,0,.75.76Z"/><path class="cls-5" d="M68.29,45.67a1.31,1.31,0,0,1,.9-.58c.21,0,.35,0,.32.27a1.53,1.53,0,0,0,0,.37c0,.33-.05.45-.41.43a.61.61,0,0,0-.66.64c0,.56,0,1.12,0,1.68,0,.23-.06.3-.3.3-.83,0-.83,0-.83-.79s0-1.72,0-2.58c0-.18,0-.26.21-.25a1,1,0,0,0,.25,0C68.08,45.12,68.36,45.17,68.29,45.67Z"/><path class="cls-5" d="M75.55,45.73a1.17,1.17,0,0,1,1-.65c.17,0,.26,0,.25.23a2.29,2.29,0,0,0,0,.37c0,.34,0,.51-.44.49s-.62.28-.63.71,0,1.07,0,1.6c0,.23-.07.3-.3.3-.84,0-.84,0-.84-.82s0-1.67,0-2.5c0-.25,0-.33.28-.3H75C75.47,45.17,75.47,45.17,75.55,45.73Z"/><path class="cls-5" d="M24.87,45.7a1.27,1.27,0,0,1,.92-.61c.19,0,.33,0,.31.25a2.71,2.71,0,0,0,0,.57c0,.19,0,.25-.25.25-.61,0-.83.24-.84.85s0,1,0,1.47c0,.24-.07.3-.3.3-.84,0-.84,0-.84-.81s0-1.65,0-2.47c0-.26,0-.38.33-.34h.12C24.69,45.11,25,45.2,24.87,45.7Z"/><path class="cls-5" d="M100.09,46.94c0-.51,0-1,0-1.52,0-.2,0-.25.25-.26.89,0,.89,0,.89.85s0,1.65,0,2.47c0,.23-.07.3-.3.3-.85,0-.85,0-.85-.82Z"/><path class="cls-5" d="M78.5,47c0,.5,0,1,0,1.52,0,.21-.05.28-.28.28-.87,0-.87,0-.87-.84s0-1.64,0-2.46c0-.26.08-.32.33-.32.82,0,.82,0,.82.79Z"/><path class="cls-5" d="M78,44.76a.55.55,0,0,1-.6-.57.53.53,0,0,1,.55-.58.58.58,0,1,1,0,1.15Z"/><path class="cls-5" d="M100.66,44.76a.54.54,0,0,1-.58-.59.59.59,0,1,1,.58.59Z"/><path class="cls-2" d="M120.52,36.62c-.76-.54-1.52-1.08-2.27-1.63a.38.38,0,0,0-.54,0c-.76.56-1.54,1.09-2.39,1.68.28-.95.52-1.81.79-2.67a.51.51,0,0,0-.22-.67c-.77-.54-1.5-1.11-2.36-1.75h1.93c.42,0,.94.17,1.24-.06s.34-.72.49-1.1l.66-1.72c.18,0,.16.19.19.29.27.76.53,1.53.77,2.3a.45.45,0,0,0,.49.36c.77,0,1.54,0,2.31,0a.62.62,0,0,1,.44.08l-1.76,1.35c-.62.48-.62.48-.4,1.22s.4,1.31.59,2c0,.13.13.25,0,.39Z"/><path class="cls-2" d="M120.51,36.63h0Z"/><path class="cls-3" d="M131,48.87c0-.08,0,0,.08-.06Z"/><path class="cls-3" d="M12.59,46.55c.07-.43.27-.68.67-.7a.55.55,0,0,1,.56.44c.06.18,0,.28-.18.27S13,46.55,12.59,46.55Z"/><path class="cls-3" d="M89.25,47.25c0-.72.14-.82.85-.6a.64.64,0,0,1,0,1.26C89.41,48.13,89.25,48,89.25,47.25Z"/><path class="cls-3" d="M89.27,45.24c0-.37-.08-.67.4-.64s.81.2.82.55-.31.59-.9.61S89.34,45.39,89.27,45.24Z"/><path class="cls-3" d="M48.83,46.94c0,.67-.24,1-.69,1s-.74-.46-.71-1.07a1.19,1.19,0,0,1,.15-.55.66.66,0,0,1,1.25.25C48.84,46.7,48.83,46.82,48.83,46.94Z"/><path class="cls-3" d="M71.26,47a1.82,1.82,0,0,1,0-.33A.67.67,0,0,1,71.8,46a.64.64,0,0,1,.76.43,1.44,1.44,0,0,1,0,1,.66.66,0,0,1-.76.49.65.65,0,0,1-.57-.7V47Z"/><path class="cls-3" d="M28.52,47.39c0,.4-.26.67-.59.65a.39.39,0,0,1-.42-.45c0-.29.44-.54.83-.52S28.5,47.27,28.52,47.39Z"/><path class="cls-3" d="M21.47,46.55a1.34,1.34,0,0,1-.2,0c-.14,0-.35.09-.4-.08s.08-.34.22-.46a.59.59,0,0,1,.69-.09.51.51,0,0,1,.32.53c0,.21-.28.06-.42.1A1.47,1.47,0,0,1,21.47,46.55Z"/><path class="cls-3" d="M64.87,46.55a.74.74,0,0,1-.21,0c-.13,0-.33.1-.38-.08a.48.48,0,0,1,.2-.43.56.56,0,0,1,.71-.12.47.47,0,0,1,.3.52c0,.22-.27.07-.42.11A1.33,1.33,0,0,1,64.87,46.55Z"/><path class="cls-3" d="M108,46.55a1.33,1.33,0,0,1-.2,0c-.14,0-.34.09-.4-.07s.08-.34.21-.46a.59.59,0,0,1,.72-.09.49.49,0,0,1,.29.53c0,.19-.27.06-.42.09A1.33,1.33,0,0,1,108,46.55Z"/><path class="cls-4" d="M133.48,46.55a.74.74,0,0,1-.21,0c-.13,0-.33.1-.38-.1a.45.45,0,0,1,.19-.43.6.6,0,0,1,.72-.1.52.52,0,0,1,.3.54c0,.19-.27.06-.42.09A1.33,1.33,0,0,1,133.48,46.55Z"/><path class="cls-3" d="M83.53,46.55c.07-.42.27-.66.64-.7a.54.54,0,0,1,.57.37c.08.19.11.35-.19.34S83.89,46.55,83.53,46.55Z"/></svg>