<svg xmlns="http://www.w3.org/2000/svg" viewBox="0 0 855.12 405.99"><defs><style>.a{fill:#fefefe;}.b{fill:#fdfdfd;}.c{fill:#f7f5f5;}.d{fill:#fed431;}.e{fill:#fad232;}.f{fill:#fed533;}.g{fill:#fcd230;}.h{fill:#c8b15e;}.i{fill:#c7c6c6;}.j{fill:#b8a870;}.k{fill:#fcfcfc;}.l{fill:#fad030;}.m{fill:#f8f8f8;}.n{fill:#efefef;}</style></defs><path class="a" d="M748.86,30.72h64.48V375.28H41.78V133.19a11.91,11.91,0,0,1,.43,2c.69,16.06,4.23,31.38,11.87,45.62A77,77,0,0,0,88.59,214c-.9,1.09-1.86,2.13-2.69,3.26-4.2,5.67-8.36,11.37-12.54,17-2.89.06-5.78.16-8.67.18-4.89,0-9.79,0-14.75,0v5.67H69.6q-1.51,3.12-3,6.26c-2.58,1.21-5.44,2.05-7.68,3.72-5.54,4.16-6.42,15.62.44,21.06l0,11.68H49.94v5.71H60.88c.58,1.61,1.07,3.26,1.77,4.81,6,13.23,16.5,21.82,29.25,28a113.46,113.46,0,0,0,31,9.4,195.55,195.55,0,0,0,32.23,2.81c2.36,0,4.73-.29,7.09-.42,5.17-.31,10.36-.47,15.52-.93,7.15-.64,14.34-1.2,21.42-2.33,10-1.6,20.13-3.06,29.9-5.71,19.44-5.27,38.71-11.2,58-17.09,9.26-2.82,18.44-6,27.54-9.32,7.8-2.84,15.44-6.12,23.15-9.2,1,0,1.94-.1,2.91-.1H719.27c.89,0,1.79,0,2.68,0l.2.43c-.29.43-.55.89-.88,1.29a165.43,165.43,0,0,1-38.48,34.49c-24.95,16.27-50.42,31.7-77.35,44.64A9.14,9.14,0,0,0,608,369c9.35-3.7,18.77-7.21,28-11.2,24.56-10.61,47.94-23.31,69.49-39.31,12.34-9.17,24.51-18.47,35-29.81.89,0,1.78-.1,2.68-.1h69.28V283H760.94c-5.07,0-10.14-.06-15.2-.09l7.22-9.6.39-.52,4.44-6.48v7.19h6.14c0-.62.08-1.12.08-1.62,0-3.36,0-6.71,0-10.06a2.91,2.91,0,0,1,2.76-3.21c1.84-.14,2.58,1.2,2.72,2.87.09,1,.14,2.08.14,3.12,0,3,0,5.92,0,8.89h6v-2.73c0-3.06,0-6.11.08-9.17a2.84,2.84,0,0,1,2.73-3c1.75-.15,2.49,1.09,2.75,2.62a18.54,18.54,0,0,1,.23,2.88c0,3.11,0,6.22,0,9.42h5.91c0-3.95,0-7.8,0-11.66a13.46,13.46,0,0,0-.08-2c-.78-5.34-5.46-7.91-10-5.42a22.17,22.17,0,0,0-2.79,2.13c-1.24-2-3.11-3.26-5.39-2.93-2,.3-4,1.33-6,2v-1.45a39.24,39.24,0,0,0,2.92-13.36l-2.94-.66h49.26v-5.67H769.1c-.88,0-1.77-.1-2.66-.15-.12-.51-.23-1-.37-1.51-1.42-4.93-4.1-9.19-7-13.3,1.7-.75,3.4-1.48,5.09-2.25C798.36,201.73,802.27,164.37,791,142c-5.58-11.09-14.7-18.74-25.47-24.28-8.32-4.27-17.2-7.42-25.66-11.42a135.57,135.57,0,0,1-16.77-9.19c-5.07-3.35-7.28-8.58-6.58-14.74.89-7.67,5.91-11.91,12.66-14.43,7.47-2.78,15.22-2.46,23-1.6a82,82,0,0,1,28,8.41c3.06-11.45,6.08-22.78,9.13-34.18-.66-.34-1.17-.62-1.7-.87a94.59,94.59,0,0,0-31.4-8.09C753.75,31.35,751.3,31,748.86,30.72Zm55.42,227.93c.31-1.21.64-2.49,1-3.95-3.85-1.42-7.58-1.9-11.1.54a5.44,5.44,0,0,0,.1,9.19c1.22.81,2.75,1.14,4,1.9a9.49,9.49,0,0,1,1.75,2c-.84.46-1.7,1.34-2.51,1.28a33.88,33.88,0,0,1-5.26-1.14c-.32,1.39-.65,2.8-1,4.25a14.92,14.92,0,0,0,10.45.65,5.7,5.7,0,0,0,4.37-5.31,5.57,5.57,0,0,0-3.53-5.67c-1.27-.6-2.64-1-3.86-1.7a1.9,1.9,0,0,1-.9-1.53,1.87,1.87,0,0,1,1.44-1.07C800.86,258.1,802.46,258.41,804.28,258.65Z"/><path class="b" d="M41.78,127.82V30.72H738.11a3.08,3.08,0,0,1-.91.41c-3.92.47-7.88.7-11.75,1.4-14.2,2.57-26.83,8.26-36.92,18.9C671,69.94,668,104.29,691.74,124.89c10,8.7,21.6,14.42,33.88,19,7.26,2.7,14.5,5.48,20.79,10.14,7.7,5.69,10.45,14.11,7.27,22.44-2.67,7-8.4,10.39-15.25,12.18-8.61,2.24-17.32,1.68-26,.25-4.73-.79-9.39-2-14.59-3.19l21.34-16.35h-3c-13.06,0-26.12-.05-39.18,0-2,0-2.84-.51-3.45-2.4-2.45-7.65-5.06-15.25-7.63-22.85-1.78-5.3-3.61-10.58-5.57-16.32-3.4,8.95-6.63,17.43-10,26.41C645,136.16,633,125.74,615.45,120.52c1.55-.69,2.7-1.18,3.83-1.71,23.49-10.94,30.82-32.67,23.86-53.55-3.83-11.49-12.09-19-22.66-24.36-11.85-6-24.63-7.78-37.65-8.28a359.77,359.77,0,0,0-51.37,1.76c-4.57.47-9.11,1.16-13.66,1.75,0,.77-.08,1.21-.08,1.65q0,90.95,0,181.89a9.07,9.07,0,0,0,.49,2.06c-1.09.46-2.17,1-3.28,1.36q-14.73,5.47-29.49,10.92l-1.73.47c-.9,0-1.79.06-2.69.06H91.69c-.82,0-1.64,0-2.46-.07a13,13,0,0,1,.82-2c2.87-4.76,5.78-9.49,8.68-14.22,34.76,10.63,68.84,6.41,102.69-4.37v-2.76q0-37.35,0-74.7c0-.89.06-1.78.09-2.67l12.69-8.55.59-.19-.15-.26-.5.38c-1.18.42-2.39.77-3.54,1.26-3.06,1.31-6.1,2.68-9.14,4v-15.9H134.15v33.3h27.61v5.5c-4.41,2.89-8.95,5.62-13.22,8.71-10.42,7.55-20.71,15.26-31.06,22.91-12.37-5.32-21.09-14.34-26.43-26.57-6.51-14.89-7.43-30.47-4.38-46.21,4.2-21.64,16.85-36,38.21-42.3,8.83-2.6,17.89-2.88,27-2.5,11.79.5,23.23,2.45,34,7.5a5.46,5.46,0,0,0,1.12.26c2.87-11.5,5.7-22.87,8.58-34.44-2.64-1-5-2-7.51-2.76a142.2,142.2,0,0,0-71.35-3C97.29,39,80.18,47.82,66.54,62.61c-14.73,16-21.87,35.17-23.88,56.52C42.39,122,42.07,124.92,41.78,127.82ZM375,33.85V222.16H489.82V187.25H415.75V142.59h66.13V107.81H415.74v-39H486V33.85Zm-141.35,0V222.21H274.4V146.56h64.65V111.73H274.61v-43h69.11V33.87Z"/><path class="c" d="M518.23,221.73a9.07,9.07,0,0,1-.49-2.06q0-90.94,0-181.89c0-.44,0-.88.08-1.65,4.55-.59,9.09-1.28,13.66-1.75a359.77,359.77,0,0,1,51.37-1.76c13,.5,25.8,2.24,37.65,8.28,10.57,5.37,18.83,12.87,22.66,24.36,7,20.88-.37,42.61-23.86,53.55-1.13.53-2.28,1-3.83,1.71,17.52,5.22,29.59,15.64,34.91,33.73,3.41-9,6.64-17.46,10-26.41,2,5.74,3.79,11,5.57,16.32,2.57,7.6,5.18,15.2,7.63,22.85.61,1.89,1.48,2.42,3.45,2.4,13.06-.1,26.12,0,39.18,0h3l-21.34,16.35c5.2,1.16,9.86,2.4,14.59,3.19,8.65,1.43,17.36,2,26-.25,6.85-1.79,12.58-5.17,15.25-12.18,3.18-8.33.43-16.75-7.27-22.44-6.29-4.66-13.53-7.44-20.79-10.14-12.28-4.58-23.87-10.3-33.88-19C668,104.29,671,69.94,688.53,51.43c10.09-10.64,22.72-16.33,36.92-18.9,3.87-.7,7.83-.93,11.75-1.4a3.08,3.08,0,0,0,.91-.41h10.75c2.44.28,4.89.63,7.34.85a94.59,94.59,0,0,1,31.4,8.09c.53.25,1,.53,1.7.87-3,11.4-6.07,22.73-9.13,34.18a82,82,0,0,0-28-8.41c-7.75-.86-15.5-1.18-23,1.6-6.75,2.52-11.77,6.76-12.66,14.43-.7,6.16,1.51,11.39,6.58,14.74a135.57,135.57,0,0,0,16.77,9.19c8.46,4,17.34,7.15,25.66,11.42,10.77,5.54,19.89,13.19,25.47,24.28,11.28,22.41,7.37,59.77-26.87,75.36-1.69.77-3.39,1.5-5.09,2.25a64.71,64.71,0,0,0-16.85-13.45c-14-7.68-29.29-11.37-44.94-14-4.53-.75-8.38-.68-11.73,2.9-.94,1-1.34,1.67-.9,3,1.46,4.53,2.84,9.08,4.11,13.66a3.22,3.22,0,0,0,2.57,2.57c8.72,2.55,17.2,5.71,25,10.56l-24.56-3.41c1.1,3.71,2.24,7.76,3.54,11.77a2.25,2.25,0,0,0,1.67,1.26c11,.05,21.91,0,32.87,0l35.82.1a4.39,4.39,0,0,0,.86-.18c.89.05,1.78.15,2.66.15h43.27v5.67h-77.1c-.89,0-1.79-.07-2.68-.07H89.19c-.89,0-1.78,0-2.68.07H49.94v-5.67c5,0,9.86,0,14.75,0,2.89,0,5.78-.12,8.67-.18l15.87.12c.82,0,1.64.07,2.46.07H481c.9,0,1.79,0,2.69-.06l1.84,0,2.23,0,1.79,0c.52,0,1,0,1.56,0q65.82,0,131.63.05c2.11,0,3.06-.5,3.64-2.66,2.21-8.18,4.65-16.29,7-24.43,1-3.18,2-6.36,3-9.55.13-.46.17-1.28-.07-1.45-1.83-1.25-3.18-3.37-6-2.85-4.75.88-9.56,1.46-14.32,2.32a643.62,643.62,0,0,0-83.16,21.15C528,218.69,523.11,220.2,518.23,221.73Zm90.37-53.12c.7-8.19-1.05-15.23-7.05-20.8a30.12,30.12,0,0,0-12.08-6.51c-10.11-3.06-20.52-2.23-30.86-2.23-.11,0-.22.16-.29.21v52.83c1.47.11,2.8.24,4.12.29,8.57.38,17.15.76,25.55-1.51s15-6.4,18.68-14.56c.53-1.17.43-1.82-.63-2.57-2.23-1.55-4.36-3.24-6.9-5.15Zm-50.34-59.74c8-.41,15.78-.46,23.46-1.32,6.93-.76,13.32-3.34,18-8.85C609.67,87.11,604,69.61,589,65.23c-6.76-2-13.69-2-20.63-1.56-3.39.21-6.77.55-10.13.82Zm62.36,66c1.16.9,1.92,1.49,2.69,2.07,6.45,4.82,12.87,9.68,19.38,14.42,1.7,1.24,2.44,2.28,1.57,4.52-1.32,3.39-2.14,7-3.16,10.47l-4.22,14.45c1.2-.8,1.94-1.27,2.66-1.78,6.53-4.57,13.08-9.12,19.56-13.75a2.2,2.2,0,0,1,3.09,0c3.21,2.43,6.51,4.72,9.79,7.06,4,2.88,8.06,5.76,12.51,8.93-.25-.87-.33-1.21-.44-1.55q-3.36-11.22-6.74-22.45c-1.32-4.4-1.32-4.4,2.26-7.18,1.06-.82,2.13-1.63,3.2-2.44L699,175.23H669.74L660.5,148c-3.25,8.56-6.35,16.54-9.25,24.58-.69,1.92-1.63,2.35-3.55,2.32C638.84,174.78,630,174.84,620.62,174.84Zm40,38.79c-9.81,6.89-19.49,13.68-29.62,20.77h58.64Z"/><path class="c" d="M201.52,133.71c0,.89-.09,1.78-.09,2.67q0,37.35,0,74.7v2.76c-33.85,10.78-67.93,15-102.69,4.37L88.59,214a77,77,0,0,1-34.51-33.23c-7.64-14.24-11.18-29.56-11.87-45.62a11.91,11.91,0,0,0-.43-2v-5.37c.29-2.9.61-5.79.88-8.69,2-21.35,9.15-40.57,23.88-56.52C80.18,47.82,97.29,39,116.76,34.86a142.2,142.2,0,0,1,71.35,3c2.48.74,4.87,1.78,7.51,2.76-2.88,11.57-5.71,22.94-8.58,34.44a5.46,5.46,0,0,1-1.12-.26c-10.78-5-22.22-7-34-7.5-9.14-.38-18.2-.1-27,2.5-21.36,6.28-34,20.66-38.21,42.3-3,15.74-2.13,31.32,4.38,46.21,5.34,12.23,14.06,21.25,26.43,26.57l8.8,2.88c4.32.66,8.63,1.65,13,1.9a66.9,66.9,0,0,0,20.85-1.76c.95-.25,1.79-.4,1.78-1.79-.09-8.57-.09-17.14-.12-25.71q0-3.57,0-7.14v-5.5H134.15v-33.3h67.32v15.9C201.49,131.48,201.5,132.59,201.52,133.71Z"/><path class="c" d="M60.88,288.64H49.94v-5.71h9.43l30.63,0c.82,0,1.63.11,2.45.11H724.08c.89,0,1.78-.07,2.68-.1h19c5.06,0,10.13.08,15.2.09h51.49v5.52H743.15c-.9,0-1.79.07-2.68.1l-17.93-.06H722c-.89,0-1.79,0-2.68,0H340.69c-1,0-1.94.06-2.91.1l-6.25-.06h-1.41c-.59,0-1.19,0-1.78,0H97.79c-.6,0-1.2,0-1.79,0l-.7,0Z"/><path class="d" d="M60.88,288.64l34.42-.08.58.7c3.55,2.7,6.87,5.77,10.67,8.05,20.84,12.5,43.7,18.05,67.78,18.83,8.62.28,17.27,0,25.89-.37s17.35-.71,25.92-1.86c14.33-1.92,28.67-4,42.83-6.87a356.32,356.32,0,0,0,61.3-18l1.26-.44,6.25.06c-7.71,3.08-15.35,6.36-23.15,9.2-9.1,3.32-18.28,6.5-27.54,9.32-19.28,5.89-38.55,11.82-58,17.09-9.77,2.65-19.88,4.11-29.9,5.71-7.08,1.13-14.27,1.69-21.42,2.33-5.16.46-10.35.62-15.52.93-2.36.13-4.73.42-7.09.42a195.55,195.55,0,0,1-32.23-2.81,113.46,113.46,0,0,1-31-9.4c-12.75-6.16-23.25-14.75-29.25-28C62,291.9,61.46,290.25,60.88,288.64Z"/><path class="e" d="M716.24,224.86c-7.75-4.85-16.23-8-25-10.56a3.22,3.22,0,0,1-2.57-2.57c-1.27-4.58-2.65-9.13-4.11-13.66-.44-1.35,0-2,.9-3,3.35-3.58,7.2-3.65,11.73-2.9,15.65,2.6,30.9,6.29,44.94,14A64.71,64.71,0,0,1,759,219.57c2.94,4.11,5.62,8.37,7,13.3.14.5.25,1,.37,1.51a4.39,4.39,0,0,1-.86.18l-35.82-.09Z"/><path class="f" d="M722.54,288.58l17.93.06c-10.47,11.34-22.64,20.64-35,29.81-21.55,16-44.93,28.7-69.49,39.31-9.22,4-18.64,7.5-28,11.2a9.14,9.14,0,0,1-2.57.48c26.93-12.94,52.4-28.37,77.35-44.64a165.43,165.43,0,0,0,38.48-34.49,13.87,13.87,0,0,0,.87-1.29C722.28,288.88,722.41,288.73,722.54,288.58Z"/><path class="g" d="M90,282.91l-30.63,0q0-5.83,0-11.68c5.1,3.21,10.6,2.86,16.2,1.9,2.09-.36,3.06-1.16,2.84-3.48-.24-2.58,0-5.2,0-7.81v-3.64h-10v4.83h3.78v5.52c-3.62.58-6.86.31-9.24-2.67-2.87-3.6-2-7.43-.13-11,1.5-2.94,4.53-3.38,7.5-3.27,2,.07,3.91.49,6,.77l1.12-4.63c-3.6-1.62-7.18-1.38-10.74-1.29q1.53-3.14,3-6.26H86.51a41.21,41.21,0,0,0-2,5.9c-.82,4.55-1.36,9.16-2,13.75l0-.05-.39,1.55c-.23,3.07-.25,6.1,1.57,8.8C84.64,275,87.27,279,90,282.91Z"/><path class="d" d="M735.27,240.21h27.84l2.94.66a39.24,39.24,0,0,1-2.92,13.36l-5.34-.28v12.38l-4.44,6.48H753l-.65-4.05c-8.22.95-10.25.37-10.51-3.05h11.94c1.77-6.35-2.13-12-8.17-12.14a9.91,9.91,0,0,0-8.41,4.22C737.45,251.83,737.48,245.9,735.27,240.21Z"/><path class="c" d="M757.79,266.33V254l5.34.28v1.45c2-.71,4-1.74,6-2,2.28-.33,4.15.92,5.39,2.93a22.17,22.17,0,0,1,2.79-2.13c4.52-2.49,9.2.08,10,5.42a13.46,13.46,0,0,1,.08,2c0,3.86,0,7.71,0,11.66h-5.91c0-3.2,0-6.31,0-9.42a18.54,18.54,0,0,0-.23-2.88c-.26-1.53-1-2.77-2.75-2.62a2.84,2.84,0,0,0-2.73,3c-.11,3.06-.06,6.11-.08,9.17v2.73h-6c0-3,0-5.93,0-8.89,0-1,0-2.09-.14-3.12-.14-1.67-.88-3-2.72-2.87a2.91,2.91,0,0,0-2.76,3.21c0,3.35,0,6.7,0,10.06,0,.5,0,1-.08,1.62h-6.14Z"/><path class="c" d="M66.56,246.47c3.56-.09,7.14-.33,10.74,1.29l-1.12,4.63c-2.08-.28-4-.7-6-.77-3-.11-6,.33-7.5,3.27-1.83,3.58-2.74,7.41.13,11,2.38,3,5.62,3.25,9.24,2.67v-5.52H68.28v-4.83h10v3.64c0,2.61-.19,5.23,0,7.81.22,2.32-.75,3.12-2.84,3.48-5.6,1-11.1,1.31-16.2-1.9-6.86-5.44-6-16.9-.44-21.06C61.12,248.52,64,247.68,66.56,246.47Z"/><path class="h" d="M88.59,214l10.14,4.17c-2.9,4.73-5.81,9.46-8.68,14.22a13,13,0,0,0-.82,2l-15.87-.12c4.18-5.68,8.34-11.38,12.54-17C86.73,216.17,87.69,215.13,88.59,214Z"/><path class="e" d="M745.74,282.93h-19l4.62-8.84,0,.05.45-.3c2.19-.35.92-2.19,1.41-3.27l2.25-5.17c1.78,6.14,4.37,8.48,9.95,8.51a58,58,0,0,0,7.26-.89c.09.11.19.21.29.32Z"/><path class="c" d="M804.28,258.65c-1.82-.24-3.42-.55-5-.6a1.87,1.87,0,0,0-1.44,1.07,1.9,1.9,0,0,0,.9,1.53c1.22.68,2.59,1.1,3.86,1.7a5.57,5.57,0,0,1,3.53,5.67,5.7,5.7,0,0,1-4.37,5.31,14.92,14.92,0,0,1-10.45-.65c.34-1.45.67-2.86,1-4.25a33.88,33.88,0,0,0,5.26,1.14c.81.06,1.67-.82,2.51-1.28a9.49,9.49,0,0,0-1.75-2c-1.26-.76-2.79-1.09-4-1.9a5.44,5.44,0,0,1-.1-9.19c3.52-2.44,7.25-2,11.1-.54C804.92,256.16,804.59,257.44,804.28,258.65Z"/><path class="e" d="M753,272.8h.38l-.39.52c-.1-.11-.2-.21-.29-.32A.35.35,0,0,1,753,272.8Z"/><path class="i" d="M722.54,288.58c-.13.15-.26.3-.4.44-.06-.14-.12-.29-.19-.43Z"/><path class="c" d="M375,33.85H486V68.77H415.74v39h66.14v34.78H415.75v44.66h74.07v34.91H375Z"/><path class="c" d="M233.64,33.87H343.72V68.76H274.61v43h64.44v34.83H274.4v75.65H233.64Z"/><path class="g" d="M518.23,221.73c4.88-1.53,9.78-3,14.65-4.61A643.62,643.62,0,0,1,616,196c4.76-.86,9.57-1.44,14.32-2.32,2.78-.52,4.13,1.6,6,2.85.24.17.2,1,.07,1.45-.95,3.19-2,6.37-3,9.55l-1,0c-8.33.47-16.68.67-25,1.46a475.27,475.27,0,0,0-56.86,9.24c-6.67,1.47-13.29,3.19-19.94,4.8-.87.15-1.77.24-2.62.47q-19.25,5.22-38.48,10.49l-1.79.48-2.23,0c0-.15-.07-.3-.11-.45q14.75-5.46,29.49-10.92C516.06,222.68,517.14,222.19,518.23,221.73Z"/><path class="f" d="M126.28,187.77l-8.8-2.88c10.35-7.65,20.64-15.36,31.06-22.91,4.27-3.09,8.81-5.82,13.22-8.71q0,3.57,0,7.14c-9.93,7.17-19.9,14.28-29.73,21.57C129.88,183.59,128.19,185.83,126.28,187.77Z"/><path class="j" d="M201.52,133.71c0-1.12,0-2.23-.05-3.34,3-1.34,6.08-2.71,9.14-4,1.15-.49,2.36-.84,3.54-1.26l.06.07Z"/><path class="h" d="M485.46,234c0,.15.07.3.11.45l-1.84,0Z"/><path class="j" d="M214.15,125.09l.5-.38.15.26-.59.19Z"/><path class="k" d="M731.38,274.08l-4.62,8.84c-.9,0-1.79.1-2.68.1H92.45c-.82,0-1.63-.07-2.45-.11-2.73-3.93-5.36-7.91-6.26-12.75,3.7,4.06,11,5.16,15.8,2.34l-.72-3.63c-9.65.26-10.08.14-10.69-3.21h12.23c1.42-8.39-4-13.77-11.52-11.66-3.14.88-4.81,3.26-6.31,5.86.66-4.59,1.2-9.2,2-13.75a41.21,41.21,0,0,1,2-5.9c.9,0,1.79-.07,2.68-.07h643.4c.89,0,1.79.05,2.68.07,2.21,5.69,2.18,11.62,1.9,17.57l-1.71,7.61-2.25,5.17c-.08-.56-.16-1.12-.23-1.65-3.78-.13-4.12-.47-4.19-4.17,0-2,0-4,0-6.08l4.29-.19v-4.56h-4.38V248.5l-5.91,1.37v4l-2.47.21v4.33l2.57.25v8.15c0,5.08,2,7,7,7.07C730.36,273.94,730.87,274,731.38,274.08Zm-232.81-.76c3.83.87,11.41.57,14.48-.52,3.36-1.2,5.35-3.67,5.39-6.9a6.49,6.49,0,0,0-4.4-6.57c1.07-1.51,2.67-2.94,3.22-4.7,1.15-3.68-1.51-7.22-6-7.68-4.16-.42-8.39-.09-12.71-.09ZM284.91,255.17c-7.08-4.1-12.73.53-13.74,6.27-.81,4.64.69,9.47,4.05,11.28a9.74,9.74,0,0,0,5.28,1.1c1.7-.17,3.31-1.34,5-2.09.11.44.28,1.14.43,1.76h5.14V245.42h-6.15Zm121.8,17.08c5.56,3.31,11.22,1.41,13.19-4.17a12.82,12.82,0,0,0-.16-9.38c-1.59-3.87-5.34-5.92-9.19-4.86A28.71,28.71,0,0,0,406,256c-.1-.6-.2-1.27-.31-1.92h-5v27.18h6Zm-101.9-25.4v26.62h16.76v-5.13H311v-6.11h9.6v-5.07H311v-5.42h10.09v-4.89Zm374.75.72c-4.21-1.54-8.21-1.88-12.2-.31a7.23,7.23,0,0,0-4.91,6.34,6.84,6.84,0,0,0,3.76,7c1.74,1,3.66,1.63,5.47,2.48,1.46.69,2.88,1.52,2.44,3.49s-2.06,2.33-3.66,2.19c-2.38-.21-4.74-.73-7.26-1.14-.36,1.43-.74,3-1.17,4.69a17.66,17.66,0,0,0,13.13.72,7.42,7.42,0,0,0,5.39-6.95,7.16,7.16,0,0,0-4.2-7.26c-1.78-.91-3.67-1.59-5.48-2.44-1.23-.59-2.72-1.45-2-3a4.2,4.2,0,0,1,3-2,35.17,35.17,0,0,1,6.33.75C678.59,250.91,679,249.37,679.56,247.57Zm9.16,6.58h-6.85c2.3,5.79,4.43,11.4,6.79,16.91a3,3,0,0,1-1,4.06c-1.15.87-2.46,1.55-3.77,2.35l1.16,4.89c.76-.18,1.47-.31,2.16-.52a11.48,11.48,0,0,0,7.32-7c2.45-5.88,4.61-11.89,6.87-17.85.35-.92.64-1.86,1-2.85H695.8c-1,4.14-2.06,8.2-3.21,12.76ZM332,273.55v-9.73c0-3.42,1.09-5.19,3.22-5.24s3,1.6,3,5.27v9.64h5.85c0-4.9.47-9.71-.12-14.38-.65-5.17-6.55-7.21-10.87-4.2-.54.37-1,.83-1.66,1.34l-.51-2.08h-5v19.38ZM534.8,254.11V256c0,3.2.05,6.41,0,9.61a3.06,3.06,0,0,1-2.94,3.33c-2,.17-2.79-1.13-3-2.87a24.86,24.86,0,0,1-.2-3.11c0-2.95,0-5.9,0-8.83h-5.94c0,4.74-.25,9.36.07,13.94a6.13,6.13,0,0,0,7.65,5.83,28.25,28.25,0,0,0,5.18-2.2c.07.49.16,1.12.25,1.8H541V254.11Zm-297.41,0v1.39c0,3.28,0,6.56,0,9.84,0,2.15-1.37,3.65-3.15,3.62-2.14,0-2.68-1.58-2.94-3.29a19.85,19.85,0,0,1-.08-2.68v-8.82H225c0,4.19-.12,8.21,0,12.22.18,5.24,3.42,8.4,7.8,7.55,1.8-.35,3.46-1.4,5.25-2.15l.4,1.67h5V254.11ZM267,273.54c0-4.66.19-9.2-.06-13.71a6.35,6.35,0,0,0-5.28-6.12c-2.92-.59-5.35.49-7.48,2.53l-.54-2.12h-5v19.36h6.06V270c0-2.76-.05-5.52.09-8.26a3,3,0,0,1,3.15-3.13c1.86,0,2.75,1.27,2.88,3.06.07,1,.11,1.93.12,2.89,0,3,0,5.93,0,9ZM205.4,246.85v26.62h6.13v-10.7h9.33v-5h-9.32v-6.07H221.6v-4.88Zm369.26,7.22v19.4h6.13c0-.59.07-1,.07-1.47,0-3.27,0-6.55,0-9.83a3.31,3.31,0,0,1,3-3.57c1.67-.25,2.9,1.09,3.17,3.33a23.93,23.93,0,0,1,0,2.68v8.88h6.12c0-4.23.09-8.32,0-12.4-.09-3-1-5.66-4-6.91a7.39,7.39,0,0,0-8.43,1.72c-.13.13-.39.12-.61.18-.09-.7-.17-1.34-.26-2ZM122.81,273.52c0-4.7.17-9.3-.06-13.88a6.13,6.13,0,0,0-5-5.84c-3-.74-5.51.32-7.75,2.54l-.46-2.21h-5.09v19.36h6.21v-9.92c0-3.31,1-4.95,3.13-5s3,1.48,3,5.08v9.87Zm51.5-13.14a34.36,34.36,0,0,0-4.39.52,14.31,14.31,0,0,0-3.91,1.52,6.34,6.34,0,0,0-2.72,7.74,6.2,6.2,0,0,0,7.07,3.76,30.11,30.11,0,0,0,4.45-1.64c1.33,2.83,3.84.67,5.72,1.41,0-4.42.09-8.5,0-12.59s-2.29-6.7-6.41-7.28a20.59,20.59,0,0,0-6,.21c-4,.63-4.18,1.08-2.73,4.85a1.09,1.09,0,0,0,.24.29C170.88,257.12,173.35,257.41,174.31,260.38Zm-30.66,8.41c-8.34.84-10,.37-10.61-3.1h12.12c.91-5-.74-9.37-4.09-11.14a9.76,9.76,0,0,0-13,4.23c-2.68,5.4-.94,11.89,3.89,14.07,4.09,1.85,8.21,1.23,12.45,0Zm471.66-3.06c1.37-4.43-.57-9.5-4.22-11.28a9.75,9.75,0,0,0-12.45,3.78c-2.75,4.78-1.78,11.29,2.26,13.89,4.38,2.82,9,2,13.82.76-.34-1.61-.61-2.88-.87-4.13-8.14,1-10.09.41-10.5-3Zm-246.59-.09h12.44c.09-.72.19-1.3.22-1.89.23-4.28-1.62-7.88-4.77-9.34a9.72,9.72,0,0,0-12.4,3.94c-2.67,4.76-1.64,11.32,2.46,13.85,4.39,2.71,9,2,13.69.55-.31-1.49-.57-2.71-.82-3.91C370.72,269.4,369.87,269.17,368.72,265.64Zm117.23.11a32.49,32.49,0,0,0-.05-5.06,8.08,8.08,0,0,0-4.07-6.09,9.77,9.77,0,0,0-12.91,3.91c-2.76,5.13-1.32,11.86,3.23,14.13,4.24,2.11,8.59,1.56,13,.1l-.91-4c-7.66,1.13-9.9.49-10.59-3Zm60,2.74c-.31,1.22-.67,2.67-1,4.19a14.91,14.91,0,0,0,10.94.5,5.82,5.82,0,0,0,.5-10.76c-1.2-.57-2.53-.93-3.66-1.6-.58-.35-.85-1.19-1.26-1.8.59-.35,1.2-1,1.79-1a43.81,43.81,0,0,1,4.68.66c.31-1.23.65-2.57,1-4-3.5-1.27-6.82-1.66-10.12-.06a5.73,5.73,0,0,0-3.4,5.37,5.11,5.11,0,0,0,3.07,4.8c1.19.61,2.51,1,3.64,1.65a7.73,7.73,0,0,1,1.59,1.84c-.75.46-1.53,1.36-2.25,1.32A39.94,39.94,0,0,1,545.91,268.49Zm-185.76.35c-1.6-.07-3.72.51-3.9-1.84-.22-2.78-.05-5.58-.05-8.51h4.1V254h-4.25v-5.57c-2.07.52-4.1.61-5.55,1.58-.74.49-.45,2.55-.62,3.91l-2.23.21v4.33l2.63.31c0,3.47-.18,6.89.06,10.29.19,2.89,2.08,4.56,5,4.82,1.59.13,3.19,0,4.85,0Zm103.89-14c-4-1.67-7.68-1.64-10.49,0-4,2.33-4.1,7.44-.18,9.82,1.19.72,2.63,1,3.83,1.75a8,8,0,0,1,1.64,1.82c-.75.48-1.53,1.4-2.24,1.36a42.45,42.45,0,0,1-5.55-1.1c-.3,1.26-.64,2.67-1,4.19a14.86,14.86,0,0,0,10.37.68c2.87-.88,4.37-2.83,4.46-5.47.09-2.82-1.44-4.6-3.86-5.72-1.07-.5-2.26-.79-3.28-1.37-.54-.32-.85-1.06-1.26-1.61.63-.4,1.27-1.15,1.9-1.14a34.1,34.1,0,0,1,4.63.65C463.32,257.49,463.66,256.21,464,254.81ZM618.4,272.64a14.64,14.64,0,0,0,11,.53,5.8,5.8,0,0,0,.49-10.75,27.92,27.92,0,0,1-3.06-1.32,11,11,0,0,1-1.9-2.06,8.34,8.34,0,0,1,2.69-1,18.38,18.38,0,0,1,3.78.74c.33-1.29.68-2.63,1.06-4.09-3.67-1.37-7.2-1.78-10.62.22a5.53,5.53,0,0,0-.12,9.7c1.19.73,2.64,1,3.83,1.76a8.21,8.21,0,0,1,1.67,2c-.79.44-1.6,1.28-2.35,1.22a38.87,38.87,0,0,1-5.38-1.12Zm98.92-17.95c-3.62-1.35-7.09-1.78-10.44.15a5.54,5.54,0,0,0,0,9.93c1.15.65,2.5,1,3.64,1.64a8.12,8.12,0,0,1,1.65,1.79c-.74.49-1.51,1.42-2.22,1.37a41.19,41.19,0,0,1-5.58-1.06,11,11,0,0,0-.66,2.81c0,.65.67,1.82,1.09,1.84a45.73,45.73,0,0,0,9.21,0c2.53-.38,4-2.48,4.15-5.15a5.43,5.43,0,0,0-3.28-5.58c-1.27-.62-2.65-1-3.86-1.7-.53-.3-.78-1.08-1.16-1.65.57-.37,1.16-1.08,1.72-1.06a40.44,40.44,0,0,1,4.76.64Zm-67.38,0c-3.67-1.34-7.2-1.79-10.61.24a5.52,5.52,0,0,0-.11,9.7c1.12.7,2.52.95,3.63,1.65a9.81,9.81,0,0,1,1.87,2.11c-.86.42-1.75,1.26-2.57,1.2a33.47,33.47,0,0,1-5.18-1.13c-.34,1.37-.68,2.71-1,4.16a14.33,14.33,0,0,0,10.31.76,5.78,5.78,0,0,0,4.55-5.41c.14-2.59-1.24-4.64-4-5.86a14.3,14.3,0,0,1-2.47-1,12.21,12.21,0,0,1-1.9-2.08,8.64,8.64,0,0,1,2.69-1,18.34,18.34,0,0,1,3.77.75C649.22,257.51,649.56,256.16,649.94,254.68ZM191.62,273.57V245.41h-6v28.16Zm199.78,0c0-3.64-.11-7.06,0-10.46a3.58,3.58,0,0,1,3.64-3.73c.66-.05,1.32,0,2.08,0v-5.62c-3-.64-4.8.95-6.53,3.14-.14-1.11-.25-1.9-.36-2.76h-5v19.44Zm39.45,0c0-3.56,0-6.9,0-10.24,0-2.49,1.38-3.83,3.86-4,.58,0,1.16,0,1.83,0v-5.65c-3-.56-4.86,1-6.48,3.31-.15-1.15-.27-2-.39-2.89h-5v19.44ZM149.36,254.05V273.5h6.09c0-3.45,0-6.78,0-10.1.05-2.58,1.49-3.95,4-4.06.56,0,1.13,0,1.71,0v-5.66c-3-.46-4.88.95-6.5,3.39l-.38-3Zm414.28,0v19.37h5.92V254.1ZM446,273.53V254.17h-6.08v19.36Zm-2.94-28a3.1,3.1,0,1,0-.15,6.2,3.11,3.11,0,1,0,.15-6.2Zm120.31,2.9a2.94,2.94,0,0,0,3.05,3.3,3.1,3.1,0,1,0,.43-6.19A3,3,0,0,0,563.39,248.47Z"/><path class="b" d="M608.6,168.61h-9.46c2.54,1.91,4.67,3.6,6.9,5.15,1.06.75,1.16,1.4.63,2.57-3.66,8.16-10.43,12.34-18.68,14.56s-17,1.89-25.55,1.51c-1.32-.05-2.65-.18-4.12-.29V139.28c.07-.05.18-.21.29-.21,10.34,0,20.75-.83,30.86,2.23a30.12,30.12,0,0,1,12.08,6.51C607.55,153.38,609.3,160.42,608.6,168.61Z"/><path class="b" d="M558.26,108.87V64.49c3.36-.27,6.74-.61,10.13-.82,6.94-.43,13.87-.41,20.63,1.56,15,4.38,20.65,21.88,10.74,33.47-4.72,5.51-11.11,8.09-18,8.85C574,108.41,566.27,108.46,558.26,108.87Z"/><path class="b" d="M632.47,207.54l1,0c-2.36,8.14-4.8,16.25-7,24.43-.58,2.16-1.53,2.66-3.64,2.66q-65.82-.1-131.63-.05c-.52,0-1,0-1.56,0V234q19.23-5.25,38.48-10.49c.85-.23,1.75-.32,2.62-.47a344.85,344.85,0,0,0,42.64,1.05c13.13-.53,26.14-1.92,38.73-5.92C619.46,215.82,626.52,212.73,632.47,207.54Z"/><path class="l" d="M620.62,174.84c9.36,0,18.22-.06,27.08.06,1.92,0,2.86-.4,3.55-2.32,2.9-8,6-16,9.25-24.58l9.24,27.23H699l-16.18,12.4c-1.07.81-2.14,1.62-3.2,2.44-3.58,2.78-3.58,2.78-2.26,7.18q3.38,11.24,6.74,22.45c.11.34.19.68.44,1.55C680,218.08,676,215.2,672,212.32c-3.28-2.34-6.58-4.63-9.79-7.06a2.2,2.2,0,0,0-3.09,0c-6.48,4.63-13,9.18-19.56,13.75-.72.51-1.46,1-2.66,1.78l4.22-14.45c1-3.5,1.84-7.08,3.16-10.47.87-2.24.13-3.28-1.57-4.52-6.51-4.74-12.93-9.6-19.38-14.42C622.54,176.33,621.78,175.74,620.62,174.84Zm53.84,32.72.18,0s.05,0,.08,0l-.29.06a11.24,11.24,0,0,0-.18-2.1c-1-3.5-2.06-7-3.11-10.47-1.28-4.24-1.29-4.23,2.27-6.94,3.1-2.37,6.18-4.75,9.78-7.52-1.4-.07-2.11-.13-2.82-.14-4,0-7.91-.11-11.85,0-1.94.07-2.9-.42-3.47-2.4-1.18-4.07-2.66-8.05-4-12.06-.19-.56-.48-1.08-.91-2-1.33,3.53-2.46,6.59-3.65,9.64-.83,2.14-1.17,5.12-2.75,6.14s-4.6.31-7,.33H636.5c4.72,3.53,8.79,6.66,13,9.65a2.49,2.49,0,0,1,1.12,3.3c-1.5,4.72-2.83,9.5-4.36,14.71l14.41-10.06c.42.28.68.44.92.61Z"/><path class="m" d="M660.61,213.63l29,20.77H631C641.12,227.31,650.8,220.52,660.61,213.63Z"/><path class="k" d="M716.24,224.86l13.52,9.61c-11,0-21.92.06-32.87,0a2.25,2.25,0,0,1-1.67-1.26c-1.3-4-2.44-8.06-3.54-11.77Z"/><path class="h" d="M489.59,234v.5l-1.79,0Z"/><path class="b" d="M126.28,187.77c1.91-1.94,3.6-4.18,5.76-5.79,9.83-7.29,19.8-14.4,29.73-21.57,0,8.57,0,17.14.12,25.71,0,1.39-.83,1.54-1.78,1.79a66.9,66.9,0,0,1-20.85,1.76C134.91,189.42,130.6,188.43,126.28,187.77Z"/><path class="a" d="M330.27,289A356.32,356.32,0,0,1,269,307c-14.16,2.88-28.5,4.95-42.83,6.87-8.57,1.15-17.27,1.49-25.92,1.86s-17.27.65-25.89.37c-24.08-.78-46.94-6.33-67.78-18.83-3.8-2.28-7.12-5.35-10.67-8.05l.12-.67c.59,0,1.19,0,1.79,0H328.34c.59,0,1.19,0,1.78,0Z"/><path class="i" d="M330.27,289l-.15-.43h1.41Z"/><path class="i" d="M96,288.59l-.12.67-.58-.7Z"/><path class="c" d="M82.53,259.86c1.5-2.6,3.17-5,6.31-5.86,7.52-2.11,12.94,3.27,11.52,11.66H88.13c.61,3.35,1,3.47,10.69,3.21l.72,3.63c-4.83,2.82-12.1,1.72-15.8-2.34-1.82-2.7-1.8-5.73-1.57-8.8l.39-1.55Zm12.28,1.6c-.28-2.53-1.42-3.82-3.27-3.79s-3.2,1.49-3.38,3.79Z"/><path class="k" d="M82.56,259.81l-.39,1.55Z"/><path class="c" d="M735.46,265.39l1.71-7.61a9.91,9.91,0,0,1,8.41-4.22c6,.11,9.94,5.79,8.17,12.14H741.81c.26,3.42,2.29,4,10.51,3.05l.65,4.05a.35.35,0,0,0-.3.21,58,58,0,0,1-7.26.89C739.83,273.87,737.24,271.53,735.46,265.39Zm12.89-3.92c-.45-2.71-1.59-3.89-3.45-3.78s-3.12,1.55-3.08,3.78Z"/><path class="c" d="M731.38,274.08c-.51-.05-1-.14-1.53-.15-5,0-7-2-7-7.07v-8.15l-2.57-.25v-4.33l2.47-.21v-4l5.91-1.37v5.41h4.38v4.56l-4.29.19c0,2.1,0,4.09,0,6.08.07,3.7.41,4,4.19,4.17.07.53.15,1.09.23,1.65-.49,1.08.78,2.92-1.41,3.27l-.45.3Z"/><path class="k" d="M731.35,274.13l.45-.3Z"/><path class="c" d="M632.47,207.54c-6,5.19-13,8.28-20.41,10.63-12.59,4-25.6,5.39-38.73,5.92A344.85,344.85,0,0,1,530.69,223c6.65-1.61,13.27-3.33,19.94-4.8A475.27,475.27,0,0,1,607.49,209C615.79,208.21,624.14,208,632.47,207.54Z"/><path class="c" d="M498.57,273.32V246.86c4.32,0,8.55-.33,12.71.09,4.47.46,7.13,4,6,7.68-.55,1.76-2.15,3.19-3.22,4.7a6.49,6.49,0,0,1,4.4,6.57c0,3.23-2,5.7-5.39,6.9C510,273.89,502.4,274.19,498.57,273.32Zm6.12-4.17c2.5.1,5.15.62,6.68-1.87a4,4,0,0,0,.06-3.49c-1.51-2.44-4.16-2.1-6.74-2.09Zm-.05-11.92c2.5-.08,5,.54,6.33-2a3.23,3.23,0,0,0-.42-3c-1.64-1.64-3.79-1.52-5.91-1Z"/><path class="c" d="M284.91,255.17v-9.75h6.15v28.07h-5.14c-.15-.62-.32-1.32-.43-1.76-1.68.75-3.29,1.92-5,2.09a9.74,9.74,0,0,1-5.28-1.1c-3.36-1.81-4.86-6.64-4.05-11.28C272.18,255.7,277.83,251.07,284.91,255.17Zm0,8.47c0-.67.26-1.5-.05-2-.75-1.16-1.56-2.61-2.7-3.11-1.62-.7-3.24.12-4.05,1.83a8.22,8.22,0,0,0-.76,2.75c-.3,3.42,1.35,5.92,3.86,6S284.94,267.27,284.89,263.64Z"/><path class="c" d="M406.71,272.25v9h-6V254.09h5c.11.65.21,1.32.31,1.92a28.71,28.71,0,0,1,4.57-2.17c3.85-1.06,7.6,1,9.19,4.86a12.82,12.82,0,0,1,.16,9.38C417.93,273.66,412.27,275.56,406.71,272.25Zm.06-8.31c0,.74-.27,1.66.06,2.19.7,1.11,1.6,2.65,2.65,2.86a5.27,5.27,0,0,0,3.81-1.41c.74-.66,1-2.12,1.06-3.26.29-3.5-1.36-5.84-3.92-5.84S406.73,260.22,406.77,263.94Z"/><path class="c" d="M304.81,246.85h16.24v4.89H311v5.42h9.6v5.07H311v6.11h10.61v5.13H304.81Z"/><path class="c" d="M679.56,247.57c-.53,1.8-1,3.34-1.35,4.63a35.17,35.17,0,0,0-6.33-.75,4.2,4.2,0,0,0-3,2c-.7,1.5.79,2.36,2,3,1.81.85,3.7,1.53,5.48,2.44a7.16,7.16,0,0,1,4.2,7.26,7.42,7.42,0,0,1-5.39,6.95,17.66,17.66,0,0,1-13.13-.72c.43-1.71.81-3.26,1.17-4.69,2.52.41,4.88.93,7.26,1.14,1.6.14,3.23-.28,3.66-2.19s-1-2.8-2.44-3.49c-1.81-.85-3.73-1.5-5.47-2.48a6.84,6.84,0,0,1-3.76-7,7.23,7.23,0,0,1,4.91-6.34C671.35,245.69,675.35,246,679.56,247.57Z"/><path class="c" d="M688.72,254.15l3.87,12.72c1.15-4.56,2.17-8.62,3.21-12.76h6.56c-.33,1-.62,1.93-1,2.85-2.26,6-4.42,12-6.87,17.85a11.48,11.48,0,0,1-7.32,7c-.69.21-1.4.34-2.16.52l-1.16-4.89c1.31-.8,2.62-1.48,3.77-2.35a3,3,0,0,0,1-4.06c-2.36-5.51-4.49-11.12-6.79-16.91Z"/><path class="c" d="M332,273.55H326V254.17h5l.51,2.08c.64-.51,1.12-1,1.66-1.34,4.32-3,10.22-1,10.87,4.2.59,4.67.12,9.48.12,14.38h-5.85v-9.64c0-3.67-1-5.33-3-5.27S332,260.4,332,263.82Z"/><path class="c" d="M534.8,254.11H541V273.5h-5.12c-.09-.68-.18-1.31-.25-1.8a28.25,28.25,0,0,1-5.18,2.2,6.13,6.13,0,0,1-7.65-5.83c-.32-4.58-.07-9.2-.07-13.94h5.94c0,2.93,0,5.88,0,8.83a24.86,24.86,0,0,0,.2,3.11c.22,1.74,1,3,3,2.87a3.06,3.06,0,0,0,2.94-3.33c.07-3.2,0-6.41,0-9.61Z"/><path class="c" d="M237.39,254.11h6.1v19.35h-5l-.4-1.67c-1.79.75-3.45,1.8-5.25,2.15-4.38.85-7.62-2.31-7.8-7.55-.15-4,0-8,0-12.22h6.2V263a19.85,19.85,0,0,0,.08,2.68c.26,1.71.8,3.27,2.94,3.29,1.78,0,3.11-1.47,3.15-3.62.06-3.28,0-6.56,0-9.84Z"/><path class="c" d="M267,273.54h-6c0-3,0-6,0-9,0-1,0-1.93-.12-2.89-.13-1.79-1-3.07-2.88-3.06a3,3,0,0,0-3.15,3.13c-.14,2.74-.07,5.5-.09,8.26v3.47h-6.06V254.12h5l.54,2.12c2.13-2,4.56-3.12,7.48-2.53a6.35,6.35,0,0,1,5.28,6.12C267.17,264.34,267,268.88,267,273.54Z"/><path class="c" d="M205.4,246.85h16.2v4.88H211.54v6.07h9.32v5h-9.33v10.7H205.4Z"/><path class="c" d="M574.66,254.07h5.21c.09.67.17,1.31.26,2,.22-.06.48-.05.61-.18a7.39,7.39,0,0,1,8.43-1.72c3,1.25,4,3.95,4,6.91.12,4.08,0,8.17,0,12.4h-6.12v-8.88a23.93,23.93,0,0,0,0-2.68c-.27-2.24-1.5-3.58-3.17-3.33a3.31,3.31,0,0,0-3,3.57c0,3.28,0,6.56,0,9.83,0,.44,0,.88-.07,1.47h-6.13v-19.4Z"/><path class="c" d="M122.81,273.52h-6v-9.87c0-3.6-.9-5.12-3-5.08s-3.13,1.69-3.13,5v9.92h-6.21V254.13h5.09l.46,2.21c2.24-2.22,4.72-3.28,7.75-2.54a6.13,6.13,0,0,1,5,5.84C123,264.22,122.81,268.82,122.81,273.52Z"/><path class="c" d="M174.31,260.38c-1-3-3.43-3.26-8.67-1.21a1.09,1.09,0,0,1-.24-.29c-1.45-3.77-1.27-4.22,2.73-4.85a20.59,20.59,0,0,1,6-.21c4.12.58,6.3,3.12,6.41,7.28s0,8.17,0,12.59c-1.88-.74-4.39,1.42-5.72-1.41a30.11,30.11,0,0,1-4.45,1.64,6.2,6.2,0,0,1-7.07-3.76,6.34,6.34,0,0,1,2.72-7.74,14.31,14.31,0,0,1,3.91-1.52A34.36,34.36,0,0,1,174.31,260.38Zm-.08,3.75c-1.39.42-3,.54-4,1.33a3.09,3.09,0,0,0-.75,3,3.32,3.32,0,0,0,2.91,1C174.3,269,174.85,267.29,174.23,264.13Z"/><path class="c" d="M143.65,268.79l.77,4c-4.24,1.26-8.36,1.88-12.45,0-4.83-2.18-6.57-8.67-3.89-14.07a9.76,9.76,0,0,1,13-4.23c3.35,1.77,5,6.15,4.09,11.14H133C133.62,269.16,135.31,269.63,143.65,268.79Zm-4-7.32c-.21-2.53-1.27-3.77-3.19-3.81s-3.22,1.46-3.44,3.81Z"/><path class="c" d="M615.31,265.73h-12c.41,3.43,2.36,4,10.5,3,.26,1.25.53,2.52.87,4.13-4.81,1.23-9.44,2.06-13.82-.76-4-2.6-5-9.11-2.26-13.89a9.75,9.75,0,0,1,12.45-3.78C614.74,256.23,616.68,261.3,615.31,265.73ZM610,261.47c-.43-2.68-1.56-3.88-3.42-3.8s-3,1.38-3.34,3.8Z"/><path class="c" d="M368.72,265.64c1.15,3.53,2,3.76,10.82,3.2.25,1.2.51,2.42.82,3.91-4.66,1.47-9.3,2.16-13.69-.55-4.1-2.53-5.13-9.09-2.46-13.85a9.72,9.72,0,0,1,12.4-3.94c3.15,1.46,5,5.06,4.77,9.34,0,.59-.13,1.17-.22,1.89Zm6.79-4.17c-.3-2.6-1.41-3.83-3.2-3.8s-3.26,1.53-3.38,3.8Z"/><path class="c" d="M486,265.75h-12.3c.69,3.49,2.93,4.13,10.59,3l.91,4c-4.41,1.46-8.76,2-13-.1-4.55-2.27-6-9-3.23-14.13a9.77,9.77,0,0,1,12.91-3.91,8.08,8.08,0,0,1,4.07,6.09A32.49,32.49,0,0,1,486,265.75Zm-12.35-4.2h5.29c.43,0,.86-.06,1.28-.1,0-2.3-1-3.6-2.82-3.77S474,259,473.6,261.55Z"/><path class="c" d="M545.91,268.49a39.94,39.94,0,0,0,5.49,1.09c.72,0,1.5-.86,2.25-1.32a7.73,7.73,0,0,0-1.59-1.84c-1.13-.68-2.45-1-3.64-1.65a5.11,5.11,0,0,1-3.07-4.8,5.73,5.73,0,0,1,3.4-5.37c3.3-1.6,6.62-1.21,10.12.06-.36,1.46-.7,2.8-1,4a43.81,43.81,0,0,0-4.68-.66c-.59,0-1.2.64-1.79,1,.41.61.68,1.45,1.26,1.8,1.13.67,2.46,1,3.66,1.6a5.82,5.82,0,0,1-.5,10.76,14.91,14.91,0,0,1-10.94-.5C545.24,271.16,545.6,269.71,545.91,268.49Z"/><path class="c" d="M360.15,268.84v5.05c-1.66,0-3.26.11-4.85,0-2.88-.26-4.77-1.93-5-4.82-.24-3.4-.06-6.82-.06-10.29l-2.63-.31v-4.33l2.23-.21c.17-1.36-.12-3.42.62-3.91,1.45-1,3.48-1.06,5.55-1.58V254h4.25v4.5h-4.1c0,2.93-.17,5.73.05,8.51C356.43,269.35,358.55,268.77,360.15,268.84Z"/><path class="c" d="M464,254.81c-.38,1.4-.72,2.68-1,3.88a34.1,34.1,0,0,0-4.63-.65c-.63,0-1.27.74-1.9,1.14.41.55.72,1.29,1.26,1.61,1,.58,2.21.87,3.28,1.37,2.42,1.12,4,2.9,3.86,5.72-.09,2.64-1.59,4.59-4.46,5.47a14.86,14.86,0,0,1-10.37-.68c.36-1.52.7-2.93,1-4.19a42.45,42.45,0,0,0,5.55,1.1c.71,0,1.49-.88,2.24-1.36a8,8,0,0,0-1.64-1.82c-1.2-.71-2.64-1-3.83-1.75-3.92-2.38-3.79-7.49.18-9.82C456.36,253.17,460.09,253.14,464,254.81Z"/><path class="c" d="M618.4,272.64l1.05-4.18a38.87,38.87,0,0,0,5.38,1.12c.75.06,1.56-.78,2.35-1.22a8.21,8.21,0,0,0-1.67-2c-1.19-.73-2.64-1-3.83-1.76a5.53,5.53,0,0,1,.12-9.7c3.42-2,7-1.59,10.62-.22-.38,1.46-.73,2.8-1.06,4.09a18.38,18.38,0,0,0-3.78-.74,8.34,8.34,0,0,0-2.69,1,11,11,0,0,0,1.9,2.06,27.92,27.92,0,0,0,3.06,1.32,5.8,5.8,0,0,1-.49,10.75A14.64,14.64,0,0,1,618.4,272.64Z"/><path class="c" d="M717.32,254.69l-1,4a40.44,40.44,0,0,0-4.76-.64c-.56,0-1.15.69-1.72,1.06.38.57.63,1.35,1.16,1.65,1.21.69,2.59,1.08,3.86,1.7a5.43,5.43,0,0,1,3.28,5.58c-.15,2.67-1.62,4.77-4.15,5.15a45.73,45.73,0,0,1-9.21,0c-.42,0-1.07-1.19-1.09-1.84a11,11,0,0,1,.66-2.81,41.19,41.19,0,0,0,5.58,1.06c.71.05,1.48-.88,2.22-1.37a8.12,8.12,0,0,0-1.65-1.79c-1.14-.67-2.49-1-3.64-1.64a5.54,5.54,0,0,1,0-9.93C710.23,252.91,713.7,253.34,717.32,254.69Z"/><path class="c" d="M649.94,254.68c-.38,1.48-.72,2.83-1,4.11a18.34,18.34,0,0,0-3.77-.75,8.64,8.64,0,0,0-2.69,1,12.21,12.21,0,0,0,1.9,2.08,14.3,14.3,0,0,0,2.47,1c2.74,1.22,4.12,3.27,4,5.86a5.78,5.78,0,0,1-4.55,5.41,14.33,14.33,0,0,1-10.31-.76c.36-1.45.7-2.79,1-4.16a33.47,33.47,0,0,0,5.18,1.13c.82.06,1.71-.78,2.57-1.2a9.81,9.81,0,0,0-1.87-2.11c-1.11-.7-2.51-.95-3.63-1.65a5.52,5.52,0,0,1,.11-9.7C642.74,252.89,646.27,253.34,649.94,254.68Z"/><path class="c" d="M191.62,273.57h-6V245.41h6Z"/><path class="c" d="M391.4,273.56h-6.16V254.12h5c.11.86.22,1.65.36,2.76,1.73-2.19,3.57-3.78,6.53-3.14v5.62c-.76,0-1.42,0-2.08,0a3.58,3.58,0,0,0-3.64,3.73C391.29,266.5,391.4,269.92,391.4,273.56Z"/><path class="c" d="M430.85,273.57h-6.14V254.13h5c.12.87.24,1.74.39,2.89,1.62-2.35,3.49-3.87,6.48-3.31v5.65c-.67,0-1.25,0-1.83,0-2.48.14-3.83,1.48-3.86,4C430.82,266.67,430.85,270,430.85,273.57Z"/><path class="c" d="M149.36,254.05h5l.38,3c1.62-2.44,3.54-3.85,6.5-3.39v5.66c-.58,0-1.15,0-1.71,0-2.55.11-4,1.48-4,4.06-.07,3.32,0,6.65,0,10.1h-6.09Z"/><path class="c" d="M563.64,254.1h5.92v19.37h-5.92Z"/><path class="c" d="M446,273.53h-6.08V254.17H446Z"/><path class="c" d="M443.08,245.57a3.11,3.11,0,1,1-.15,6.2,3.1,3.1,0,1,1,.15-6.2Z"/><path class="c" d="M563.39,248.47a3,3,0,0,1,3.48-2.89,3.1,3.1,0,1,1-.43,6.19A2.94,2.94,0,0,1,563.39,248.47Z"/><path class="c" d="M674.45,207.56l-12.89-9.24c-.24-.17-.5-.33-.92-.61l-14.41,10.06c1.53-5.21,2.86-10,4.36-14.71a2.49,2.49,0,0,0-1.12-3.3c-4.18-3-8.25-6.12-13-9.65h10.24c2.37,0,5.27.75,7-.33s1.92-4,2.75-6.14c1.19-3,2.32-6.11,3.65-9.64.43.94.72,1.46.91,2,1.37,4,2.85,8,4,12.06.57,2,1.53,2.47,3.47,2.4,3.94-.16,7.9-.06,11.85,0,.71,0,1.42.07,2.82.14-3.6,2.77-6.68,5.15-9.78,7.52-3.56,2.71-3.55,2.7-2.27,6.94,1.05,3.49,2.11,7,3.11,10.47a11.24,11.24,0,0,1,.18,2.1Z"/><path class="c" d="M674.43,207.6l.29-.06s-.05,0-.08,0l-.19,0Z"/><path class="n" d="M94.81,261.46H88.16c.18-2.3,1.48-3.76,3.38-3.79S94.53,258.93,94.81,261.46Z"/><path class="l" d="M748.35,261.47h-6.53c0-2.23,1.15-3.67,3.08-3.78S747.9,258.76,748.35,261.47Z"/><path class="n" d="M504.69,269.15V261.7c2.58,0,5.23-.35,6.74,2.09a4,4,0,0,1-.06,3.49C509.84,269.77,507.19,269.25,504.69,269.15Z"/><path class="n" d="M504.64,257.23v-6c2.12-.52,4.27-.64,5.91,1a3.23,3.23,0,0,1,.42,3C509.67,257.77,507.14,257.15,504.64,257.23Z"/><path class="m" d="M284.89,263.64c.05,3.63-1.28,5.58-3.7,5.5s-4.16-2.58-3.86-6a8.22,8.22,0,0,1,.76-2.75c.81-1.71,2.43-2.53,4.05-1.83,1.14.5,1.95,1.95,2.7,3.11C285.15,262.14,284.89,263,284.89,263.64Z"/><path class="m" d="M406.77,263.94c0-3.72,1.14-5.46,3.66-5.46s4.21,2.34,3.92,5.84c-.09,1.14-.32,2.6-1.06,3.26a5.27,5.27,0,0,1-3.81,1.41c-1.05-.21-2-1.75-2.65-2.86C406.5,265.6,406.77,264.68,406.77,263.94Z"/><path class="n" d="M174.23,264.13c.62,3.16.07,4.86-1.89,5.26a3.32,3.32,0,0,1-2.91-1,3.09,3.09,0,0,1,.75-3C171.27,264.67,172.84,264.55,174.23,264.13Z"/><path class="n" d="M139.62,261.47H133c.22-2.35,1.58-3.84,3.44-3.81S139.41,258.94,139.62,261.47Z"/><path class="n" d="M610,261.47h-6.76c.34-2.42,1.5-3.71,3.34-3.8S609.54,258.79,610,261.47Z"/><path class="n" d="M375.51,261.47h-6.59c.13-2.27,1.47-3.77,3.39-3.8S375.21,258.87,375.51,261.47Z"/><path class="n" d="M473.6,261.55c.36-2.57,1.84-4.05,3.75-3.87s2.82,1.47,2.82,3.77c-.42,0-.85.1-1.28.1Z"/></svg>