<svg id="Layer_1" data-name="Layer 1" xmlns="http://www.w3.org/2000/svg" xmlns:xlink="http://www.w3.org/1999/xlink" viewBox="0 0 200 200"><defs><style>.cls-1{fill:none;}.cls-2{fill:#97d8e7;}.cls-3{fill:#cccbca;}.cls-4{fill:#e6e5e5;}.cls-5{fill:#353f49;}.cls-6{fill:#fff;}.cls-7{fill:#ff916e;}.cls-8{fill:#f77b55;}.cls-9{fill:#ee643c;}.cls-10{fill:#474f59;}.cls-11{clip-path:url(#clip-path);}.cls-12{fill:#656a73;}</style><clipPath id="clip-path"><path class="cls-1" d="M150.43,110.29a15.74,15.74,0,1,1-15.74-15.75A15.74,15.74,0,0,1,150.43,110.29Z"/></clipPath></defs><rect class="cls-2" width="200" height="200"/><circle class="cls-2" cx="100" cy="100" r="65"/><polygon class="cls-3" points="125.16 153.95 94.51 153.95 96.18 139.24 123.5 139.24 125.16 153.95"/><path class="cls-4" d="M131.29,155.66H88.38v-.73a1,1,0,0,1,.29-.7,1,1,0,0,1,.69-.28h41a1,1,0,0,1,.69.28,1,1,0,0,1,.29.7Z"/><path class="cls-4" d="M165,136.79a2.46,2.46,0,0,1-2.45,2.45H57.12a2.46,2.46,0,0,1-2.45-2.45v-7.36H165Z"/><path class="cls-5" d="M165,58.79a2.44,2.44,0,0,0-2.45-2.45H57.12a2.44,2.44,0,0,0-2.45,2.45v70.64H165Z"/><rect class="cls-6" x="60.19" y="61.85" width="99.29" height="62.05"/><rect class="cls-7" x="67.24" y="107.84" width="7.1" height="10.25"/><rect class="cls-8" x="74.34" y="90.13" width="7.1" height="27.97"/><rect class="cls-9" x="81.44" y="99.45" width="7.1" height="18.64"/><rect class="cls-7" x="88.54" y="95.41" width="7.1" height="22.68"/><rect class="cls-8" x="95.64" y="102.71" width="7.1" height="15.38"/><rect class="cls-9" x="102.74" y="84.22" width="7.1" height="33.87"/><rect class="cls-7" x="109.84" y="96.03" width="7.1" height="22.06"/><rect class="cls-8" x="116.93" y="98.2" width="7.11" height="19.89"/><rect class="cls-9" x="124.04" y="90.13" width="7.1" height="27.97"/><rect class="cls-7" x="131.14" y="81.11" width="7.1" height="36.98"/><rect class="cls-8" x="138.24" y="77.07" width="7.1" height="41.02"/><rect class="cls-9" x="145.34" y="86.55" width="7.1" height="31.54"/><rect class="cls-9" x="102.74" y="69.12" width="3.87" height="3.87"/><rect class="cls-4" x="108.54" y="71.05" width="8.71" height="1.94"/><rect class="cls-7" x="120.33" y="69.12" width="3.87" height="3.87"/><rect class="cls-4" x="126.13" y="71.05" width="8.71" height="1.94"/><rect class="cls-8" x="137.92" y="69.12" width="3.87" height="3.87"/><rect class="cls-4" x="143.72" y="71.05" width="8.71" height="1.94"/><rect class="cls-5" x="67.24" y="65.89" width="28.4" height="7.1"/><rect class="cls-6" x="70.48" y="68.59" width="10.95" height="1.94"/><rect class="cls-4" x="67.24" y="74.92" width="28.4" height="1.93"/><rect class="cls-4" x="67.24" y="78.79" width="14.2" height="1.93"/><rect class="cls-10" x="132.32" y="129.53" width="4.73" height="5.77"/><path class="cls-5" d="M154.37,110.29a19.68,19.68,0,1,1-19.68-19.68A19.68,19.68,0,0,1,154.37,110.29Z"/><path class="cls-6" d="M150.43,110.29a15.74,15.74,0,1,1-15.74-15.75A15.74,15.74,0,0,1,150.43,110.29Z"/><rect class="cls-10" x="130.96" y="139.24" width="7.46" height="16.42"/><rect class="cls-5" x="130.34" y="135.3" width="8.69" height="3.94"/><g class="cls-11"><rect class="cls-9" x="118.95" y="118.42" width="10.49" height="41.34"/><rect class="cls-7" x="129.44" y="105.1" width="10.49" height="54.66"/><rect class="cls-8" x="139.93" y="99.13" width="10.5" height="60.63"/></g><rect class="cls-5" x="35" y="98.58" width="39.34" height="57.09" rx="2.14"/><rect class="cls-10" x="51.55" y="151.14" width="6.24" height="2.14" rx="0.95"/><path class="cls-10" d="M54.67,102.34a1,1,0,0,1-1-1,1,1,0,1,1,1,1Z"/><path class="cls-5" d="M54.67,101.77a.41.41,0,1,1,.41-.41A.41.41,0,0,1,54.67,101.77Z"/><rect class="cls-6" x="37.23" y="104.15" width="34.88" height="44.6"/><rect class="cls-4" x="41.95" y="140.81" width="25.44" height="0.88"/><rect class="cls-3" x="41.95" y="136.85" width="25.44" height="3.09"/><rect class="cls-4" x="41.95" y="142.57" width="25.44" height="0.88"/><rect class="cls-4" x="41.95" y="144.32" width="12.72" height="0.88"/><path class="cls-4" d="M61.32,121.89a6.63,6.63,0,0,1-2,4.7L62.73,130a11.37,11.37,0,0,0,3.34-8.07Z"/><path class="cls-8" d="M59.37,126.6a6.65,6.65,0,1,1-7.25-10.85l-1.82-4.39A11.4,11.4,0,1,0,62.73,130Z"/><path class="cls-12" d="M54.67,115.24v-4.75a11.18,11.18,0,0,0-4.37.87l1.82,4.39A6.56,6.56,0,0,1,54.67,115.24Z"/><path class="cls-5" d="M54.67,115.24a6.65,6.65,0,0,1,6.65,6.65h4.75a11.39,11.39,0,0,0-11.4-11.4v4.75Z"/></svg>