<svg id="Layer_1" data-name="Layer 1" xmlns="http://www.w3.org/2000/svg" viewBox="0 0 151 151"><defs><style>.cls-1{fill:#565656;}.cls-2{fill:#494949;}.cls-3{fill:none;stroke:#4d4d4d;stroke-miterlimit:10;}.cls-4{fill:#f2f2f2;}</style></defs><path class="cls-1" d="M84.29,15.69v138.2a69.1,69.1,0,0,0,0-138.2Z" transform="translate(-9 -9.5)"/><path class="cls-2" d="M15.19,84.79a69.1,69.1,0,0,0,69.1,69.1h0V15.69a69.1,69.1,0,0,0-69.1,69.09Z" transform="translate(-9 -9.5)"/><circle class="cls-3" cx="75.5" cy="75.5" r="75"/><path class="cls-4" d="M50.74,97a27,27,0,0,0,5.73,3.14l-1.31,3.11a26.31,26.31,0,0,1-7.26-4.15,16.69,16.69,0,0,1-8.3,2.1A16.1,16.1,0,0,1,31.31,99a14.78,14.78,0,0,1-5.76-6.22,19.75,19.75,0,0,1-2-9,20.26,20.26,0,0,1,2-9.09,14.21,14.21,0,0,1,5.77-6.24,16.53,16.53,0,0,1,8.39-2.16,16.19,16.19,0,0,1,8.42,2.23,14.56,14.56,0,0,1,5.73,6.21,20.24,20.24,0,0,1,2,9,21,21,0,0,1-1.26,7.49A15.69,15.69,0,0,1,50.74,97Zm-9.84-5.7a16.33,16.33,0,0,1,6.38,3.22q3.93-3.58,3.93-10.8a17.1,17.1,0,0,0-1.39-7.16,10.79,10.79,0,0,0-4.08-4.76A11.66,11.66,0,0,0,31.43,73.5q-3.3,3.42-3.29,10.21,0,6.58,3.26,10.11a10.78,10.78,0,0,0,8.32,3.52,11.45,11.45,0,0,0,4.51-.89,14.56,14.56,0,0,0-4.42-1.94Z" transform="translate(-9 -9.5)"/><path class="cls-4" d="M93.71,96.61A14.37,14.37,0,0,1,89.24,100,12.3,12.3,0,0,1,84,101.17a10.32,10.32,0,0,1-8.22-3.5,9.46,9.46,0,0,1-2.47-6.38,8.81,8.81,0,0,1,2-5.67,16.88,16.88,0,0,1,6-4.44,20.72,20.72,0,0,1-3.06-4.25,7.57,7.57,0,0,1-.76-3.16,7.08,7.08,0,0,1,2.38-5.29,8.44,8.44,0,0,1,6-2.24,7.83,7.83,0,0,1,5.66,2.12,6.81,6.81,0,0,1,2.18,5.09q0,4.8-6.37,8.22l6.05,7.71a19.59,19.59,0,0,0,1.62-4.69l4.3.92a23.47,23.47,0,0,1-3,7.27,23.9,23.9,0,0,0,5.31,5.22l-2.76,3.28A24.32,24.32,0,0,1,93.71,96.61Zm-2.62-3.27-7.6-9.42A14.42,14.42,0,0,0,79,87.62,6,6,0,0,0,77.79,91a7.27,7.27,0,0,0,1.64,4.26,5.39,5.39,0,0,0,4.63,2.21,7.59,7.59,0,0,0,3.85-1.17,9.2,9.2,0,0,0,3.19-3ZM85.26,79a10.84,10.84,0,0,0,3.49-2.78,4.74,4.74,0,0,0,.8-2.65,3.84,3.84,0,0,0-1.09-2.82,3.73,3.73,0,0,0-2.73-1.1,3.85,3.85,0,0,0-2.8,1.09,3.51,3.51,0,0,0-1.12,2.64,3.89,3.89,0,0,0,.4,1.65,8.67,8.67,0,0,0,1.21,1.83Z" transform="translate(-9 -9.5)"/><path class="cls-4" d="M113.19,100.59l13-33.76H131l13.82,33.76h-5.09l-3.93-10.22H121.64l-3.71,10.22Zm9.74-13.84h11.44l-3.52-9.35q-1.6-4.28-2.39-7a43.84,43.84,0,0,1-1.82,6.45Z" transform="translate(-9 -9.5)"/></svg>